<svg width="501" height="444" viewBox="0 0 501 444" fill="none" xmlns="http://www.w3.org/2000/svg">
<g opacity="0.5" clip-path="url(#clip0)">
<path d="M501 166.427H0V444H501V166.427Z" fill="url(#paint0_linear)"/>
<path d="M495.706 170.107H5.30066V440.32H495.706V170.107Z" fill="#F5F5F5"/>
<path d="M250.494 176.625H10.1487V433.932H250.494V176.625Z" fill="url(#paint1_linear)"/>
<path d="M490.845 176.625H250.5V433.932H490.845V176.625Z" fill="url(#paint2_linear)"/>
<path d="M250.5 180.51H14.0421V430.041H250.5V180.51Z" fill="white"/>
<path d="M486.958 180.51H250.5V430.041H486.958V180.51Z" fill="white"/>
<path opacity="0.2" d="M201.492 197.61H35.04V206.941H201.492V197.61Z" fill="#1A5C80"/>
<path opacity="0.2" d="M97.2651 217.821H35.04V227.152H97.2651V217.821Z" fill="#1A5C80"/>
<path opacity="0.2" d="M182.825 217.821H120.6V227.152H182.825V217.821Z" fill="#1A5C80"/>
<path d="M201.492 395.84H139.267V405.171H201.492V395.84Z" fill="#1A5C80"/>
<path opacity="0.2" d="M201.492 395.84H139.267V405.171H201.492V395.84Z" fill="black"/>
<path opacity="0.2" d="M201.492 238.038H35.04V247.369H201.492V238.038Z" fill="#1A5C80"/>
<path opacity="0.2" d="M134.599 258.249H35.04V267.58H134.599V258.249Z" fill="#1A5C80"/>
<path opacity="0.2" d="M453.511 197.61H287.059V206.941H453.511V197.61Z" fill="#1A5C80"/>
<path opacity="0.2" d="M349.284 217.821H287.059V227.152H349.284V217.821Z" fill="#1A5C80"/>
<path opacity="0.2" d="M434.844 217.821H372.619V227.152H434.844V217.821Z" fill="#1A5C80"/>
<path opacity="0.2" d="M453.511 238.038H287.059V247.369H453.511V238.038Z" fill="#1A5C80"/>
<path opacity="0.2" d="M386.618 258.249H287.059V267.58H386.618V258.249Z" fill="#1A5C80"/>
<path d="M184.388 307.221H32.709V377.959H184.388V307.221Z" fill="url(#paint3_linear)"/>
<path d="M182.825 310.331H35.04V375.629H182.825V310.331Z" fill="#1A5C80"/>
<path d="M437.95 307.221H286.272V377.959H437.95V307.221Z" fill="url(#paint4_linear)"/>
<path d="M436.388 310.331H288.603V375.629H436.388V310.331Z" fill="#1A5C80"/>
<path d="M401.732 352.748L411.85 358.559" stroke="#37474F" stroke-width="5" stroke-miterlimit="10" stroke-linecap="round"/>
<path d="M286.737 286.731L296.854 292.537" stroke="#37474F" stroke-width="5" stroke-miterlimit="10" stroke-linecap="round"/>
<path d="M377.449 366.8C392.915 366.8 405.452 354.27 405.452 338.813C405.452 323.357 392.915 310.827 377.449 310.827C361.983 310.827 349.445 323.357 349.445 338.813C349.445 354.27 361.983 366.8 377.449 366.8Z" fill="#CFD8DC"/>
<path d="M321.33 334.129C336.796 334.129 349.334 321.599 349.334 306.143C349.334 290.686 336.796 278.156 321.33 278.156C305.864 278.156 293.327 290.686 293.327 306.143C293.327 321.599 305.864 334.129 321.33 334.129Z" fill="#CFD8DC"/>
<path opacity="0.2" d="M321.33 330.238C334.646 330.238 345.44 319.45 345.44 306.142C345.44 292.835 334.646 282.047 321.33 282.047C308.014 282.047 297.22 292.835 297.22 306.142C297.22 319.45 308.014 330.238 321.33 330.238Z" fill="white"/>
<path opacity="0.2" d="M377.982 362.76C391.298 362.76 402.092 351.972 402.092 338.664C402.092 325.357 391.298 314.569 377.982 314.569C364.666 314.569 353.872 325.357 353.872 338.664C353.872 351.972 364.666 362.76 377.982 362.76Z" fill="white"/>
<path d="M345.465 319.551L353.555 324.197" stroke="#37474F" stroke-width="5" stroke-miterlimit="10"/>
<path opacity="0.2" d="M303.593 299.544C305.563 296.115 308.347 293.224 311.7 291.125C315.052 289.026 318.87 287.784 322.817 287.508C326.763 287.231 330.717 287.93 334.329 289.542C337.942 291.154 341.102 293.629 343.531 296.75C342.199 293.586 340.207 290.742 337.686 288.41C335.166 286.078 332.176 284.311 328.917 283.228C325.658 282.144 322.205 281.769 318.789 282.127C315.373 282.486 312.073 283.569 309.111 285.306C306.148 287.042 303.59 289.391 301.61 292.195C299.629 294.999 298.27 298.194 297.625 301.566C296.98 304.937 297.063 308.407 297.869 311.744C298.675 315.081 300.185 318.207 302.297 320.913C300.848 317.493 300.21 313.784 300.435 310.077C300.66 306.369 301.741 302.764 303.593 299.544Z" fill="white"/>
<path opacity="0.2" d="M360.232 332.066C362.205 328.639 364.99 325.749 368.343 323.651C371.696 321.553 375.513 320.311 379.46 320.035C383.406 319.759 387.359 320.457 390.972 322.067C394.585 323.678 397.746 326.152 400.176 329.272C398.839 326.112 396.843 323.274 394.321 320.947C391.798 318.62 388.808 316.858 385.549 315.779C382.291 314.7 378.839 314.328 375.426 314.689C372.012 315.05 368.715 316.135 365.755 317.872C362.794 319.609 360.239 321.957 358.26 324.76C356.281 327.563 354.923 330.756 354.277 334.126C353.632 337.495 353.714 340.964 354.517 344.299C355.321 347.634 356.828 350.76 358.937 353.466C357.484 350.042 356.846 346.327 357.07 342.614C357.295 338.901 358.377 335.291 360.232 332.066Z" fill="white"/>
<path d="M468.055 59.8953H452.866C449.977 38.3958 431.559 22.4353 409.253 22.4353C403.472 22.4353 397.748 23.5732 392.408 25.7839C387.068 27.9946 382.215 31.2349 378.128 35.3198C374.04 39.4047 370.798 44.2542 368.586 49.5913C366.374 54.9285 365.236 60.6488 365.236 66.4258C365.236 72.2027 366.374 77.923 368.586 83.2602C370.798 88.5973 374.04 93.4468 378.128 97.5317C382.215 101.617 387.068 104.857 392.408 107.068C397.748 109.278 403.472 110.416 409.253 110.416C431.788 110.416 450.349 94.115 452.947 72.2994H468.055C471.155 72.2994 473.635 69.1643 473.635 66.1036C473.635 63.0428 471.124 59.8953 468.055 59.8953Z" fill="url(#paint5_linear)"/>
<path d="M465.315 60.8493H450.982C449.562 50.3922 444.211 40.868 436.016 34.2132C427.821 27.5584 417.397 24.2726 406.865 25.0239C396.332 25.7752 386.481 30.5071 379.315 38.2577C372.149 46.0082 368.205 56.1955 368.286 66.7481C368.367 77.3007 372.466 87.4265 379.75 95.0666C387.034 102.707 396.956 107.288 407.499 107.878C418.041 108.468 428.413 105.023 436.506 98.244C444.598 91.4647 449.803 81.8598 451.062 71.3822H465.321C466.719 71.3822 468.059 70.8274 469.048 69.8397C470.036 68.8521 470.591 67.5125 470.591 66.1158C470.591 64.719 470.036 63.3795 469.048 62.3918C468.059 61.4042 466.719 60.8493 465.321 60.8493H465.315Z" fill="#F2F2F2"/>
<path d="M411.069 98.644C428.873 98.644 443.307 84.2193 443.307 66.4256C443.307 48.6319 428.873 34.2073 411.069 34.2073C393.265 34.2073 378.831 48.6319 378.831 66.4256C378.831 84.2193 393.265 98.644 411.069 98.644Z" fill="#985454"/>
<path opacity="0.2" d="M416.029 39.7834C416.029 39.7834 437.727 41.0226 435.867 68.2843" stroke="white" stroke-width="4" stroke-miterlimit="10"/>
<path d="M98.3434 0.000993928L83.5023 89.0161L228.428 113.15L243.269 24.1347L98.3434 0.000993928Z" fill="url(#paint6_linear)"/>
<path d="M101.104 2.74026L87.2533 85.8149L227.268 109.131L241.119 26.0562L101.104 2.74026Z" fill="white"/>
<g opacity="0.6">
<path opacity="0.6" d="M233.989 31.3817L216.176 28.4153L213.979 41.5919L231.792 44.5583L233.989 31.3817Z" fill="#1A5C80"/>
<path opacity="0.6" d="M213.628 63.4874L145.223 52.0962L144.51 56.3682L212.916 67.7594L213.628 63.4874Z" fill="#1A5C80"/>
<path opacity="0.6" d="M193.312 71.0783L143.436 62.7727L142.961 65.6207L192.837 73.9263L193.312 71.0783Z" fill="#1A5C80"/>
</g>
<path d="M35.7603 2.14842L20.9193 91.1636L165.845 115.297L180.686 26.2821L35.7603 2.14842Z" fill="url(#paint7_linear)"/>
<path d="M38.5208 4.8816L24.6701 87.9563L164.685 111.272L178.536 28.1976L38.5208 4.8816Z" fill="white"/>
<g opacity="0.6">
<path opacity="0.6" d="M171.407 33.527L153.593 30.5605L151.397 43.7371L169.21 46.7035L171.407 33.527Z" fill="#1A5C80"/>
<path opacity="0.6" d="M151.046 65.6326L82.6404 54.2415L81.9282 58.5135L150.334 69.9046L151.046 65.6326Z" fill="#1A5C80"/>
<path opacity="0.6" d="M130.736 73.2236L80.8598 64.918L80.3849 67.766L130.261 76.0715L130.736 73.2236Z" fill="#1A5C80"/>
</g>
<path d="M256.08 180.057H244.92V429.75H256.08V180.057Z" fill="url(#paint8_linear)"/>
</g>
<defs>
<linearGradient id="paint0_linear" x1="250.5" y1="444" x2="250.5" y2="166.427" gradientUnits="userSpaceOnUse">
<stop stop-color="#808080" stop-opacity="0.25"/>
<stop offset="0.54" stop-color="#808080" stop-opacity="0.12"/>
<stop offset="1" stop-color="#808080" stop-opacity="0.1"/>
</linearGradient>
<linearGradient id="paint1_linear" x1="50535.5" y1="180382" x2="50535.5" y2="73527.1" gradientUnits="userSpaceOnUse">
<stop stop-color="#808080" stop-opacity="0.25"/>
<stop offset="0.54" stop-color="#808080" stop-opacity="0.12"/>
<stop offset="1" stop-color="#808080" stop-opacity="0.1"/>
</linearGradient>
<linearGradient id="paint2_linear" x1="-102521" y1="203920" x2="-102521" y2="97065.3" gradientUnits="userSpaceOnUse">
<stop stop-color="#808080" stop-opacity="0.25"/>
<stop offset="0.54" stop-color="#808080" stop-opacity="0.12"/>
<stop offset="1" stop-color="#808080" stop-opacity="0.1"/>
</linearGradient>
<linearGradient id="paint3_linear" x1="26590.2" y1="43458.8" x2="26590.2" y2="35382.6" gradientUnits="userSpaceOnUse">
<stop stop-color="#808080" stop-opacity="0.25"/>
<stop offset="0.54" stop-color="#808080" stop-opacity="0.12"/>
<stop offset="1" stop-color="#808080" stop-opacity="0.1"/>
</linearGradient>
<linearGradient id="paint4_linear" x1="88880.3" y1="43458.8" x2="88880.3" y2="35382.6" gradientUnits="userSpaceOnUse">
<stop stop-color="#808080" stop-opacity="0.25"/>
<stop offset="0.54" stop-color="#808080" stop-opacity="0.12"/>
<stop offset="1" stop-color="#808080" stop-opacity="0.1"/>
</linearGradient>
<linearGradient id="paint5_linear" x1="94943.8" y1="23769.4" x2="94943.8" y2="11276.1" gradientUnits="userSpaceOnUse">
<stop stop-color="#808080" stop-opacity="0.25"/>
<stop offset="0.54" stop-color="#808080" stop-opacity="0.12"/>
<stop offset="1" stop-color="#808080" stop-opacity="0.1"/>
</linearGradient>
<linearGradient id="paint6_linear" x1="35033.1" y1="42639.7" x2="38546.2" y2="21543.4" gradientUnits="userSpaceOnUse">
<stop stop-color="#808080" stop-opacity="0.25"/>
<stop offset="0.54" stop-color="#808080" stop-opacity="0.12"/>
<stop offset="1" stop-color="#808080" stop-opacity="0.1"/>
</linearGradient>
<linearGradient id="paint7_linear" x1="25670.3" y1="44060" x2="29183.3" y2="22963.6" gradientUnits="userSpaceOnUse">
<stop stop-color="#808080" stop-opacity="0.25"/>
<stop offset="0.54" stop-color="#808080" stop-opacity="0.12"/>
<stop offset="1" stop-color="#808080" stop-opacity="0.1"/>
</linearGradient>
<linearGradient id="paint8_linear" x1="244.92" y1="304.904" x2="256.08" y2="304.904" gradientUnits="userSpaceOnUse">
<stop stop-color="white" stop-opacity="0.12"/>
<stop offset="0.54" stop-color="#808080" stop-opacity="0.12"/>
<stop offset="1" stop-color="white" stop-opacity="0.12"/>
</linearGradient>
<clipPath id="clip0">
<rect width="501" height="444" fill="white"/>
</clipPath>
</defs>
</svg>
