<svg width="668" height="461" viewBox="0 0 668 461" fill="none" xmlns="http://www.w3.org/2000/svg">
<g clip-path="url(#clip0)">
<path opacity="0.1" d="M377.84 62.7629C335.022 62.8202 293.808 50.6867 254.387 37.2075C214.966 23.7283 175.849 8.63443 133.827 2.23841C106.801 -1.87291 76.0699 -1.49499 54.9444 13.4329C34.6095 27.7938 28.721 51.5628 25.8798 73.5222C23.7432 90.0419 22.758 107.38 30.7602 122.492C36.3165 132.982 45.8252 141.628 52.5272 151.626C75.9209 186.406 61.8526 230.834 39.1176 266.422C28.4575 283.119 15.9701 299.124 7.91059 316.777C-0.148923 334.43 -3.45407 354.449 4.76583 371.873C12.9113 389.143 31.3101 401.677 51.055 410.238C91.1521 427.657 137.837 431.39 183.266 432.827C283.83 436.017 384.588 429.512 485.077 423.007C522.264 420.602 559.618 418.18 596.037 411.211C616.258 407.346 637.079 401.609 651.417 389.034C669.615 373.07 673.339 347.005 660.095 328.269C637.887 296.845 579.328 290.918 563.404 256.917C554.623 238.198 562.195 216.731 573.348 198.688C597.269 159.974 638.443 125.297 639.136 81.9968C639.611 52.2613 618.199 23.2531 586.219 10.3293C552.698 -3.20708 506.993 0.27437 483.508 25.5034C459.358 51.494 415.646 62.7229 377.84 62.7629Z" fill="#1A5C80"/>
<path d="M568.536 369.537C568.536 369.537 561.496 364.894 554.52 368.198C554.52 368.198 556.668 372.332 565.5 371.942L568.536 369.537Z" fill="#1A5C80"/>
<path d="M569.43 369.784C569.43 369.784 571.572 377.938 566.199 383.486C566.199 383.486 562.969 380.125 566.199 371.891L569.43 369.784Z" fill="#1A5C80"/>
<path d="M578.183 361.956C578.183 361.956 577.661 355.022 561.995 357.324C561.995 357.324 561.92 361.796 567.419 363.915C572.918 366.033 575.439 364.247 578.183 361.956Z" fill="#1A5C80"/>
<path d="M579.168 361.91C579.168 361.91 585.79 364.035 579.884 378.722C579.884 378.722 575.513 377.749 574.728 371.902C573.944 366.056 576.269 364.04 579.168 361.91Z" fill="#1A5C80"/>
<path d="M588.012 352.073C588.012 352.073 588.911 340.661 572.901 341.829C572.901 341.829 571.756 352.136 585.188 354.816L588.012 352.073Z" fill="#1A5C80"/>
<path d="M598.592 339.189C598.592 339.189 596.398 326.254 580.394 330.108C580.394 330.108 580.336 341.291 595.98 342.27L598.592 339.189Z" fill="#1A5C80"/>
<path d="M606.325 325.87C606.325 325.87 602.647 313.273 586.792 317.041C586.792 317.041 590.567 328.373 605.271 328.195L606.325 325.87Z" fill="#1A5C80"/>
<path d="M613.668 312.861C613.668 312.861 610.077 299.788 594.766 303.699C594.766 303.699 599.875 316.119 612.655 315.071L613.668 312.861Z" fill="#1A5C80"/>
<path d="M618.4 300.504C618.4 300.504 615.639 284.517 601.364 288.056C601.364 288.056 605.512 302.6 617.352 302.835L618.4 300.504Z" fill="#1A5C80"/>
<path d="M622.839 285.576C622.839 285.576 619.523 269.463 605.082 274.124C605.082 274.124 610.741 289.355 621.814 287.781L622.839 285.576Z" fill="#1A5C80"/>
<path d="M625.566 271.685C625.566 271.685 620.302 255.566 609.137 256.001C609.137 256.001 614.516 273.025 624.632 274.897L625.566 271.685Z" fill="#1A5C80"/>
<path d="M627.33 258.125C627.33 258.125 621.602 238.725 612.517 240.22C612.517 240.22 616.481 255.051 627.009 261.149L627.33 258.125Z" fill="#1A5C80"/>
<path d="M628.327 241.949C628.327 241.949 622.954 225.785 614.006 225.138C614.006 225.138 617.661 241.045 628.149 246.152L628.327 241.949Z" fill="#1A5C80"/>
<path d="M629.409 226.855C629.409 226.855 622.713 210.673 616.807 210.307C616.807 210.307 619.717 226.243 628.836 229.512L629.409 226.855Z" fill="#1A5C80"/>
<path d="M630.148 212.815C630.148 212.815 626.03 195.242 620.113 193.782C620.113 193.782 620.92 208.16 629.553 214.132L630.148 212.815Z" fill="#1A5C80"/>
<path d="M632.382 194.423C632.382 194.423 628.052 180.411 623.257 178.275C623.257 178.275 624.202 194.795 631.277 197.847L632.382 194.423Z" fill="#1A5C80"/>
<path d="M634.232 182.398L635.103 157.696C635.103 157.696 626.139 176.317 633.585 186.733L634.232 182.398Z" fill="#1A5C80"/>
<path d="M641.152 157.828C641.152 157.828 647.608 139.791 649.172 138.783C649.172 138.783 636.512 150.487 637.75 165.541L641.152 157.828Z" fill="#1A5C80"/>
<path d="M588.447 351.987C588.447 351.987 599.801 350.504 599.463 366.543C599.463 366.543 589.204 368.215 585.853 354.948L588.447 351.987Z" fill="#1A5C80"/>
<path d="M599.13 338.754C599.13 338.754 612.248 338.714 611.16 355.131C611.16 355.131 600.144 357.101 596.513 341.858L599.13 338.754Z" fill="#1A5C80"/>
<path d="M606.451 326.93C606.451 326.93 618.36 321.347 625.978 335.759C625.978 335.759 614.98 340.409 605.397 329.26L606.451 326.93Z" fill="#1A5C80"/>
<path d="M613.932 312.981C613.932 312.981 626.127 307.043 633.287 321.118C633.287 321.118 620.582 325.493 612.924 315.209L613.932 312.981Z" fill="#1A5C80"/>
<path d="M618.245 300.853C618.245 300.853 629.982 289.647 639.348 300.979C639.348 300.979 627.359 310.204 617.707 303.35L618.245 300.853Z" fill="#1A5C80"/>
<path d="M622.175 285.193C622.175 285.193 633.98 273.74 643.271 285.719C643.271 285.719 630.022 295.127 621.751 287.597L622.175 285.193Z" fill="#1A5C80"/>
<path d="M624.38 271.227C624.38 271.227 633.476 256.912 644.188 260.107C644.188 260.107 634.748 275.264 624.483 274.588L624.38 271.227Z" fill="#1A5C80"/>
<path d="M627.061 258.034C627.061 258.034 636.226 240.008 644.898 243.146C644.898 243.146 638.288 257.003 626.826 261.074L627.061 258.034Z" fill="#1A5C80"/>
<path d="M627.697 241.01C627.697 241.01 637.12 226.821 645.947 228.556C645.947 228.556 638.242 242.946 626.78 245.116L627.697 241.01Z" fill="#1A5C80"/>
<path d="M628.43 226.54C628.43 226.54 635.733 210.616 641.668 210.507C641.668 210.507 638.162 226.317 628.922 229.243L628.43 226.54Z" fill="#1A5C80"/>
<path d="M629.862 212.471C629.862 212.471 637.979 196.347 644.079 196.312C644.079 196.312 639.926 210.101 630.131 213.886L629.862 212.471Z" fill="#1A5C80"/>
<path d="M631.082 195.431C631.082 195.431 637.154 182.089 642.183 180.577C642.183 180.577 639.147 196.839 631.752 198.969L631.082 195.431Z" fill="#1A5C80"/>
<path d="M634.954 181.911L648.524 161.246C648.524 161.246 645.047 181.631 632.972 185.868L634.954 181.911Z" fill="#1A5C80"/>
<path d="M644.268 159.494C644.268 159.494 660.038 148.614 660.611 146.856C660.611 146.856 652.591 162.094 637.698 164.785L644.268 159.494Z" fill="#1A5C80"/>
<path d="M645.213 154.598C645.213 154.598 663.32 137.197 667.943 137.214C667.943 137.214 653.009 137.895 644.778 153.67L645.213 154.598Z" fill="#1A5C80"/>
<path d="M631.26 198.013L631.918 198.099C635.321 171.479 640.281 155.726 645.883 153.796L645.666 153.167C639.726 155.228 634.731 170.74 631.26 198.013Z" fill="#444053"/>
<path d="M626.253 261.676L627.25 261.756C627.462 259.271 627.622 256.728 627.731 254.192C628.682 232.158 630.154 211.922 632.09 196.753L631.517 196.038C629.576 211.24 627.685 232.083 626.734 254.152C626.626 256.671 626.465 259.202 626.253 261.676Z" fill="#444053"/>
<path d="M549.954 382.238C550.126 382.164 567.671 374.33 585.881 355.652C596.55 344.712 605.415 332.149 612.145 318.432C620.565 301.294 625.698 280.234 627.416 259.775L626.379 260.261C622.513 306.184 601.599 337.563 584.97 354.655C566.938 373.168 549.588 380.921 549.416 380.995L549.954 382.238Z" fill="#444053"/>
<path d="M595.384 48.8033H44.9775C43.677 48.8033 42.4298 49.3197 41.5103 50.2389C40.5908 51.1581 40.0742 52.4048 40.0742 53.7048V67.9856H600.288V53.7048C600.288 52.4048 599.771 51.1581 598.851 50.2389C597.932 49.3197 596.685 48.8033 595.384 48.8033Z" fill="#3F3D56"/>
<path d="M40.0742 67.9856V389.355C40.0742 391.977 41.1158 394.49 42.9699 396.344C44.8241 398.197 47.3388 399.239 49.9609 399.239H590.401C593.023 399.239 595.538 398.197 597.392 396.344C599.246 394.49 600.288 391.977 600.288 389.355V67.9856H40.0742Z" fill="white"/>
<path opacity="0.8" d="M48.9471 60.5417C50.2125 60.5417 51.2383 59.5163 51.2383 58.2513C51.2383 56.9863 50.2125 55.9609 48.9471 55.9609C47.6817 55.9609 46.6558 56.9863 46.6558 58.2513C46.6558 59.5163 47.6817 60.5417 48.9471 60.5417Z" fill="#FA5959"/>
<path opacity="0.8" d="M55.2481 60.5417C56.5135 60.5417 57.5393 59.5163 57.5393 58.2513C57.5393 56.9863 56.5135 55.9609 55.2481 55.9609C53.9826 55.9609 52.9568 56.9863 52.9568 58.2513C52.9568 59.5163 53.9826 60.5417 55.2481 60.5417Z" fill="#FED253"/>
<path opacity="0.8" d="M61.549 60.5417C62.8144 60.5417 63.8403 59.5163 63.8403 58.2513C63.8403 56.9863 62.8144 55.9609 61.549 55.9609C60.2836 55.9609 59.2578 56.9863 59.2578 58.2513C59.2578 59.5163 60.2836 60.5417 61.549 60.5417Z" fill="#8CCF4D"/>
<path opacity="0.05" d="M542.382 121.57H92.1488V319.474H542.382V121.57Z" fill="black"/>
<path d="M538.945 123.07H95.5857V316.611H538.945V123.07Z" fill="#3F3D56"/>
<path d="M216.45 172.881C207.726 172.881 199.199 175.467 191.945 180.312C184.692 185.157 179.039 192.043 175.7 200.099C172.362 208.156 171.489 217.021 173.19 225.574C174.892 234.127 179.093 241.983 185.261 248.149C191.43 254.315 199.289 258.514 207.845 260.216C216.401 261.917 225.269 261.044 233.329 257.707C241.388 254.37 248.277 248.718 253.123 241.468C257.97 234.217 260.556 225.692 260.556 216.972C260.556 211.182 259.416 205.449 257.199 200.099C254.982 194.75 251.734 189.889 247.638 185.795C243.542 181.701 238.68 178.453 233.329 176.238C227.977 174.022 222.242 172.881 216.45 172.881ZM224.36 218.031V238.909H208.768V218.031C206.611 216.399 205.02 214.13 204.222 211.545C203.424 208.96 203.458 206.19 204.319 203.626C205.181 201.061 206.826 198.832 209.023 197.253C211.22 195.673 213.858 194.824 216.564 194.824C219.27 194.824 221.908 195.673 224.105 197.253C226.302 198.832 227.948 201.061 228.809 203.626C229.671 206.19 229.705 208.96 228.906 211.545C228.108 214.13 226.518 216.399 224.36 218.031Z" fill="#1A5C80"/>
<path opacity="0.05" d="M216.45 172.881C207.726 172.881 199.199 175.467 191.945 180.312C184.692 185.157 179.039 192.043 175.7 200.099C172.362 208.156 171.489 217.021 173.19 225.574C174.892 234.127 179.093 241.983 185.261 248.149C191.43 254.315 199.289 258.514 207.845 260.216C216.401 261.917 225.269 261.044 233.329 257.707C241.388 254.37 248.277 248.718 253.123 241.468C257.97 234.217 260.556 225.692 260.556 216.972C260.556 211.182 259.416 205.449 257.199 200.099C254.982 194.75 251.734 189.889 247.638 185.795C243.542 181.701 238.68 178.453 233.329 176.238C227.977 174.022 222.242 172.881 216.45 172.881ZM224.36 218.031V238.909H208.768V218.031C206.611 216.399 205.02 214.13 204.222 211.545C203.424 208.96 203.458 206.19 204.319 203.626C205.181 201.061 206.826 198.832 209.023 197.253C211.22 195.673 213.858 194.824 216.564 194.824C219.27 194.824 221.908 195.673 224.105 197.253C226.302 198.832 227.948 201.061 228.809 203.626C229.671 206.19 229.705 208.96 228.906 211.545C228.108 214.13 226.518 216.399 224.36 218.031Z" fill="black"/>
<path d="M216.45 160.284C205.234 160.284 194.27 163.609 184.944 169.838C175.618 176.067 168.35 184.92 164.058 195.279C159.766 205.637 158.643 217.035 160.831 228.031C163.019 239.028 168.42 249.129 176.351 257.057C184.281 264.985 194.386 270.384 205.386 272.571C216.387 274.758 227.789 273.636 238.151 269.345C248.513 265.054 257.37 257.789 263.601 248.466C269.832 239.144 273.158 228.184 273.158 216.972C273.158 201.938 267.184 187.519 256.549 176.888C245.914 166.257 231.49 160.284 216.45 160.284ZM226.617 218.335V245.173H206.569V218.335C203.793 216.236 201.748 213.318 200.721 209.994C199.694 206.669 199.737 203.107 200.845 199.808C201.953 196.51 204.069 193.643 206.894 191.612C209.72 189.581 213.113 188.488 216.593 188.488C220.073 188.488 223.466 189.581 226.291 191.612C229.117 193.643 231.233 196.51 232.341 199.808C233.448 203.107 233.492 206.669 232.465 209.994C231.438 213.318 229.392 216.236 226.617 218.335Z" fill="#1A5C80"/>
<path d="M479.945 209.534H296.644V229.003H479.945V209.534Z" fill="white"/>
<path d="M479.945 245.036H440.42V264.504H479.945V245.036Z" fill="#1A5C80"/>
<path d="M314.688 218.976H311.371L314.321 216.033C314.374 215.979 314.403 215.906 314.403 215.83C314.403 215.754 314.374 215.681 314.321 215.627C314.294 215.6 314.263 215.578 314.228 215.564C314.193 215.549 314.155 215.542 314.118 215.542C314.08 215.542 314.042 215.549 314.007 215.564C313.973 215.578 313.941 215.6 313.914 215.627L310.964 218.575V215.254C310.964 215.178 310.934 215.106 310.88 215.052C310.827 214.998 310.754 214.968 310.678 214.968C310.602 214.969 310.53 215 310.477 215.053C310.424 215.107 310.393 215.179 310.391 215.254V218.575L307.447 215.609C307.421 215.583 307.389 215.561 307.354 215.547C307.319 215.532 307.282 215.525 307.244 215.525C307.206 215.525 307.169 215.532 307.134 215.547C307.099 215.561 307.067 215.583 307.04 215.609C306.988 215.664 306.958 215.737 306.958 215.813C306.958 215.889 306.988 215.961 307.04 216.016L309.99 218.959H306.668C306.593 218.961 306.521 218.991 306.467 219.045C306.414 219.098 306.383 219.17 306.382 219.245C306.382 219.321 306.412 219.394 306.466 219.448C306.519 219.502 306.592 219.532 306.668 219.532H309.99L307.04 222.481C306.988 222.535 306.958 222.608 306.958 222.684C306.958 222.76 306.988 222.833 307.04 222.887C307.096 222.939 307.168 222.967 307.244 222.967C307.319 222.967 307.392 222.939 307.447 222.887L310.391 219.938V223.254C310.391 223.33 310.422 223.402 310.475 223.456C310.529 223.51 310.602 223.54 310.678 223.54C310.754 223.54 310.827 223.51 310.88 223.456C310.934 223.402 310.964 223.33 310.964 223.254V219.938L313.914 222.887C313.969 222.939 314.042 222.967 314.118 222.967C314.193 222.967 314.266 222.939 314.321 222.887C314.374 222.833 314.403 222.76 314.403 222.684C314.403 222.608 314.374 222.535 314.321 222.481L311.371 219.532H314.688C314.763 219.532 314.836 219.502 314.89 219.448C314.944 219.394 314.974 219.321 314.974 219.245C314.97 219.172 314.937 219.104 314.884 219.054C314.831 219.004 314.761 218.976 314.688 218.976Z" fill="#1A5C80"/>
<path d="M326.717 218.976H323.4L326.35 216.033C326.403 215.979 326.432 215.906 326.432 215.83C326.432 215.754 326.403 215.681 326.35 215.627C326.323 215.6 326.292 215.578 326.257 215.564C326.222 215.549 326.184 215.542 326.147 215.542C326.109 215.542 326.071 215.549 326.037 215.564C326.002 215.578 325.97 215.6 325.943 215.627L322.993 218.575V215.254C322.993 215.178 322.963 215.106 322.909 215.052C322.856 214.998 322.783 214.968 322.707 214.968C322.631 214.969 322.559 215 322.506 215.053C322.453 215.107 322.422 215.179 322.421 215.254V218.575L319.476 215.609C319.45 215.583 319.418 215.561 319.383 215.547C319.348 215.532 319.311 215.525 319.273 215.525C319.235 215.525 319.198 215.532 319.163 215.547C319.128 215.561 319.096 215.583 319.07 215.609C319.017 215.664 318.987 215.737 318.987 215.813C318.987 215.889 319.017 215.961 319.07 216.016L322.02 218.959H318.697C318.622 218.961 318.55 218.991 318.496 219.045C318.443 219.098 318.412 219.17 318.411 219.245C318.411 219.321 318.441 219.394 318.495 219.448C318.548 219.502 318.621 219.532 318.697 219.532H322.02L319.07 222.481C319.017 222.535 318.987 222.608 318.987 222.684C318.987 222.76 319.017 222.833 319.07 222.887C319.125 222.939 319.197 222.967 319.273 222.967C319.348 222.967 319.421 222.939 319.476 222.887L322.421 219.938V223.254C322.421 223.33 322.451 223.402 322.504 223.456C322.558 223.51 322.631 223.54 322.707 223.54C322.783 223.54 322.856 223.51 322.909 223.456C322.963 223.402 322.993 223.33 322.993 223.254V219.938L325.943 222.887C325.999 222.939 326.071 222.967 326.147 222.967C326.222 222.967 326.295 222.939 326.35 222.887C326.403 222.833 326.432 222.76 326.432 222.684C326.432 222.608 326.403 222.535 326.35 222.481L323.4 219.532H326.717C326.793 219.532 326.865 219.502 326.919 219.448C326.973 219.394 327.003 219.321 327.003 219.245C326.999 219.172 326.967 219.104 326.913 219.054C326.86 219.004 326.79 218.976 326.717 218.976Z" fill="#1A5C80"/>
<path d="M338.746 218.976H335.429L338.379 216.033C338.432 215.979 338.462 215.906 338.462 215.83C338.462 215.754 338.432 215.681 338.379 215.627C338.353 215.6 338.321 215.578 338.286 215.564C338.251 215.549 338.214 215.542 338.176 215.542C338.138 215.542 338.101 215.549 338.066 215.564C338.031 215.578 337.999 215.6 337.972 215.627L335.022 218.575V215.254C335.022 215.178 334.992 215.106 334.939 215.052C334.885 214.998 334.812 214.968 334.736 214.968C334.661 214.969 334.589 215 334.535 215.053C334.482 215.107 334.451 215.179 334.45 215.254V218.575L331.505 215.609C331.479 215.583 331.447 215.561 331.412 215.547C331.377 215.532 331.34 215.525 331.302 215.525C331.264 215.525 331.227 215.532 331.192 215.547C331.157 215.561 331.125 215.583 331.099 215.609C331.046 215.664 331.016 215.737 331.016 215.813C331.016 215.889 331.046 215.961 331.099 216.016L334.049 218.959H330.726C330.651 218.961 330.579 218.991 330.525 219.045C330.472 219.098 330.441 219.17 330.44 219.245C330.44 219.321 330.47 219.394 330.524 219.448C330.578 219.502 330.65 219.532 330.726 219.532H334.049L331.099 222.481C331.046 222.535 331.016 222.608 331.016 222.684C331.016 222.76 331.046 222.833 331.099 222.887C331.154 222.939 331.226 222.967 331.302 222.967C331.377 222.967 331.45 222.939 331.505 222.887L334.45 219.938V223.254C334.45 223.33 334.48 223.402 334.534 223.456C334.587 223.51 334.66 223.54 334.736 223.54C334.812 223.54 334.885 223.51 334.939 223.456C334.992 223.402 335.022 223.33 335.022 223.254V219.938L337.972 222.887C338.028 222.939 338.1 222.967 338.176 222.967C338.251 222.967 338.324 222.939 338.379 222.887C338.432 222.833 338.462 222.76 338.462 222.684C338.462 222.608 338.432 222.535 338.379 222.481L335.429 219.532H338.746C338.822 219.532 338.895 219.502 338.948 219.448C339.002 219.394 339.032 219.321 339.032 219.245C339.028 219.172 338.996 219.104 338.942 219.054C338.889 219.004 338.819 218.976 338.746 218.976Z" fill="#1A5C80"/>
<path d="M350.775 218.976H347.458L350.408 216.033C350.461 215.979 350.491 215.906 350.491 215.83C350.491 215.754 350.461 215.681 350.408 215.627C350.382 215.6 350.35 215.578 350.315 215.564C350.28 215.549 350.243 215.542 350.205 215.542C350.167 215.542 350.13 215.549 350.095 215.564C350.06 215.578 350.028 215.6 350.002 215.627L347.052 218.575V215.254C347.052 215.178 347.021 215.106 346.968 215.052C346.914 214.998 346.841 214.968 346.765 214.968C346.69 214.969 346.618 215 346.564 215.053C346.511 215.107 346.48 215.179 346.479 215.254V218.575L343.535 215.609C343.508 215.583 343.476 215.561 343.441 215.547C343.406 215.532 343.369 215.525 343.331 215.525C343.293 215.525 343.256 215.532 343.221 215.547C343.186 215.561 343.154 215.583 343.128 215.609C343.075 215.664 343.045 215.737 343.045 215.813C343.045 215.889 343.075 215.961 343.128 216.016L346.078 218.959H342.756C342.68 218.961 342.608 218.991 342.555 219.045C342.501 219.098 342.471 219.17 342.469 219.245C342.469 219.321 342.499 219.394 342.553 219.448C342.607 219.502 342.68 219.532 342.756 219.532H346.078L343.128 222.481C343.075 222.535 343.045 222.608 343.045 222.684C343.045 222.76 343.075 222.833 343.128 222.887C343.183 222.939 343.256 222.967 343.331 222.967C343.407 222.967 343.479 222.939 343.535 222.887L346.479 219.938V223.254C346.479 223.33 346.509 223.402 346.563 223.456C346.616 223.51 346.689 223.54 346.765 223.54C346.841 223.54 346.914 223.51 346.968 223.456C347.021 223.402 347.052 223.33 347.052 223.254V219.938L350.002 222.887C350.057 222.939 350.129 222.967 350.205 222.967C350.28 222.967 350.353 222.939 350.408 222.887C350.461 222.833 350.491 222.76 350.491 222.684C350.491 222.608 350.461 222.535 350.408 222.481L347.458 219.532H350.775C350.851 219.532 350.924 219.502 350.977 219.448C351.031 219.394 351.061 219.321 351.061 219.245C351.057 219.172 351.025 219.104 350.972 219.054C350.918 219.004 350.848 218.976 350.775 218.976Z" fill="#1A5C80"/>
<path d="M362.804 218.976H359.487L362.437 216.033C362.49 215.979 362.52 215.906 362.52 215.83C362.52 215.754 362.49 215.681 362.437 215.627C362.411 215.6 362.379 215.578 362.344 215.564C362.309 215.549 362.272 215.542 362.234 215.542C362.196 215.542 362.159 215.549 362.124 215.564C362.089 215.578 362.057 215.6 362.031 215.627L359.081 218.575V215.254C359.081 215.178 359.051 215.106 358.997 215.052C358.943 214.998 358.87 214.968 358.794 214.968C358.719 214.969 358.647 215 358.593 215.053C358.54 215.107 358.509 215.179 358.508 215.254V218.575L355.564 215.609C355.537 215.583 355.505 215.561 355.47 215.547C355.436 215.532 355.398 215.525 355.36 215.525C355.322 215.525 355.285 215.532 355.25 215.547C355.215 215.561 355.184 215.583 355.157 215.609C355.104 215.664 355.075 215.737 355.075 215.813C355.075 215.889 355.104 215.961 355.157 216.016L358.107 218.959H354.785C354.709 218.961 354.637 218.991 354.584 219.045C354.53 219.098 354.5 219.17 354.498 219.245C354.498 219.321 354.528 219.394 354.582 219.448C354.636 219.502 354.709 219.532 354.785 219.532H358.107L355.157 222.481C355.104 222.535 355.075 222.608 355.075 222.684C355.075 222.76 355.104 222.833 355.157 222.887C355.212 222.939 355.285 222.967 355.36 222.967C355.436 222.967 355.508 222.939 355.564 222.887L358.508 219.938V223.254C358.508 223.33 358.538 223.402 358.592 223.456C358.646 223.51 358.718 223.54 358.794 223.54C358.87 223.54 358.943 223.51 358.997 223.456C359.051 223.402 359.081 223.33 359.081 223.254V219.938L362.031 222.887C362.086 222.939 362.159 222.967 362.234 222.967C362.31 222.967 362.382 222.939 362.437 222.887C362.49 222.833 362.52 222.76 362.52 222.684C362.52 222.608 362.49 222.535 362.437 222.481L359.487 219.532H362.804C362.88 219.532 362.953 219.502 363.007 219.448C363.06 219.394 363.09 219.321 363.09 219.245C363.086 219.172 363.054 219.104 363.001 219.054C362.947 219.004 362.877 218.976 362.804 218.976Z" fill="#1A5C80"/>
<path d="M374.833 218.976H371.517L374.467 216.033C374.519 215.979 374.549 215.906 374.549 215.83C374.549 215.754 374.519 215.681 374.467 215.627C374.44 215.6 374.408 215.578 374.373 215.564C374.338 215.549 374.301 215.542 374.263 215.542C374.225 215.542 374.188 215.549 374.153 215.564C374.118 215.578 374.086 215.6 374.06 215.627L371.11 218.575V215.254C371.11 215.178 371.08 215.106 371.026 215.052C370.972 214.998 370.899 214.968 370.823 214.968C370.748 214.969 370.676 215 370.623 215.053C370.569 215.107 370.539 215.179 370.537 215.254V218.575L367.593 215.609C367.566 215.583 367.534 215.561 367.5 215.547C367.465 215.532 367.427 215.525 367.389 215.525C367.352 215.525 367.314 215.532 367.279 215.547C367.244 215.561 367.213 215.583 367.186 215.609C367.133 215.664 367.104 215.737 367.104 215.813C367.104 215.889 367.133 215.961 367.186 216.016L370.136 218.959H366.814C366.738 218.961 366.666 218.991 366.613 219.045C366.559 219.098 366.529 219.17 366.527 219.245C366.527 219.321 366.558 219.394 366.611 219.448C366.665 219.502 366.738 219.532 366.814 219.532H370.136L367.186 222.481C367.133 222.535 367.104 222.608 367.104 222.684C367.104 222.76 367.133 222.833 367.186 222.887C367.241 222.939 367.314 222.967 367.389 222.967C367.465 222.967 367.538 222.939 367.593 222.887L370.537 219.938V223.254C370.537 223.33 370.567 223.402 370.621 223.456C370.675 223.51 370.747 223.54 370.823 223.54C370.899 223.54 370.972 223.51 371.026 223.456C371.08 223.402 371.11 223.33 371.11 223.254V219.938L374.06 222.887C374.115 222.939 374.188 222.967 374.263 222.967C374.339 222.967 374.411 222.939 374.467 222.887C374.519 222.833 374.549 222.76 374.549 222.684C374.549 222.608 374.519 222.535 374.467 222.481L371.517 219.532H374.833C374.909 219.532 374.982 219.502 375.036 219.448C375.089 219.394 375.12 219.321 375.12 219.245C375.115 219.172 375.083 219.104 375.03 219.054C374.977 219.004 374.906 218.976 374.833 218.976Z" fill="#1A5C80"/>
<path d="M386.862 218.976H383.546L386.496 216.033C386.549 215.979 386.578 215.906 386.578 215.83C386.578 215.754 386.549 215.681 386.496 215.627C386.469 215.6 386.437 215.578 386.402 215.564C386.368 215.549 386.33 215.542 386.292 215.542C386.255 215.542 386.217 215.549 386.182 215.564C386.147 215.578 386.116 215.6 386.089 215.627L383.139 218.575V215.254C383.139 215.178 383.109 215.106 383.055 215.052C383.001 214.998 382.929 214.968 382.853 214.968C382.777 214.969 382.705 215 382.652 215.053C382.598 215.107 382.568 215.179 382.566 215.254V218.575L379.622 215.609C379.595 215.583 379.564 215.561 379.529 215.547C379.494 215.532 379.456 215.525 379.419 215.525C379.381 215.525 379.343 215.532 379.308 215.547C379.273 215.561 379.242 215.583 379.215 215.609C379.162 215.664 379.133 215.737 379.133 215.813C379.133 215.889 379.162 215.961 379.215 216.016L382.165 218.959H378.843C378.767 218.961 378.695 218.991 378.642 219.045C378.589 219.098 378.558 219.17 378.556 219.245C378.556 219.321 378.587 219.394 378.64 219.448C378.694 219.502 378.767 219.532 378.843 219.532H382.165L379.215 222.481C379.162 222.535 379.133 222.608 379.133 222.684C379.133 222.76 379.162 222.833 379.215 222.887C379.27 222.939 379.343 222.967 379.419 222.967C379.494 222.967 379.567 222.939 379.622 222.887L382.566 219.938V223.254C382.566 223.33 382.596 223.402 382.65 223.456C382.704 223.51 382.777 223.54 382.853 223.54C382.929 223.54 383.001 223.51 383.055 223.456C383.109 223.402 383.139 223.33 383.139 223.254V219.938L386.089 222.887C386.144 222.939 386.217 222.967 386.292 222.967C386.368 222.967 386.441 222.939 386.496 222.887C386.549 222.833 386.578 222.76 386.578 222.684C386.578 222.608 386.549 222.535 386.496 222.481L383.546 219.532H386.862C386.938 219.532 387.011 219.502 387.065 219.448C387.119 219.394 387.149 219.321 387.149 219.245C387.144 219.172 387.112 219.104 387.059 219.054C387.006 219.004 386.935 218.976 386.862 218.976Z" fill="#1A5C80"/>
<path d="M398.891 218.976H395.575L398.525 216.033C398.578 215.979 398.607 215.906 398.607 215.83C398.607 215.754 398.578 215.681 398.525 215.627C398.498 215.6 398.466 215.578 398.432 215.564C398.397 215.549 398.359 215.542 398.321 215.542C398.284 215.542 398.246 215.549 398.211 215.564C398.176 215.578 398.145 215.6 398.118 215.627L395.168 218.575V215.254C395.168 215.178 395.138 215.106 395.084 215.052C395.03 214.998 394.958 214.968 394.882 214.968C394.806 214.969 394.734 215 394.681 215.053C394.627 215.107 394.597 215.179 394.595 215.254V218.575L391.651 215.609C391.624 215.583 391.593 215.561 391.558 215.547C391.523 215.532 391.485 215.525 391.448 215.525C391.41 215.525 391.372 215.532 391.337 215.547C391.303 215.561 391.271 215.583 391.244 215.609C391.191 215.664 391.162 215.737 391.162 215.813C391.162 215.889 391.191 215.961 391.244 216.016L394.194 218.959H390.872C390.796 218.961 390.724 218.991 390.671 219.045C390.618 219.098 390.587 219.17 390.586 219.245C390.586 219.321 390.616 219.394 390.669 219.448C390.723 219.502 390.796 219.532 390.872 219.532H394.194L391.244 222.481C391.191 222.535 391.162 222.608 391.162 222.684C391.162 222.76 391.191 222.833 391.244 222.887C391.299 222.939 391.372 222.967 391.448 222.967C391.523 222.967 391.596 222.939 391.651 222.887L394.595 219.938V223.254C394.595 223.33 394.625 223.402 394.679 223.456C394.733 223.51 394.806 223.54 394.882 223.54C394.958 223.54 395.03 223.51 395.084 223.456C395.138 223.402 395.168 223.33 395.168 223.254V219.938L398.118 222.887C398.173 222.939 398.246 222.967 398.321 222.967C398.397 222.967 398.47 222.939 398.525 222.887C398.578 222.833 398.607 222.76 398.607 222.684C398.607 222.608 398.578 222.535 398.525 222.481L395.575 219.532H398.891C398.967 219.532 399.04 219.502 399.094 219.448C399.148 219.394 399.178 219.321 399.178 219.245C399.173 219.172 399.141 219.104 399.088 219.054C399.035 219.004 398.964 218.976 398.891 218.976Z" fill="#1A5C80"/>
<path d="M410.921 218.976H407.604L410.554 216.033C410.607 215.979 410.636 215.906 410.636 215.83C410.636 215.754 410.607 215.681 410.554 215.627C410.527 215.6 410.496 215.578 410.461 215.564C410.426 215.549 410.388 215.542 410.351 215.542C410.313 215.542 410.275 215.549 410.24 215.564C410.206 215.578 410.174 215.6 410.147 215.627L407.197 218.575V215.254C407.197 215.178 407.167 215.106 407.113 215.052C407.06 214.998 406.987 214.968 406.911 214.968C406.835 214.969 406.763 215 406.71 215.053C406.657 215.107 406.626 215.179 406.624 215.254V218.575L403.68 215.609C403.654 215.583 403.622 215.561 403.587 215.547C403.552 215.532 403.515 215.525 403.477 215.525C403.439 215.525 403.402 215.532 403.367 215.547C403.332 215.561 403.3 215.583 403.273 215.609C403.221 215.664 403.191 215.737 403.191 215.813C403.191 215.889 403.221 215.961 403.273 216.016L406.223 218.959H402.901C402.826 218.961 402.754 218.991 402.7 219.045C402.647 219.098 402.616 219.17 402.615 219.245C402.615 219.321 402.645 219.394 402.699 219.448C402.752 219.502 402.825 219.532 402.901 219.532H406.223L403.273 222.481C403.221 222.535 403.191 222.608 403.191 222.684C403.191 222.76 403.221 222.833 403.273 222.887C403.329 222.939 403.401 222.967 403.477 222.967C403.552 222.967 403.625 222.939 403.68 222.887L406.624 219.938V223.254C406.624 223.33 406.655 223.402 406.708 223.456C406.762 223.51 406.835 223.54 406.911 223.54C406.987 223.54 407.06 223.51 407.113 223.456C407.167 223.402 407.197 223.33 407.197 223.254V219.938L410.147 222.887C410.202 222.939 410.275 222.967 410.351 222.967C410.426 222.967 410.499 222.939 410.554 222.887C410.607 222.833 410.636 222.76 410.636 222.684C410.636 222.608 410.607 222.535 410.554 222.481L407.604 219.532H410.921C410.997 219.532 411.069 219.502 411.123 219.448C411.177 219.394 411.207 219.321 411.207 219.245C411.203 219.172 411.17 219.104 411.117 219.054C411.064 219.004 410.994 218.976 410.921 218.976Z" fill="#1A5C80"/>
<path d="M422.95 218.976H419.633L422.583 216.033C422.636 215.979 422.665 215.906 422.665 215.83C422.665 215.754 422.636 215.681 422.583 215.627C422.556 215.6 422.525 215.578 422.49 215.564C422.455 215.549 422.417 215.542 422.38 215.542C422.342 215.542 422.304 215.549 422.27 215.564C422.235 215.578 422.203 215.6 422.176 215.627L419.226 218.575V215.254C419.226 215.178 419.196 215.106 419.142 215.052C419.089 214.998 419.016 214.968 418.94 214.968C418.864 214.969 418.792 215 418.739 215.053C418.686 215.107 418.655 215.179 418.654 215.254V218.575L415.709 215.609C415.683 215.583 415.651 215.561 415.616 215.547C415.581 215.532 415.544 215.525 415.506 215.525C415.468 215.525 415.431 215.532 415.396 215.547C415.361 215.561 415.329 215.583 415.303 215.609C415.25 215.664 415.22 215.737 415.22 215.813C415.22 215.889 415.25 215.961 415.303 216.016L418.253 218.959H414.93C414.855 218.961 414.783 218.991 414.729 219.045C414.676 219.098 414.645 219.17 414.644 219.245C414.644 219.321 414.674 219.394 414.728 219.448C414.781 219.502 414.854 219.532 414.93 219.532H418.253L415.303 222.481C415.25 222.535 415.22 222.608 415.22 222.684C415.22 222.76 415.25 222.833 415.303 222.887C415.358 222.939 415.43 222.967 415.506 222.967C415.581 222.967 415.654 222.939 415.709 222.887L418.654 219.938V223.254C418.654 223.33 418.684 223.402 418.737 223.456C418.791 223.51 418.864 223.54 418.94 223.54C419.016 223.54 419.089 223.51 419.142 223.456C419.196 223.402 419.226 223.33 419.226 223.254V219.938L422.176 222.887C422.231 222.939 422.304 222.967 422.38 222.967C422.455 222.967 422.528 222.939 422.583 222.887C422.636 222.833 422.665 222.76 422.665 222.684C422.665 222.608 422.636 222.535 422.583 222.481L419.633 219.532H422.95C423.026 219.532 423.098 219.502 423.152 219.448C423.206 219.394 423.236 219.321 423.236 219.245C423.232 219.172 423.2 219.104 423.146 219.054C423.093 219.004 423.023 218.976 422.95 218.976Z" fill="#1A5C80"/>
<path d="M434.979 218.976H431.662L434.612 216.033C434.665 215.979 434.695 215.906 434.695 215.83C434.695 215.754 434.665 215.681 434.612 215.627C434.586 215.6 434.554 215.578 434.519 215.564C434.484 215.549 434.447 215.542 434.409 215.542C434.371 215.542 434.334 215.549 434.299 215.564C434.264 215.578 434.232 215.6 434.205 215.627L431.256 218.575V215.254C431.256 215.178 431.225 215.106 431.172 215.052C431.118 214.998 431.045 214.968 430.969 214.968C430.894 214.969 430.822 215 430.768 215.053C430.715 215.107 430.684 215.179 430.683 215.254V218.575L427.738 215.609C427.712 215.583 427.68 215.561 427.645 215.547C427.61 215.532 427.573 215.525 427.535 215.525C427.497 215.525 427.46 215.532 427.425 215.547C427.39 215.561 427.358 215.583 427.332 215.609C427.279 215.664 427.249 215.737 427.249 215.813C427.249 215.889 427.279 215.961 427.332 216.016L430.282 218.959H426.959C426.884 218.961 426.812 218.991 426.758 219.045C426.705 219.098 426.674 219.17 426.673 219.245C426.673 219.321 426.703 219.394 426.757 219.448C426.811 219.502 426.883 219.532 426.959 219.532H430.282L427.332 222.481C427.279 222.535 427.249 222.608 427.249 222.684C427.249 222.76 427.279 222.833 427.332 222.887C427.387 222.939 427.46 222.967 427.535 222.967C427.611 222.967 427.683 222.939 427.738 222.887L430.683 219.938V223.254C430.683 223.33 430.713 223.402 430.767 223.456C430.82 223.51 430.893 223.54 430.969 223.54C431.045 223.54 431.118 223.51 431.172 223.456C431.225 223.402 431.256 223.33 431.256 223.254V219.938L434.205 222.887C434.261 222.939 434.333 222.967 434.409 222.967C434.484 222.967 434.557 222.939 434.612 222.887C434.665 222.833 434.695 222.76 434.695 222.684C434.695 222.608 434.665 222.535 434.612 222.481L431.662 219.532H434.979C435.055 219.532 435.128 219.502 435.181 219.448C435.235 219.394 435.265 219.321 435.265 219.245C435.261 219.172 435.229 219.104 435.175 219.054C435.122 219.004 435.052 218.976 434.979 218.976Z" fill="#1A5C80"/>
<path d="M527.196 288.634C527.18 287.942 527.094 287.253 526.939 286.578C526.423 284.643 525.26 282.301 523.347 281.717C521.372 281.112 519.464 280.306 517.653 279.312C517.309 273.174 518.719 266.892 517.183 260.943C516.611 258.767 515.666 256.682 515.413 254.455C515.098 251.684 515.855 248.729 514.749 246.175C513.878 244.16 511.965 242.739 509.909 241.995C507.852 241.251 505.636 241.05 503.453 240.85C500.704 240.627 491.802 239.573 488.697 242.029C488.483 242.196 488.291 242.388 488.125 242.602C488.056 242.696 487.995 242.796 487.941 242.9L487.913 242.946C487.85 243.065 487.799 243.189 487.758 243.318C487.715 243.458 487.682 243.602 487.661 243.747C487.661 243.793 487.661 243.839 487.661 243.885C487.661 243.93 487.661 244.085 487.661 244.188V244.343C487.661 244.446 487.661 244.549 487.661 244.658C487.661 244.766 487.661 244.738 487.661 244.778C487.701 245.293 487.775 245.809 487.775 246.318C487.781 246.572 487.758 246.826 487.706 247.074C487.516 247.749 487.192 248.38 486.756 248.929L486.652 249.078C486.589 249.17 486.526 249.256 486.469 249.347C486.412 249.439 486.366 249.508 486.32 249.588C486.274 249.668 486.229 249.72 486.188 249.794C486.133 249.888 486.083 249.986 486.04 250.086C486.04 250.143 485.977 250.195 485.954 250.252C485.882 250.407 485.824 250.568 485.782 250.733C485.648 251.231 485.636 251.753 485.747 252.256C485.902 252.899 486.167 253.509 486.532 254.06C486.675 254.295 486.83 254.524 486.99 254.753L487.391 255.297C487.317 255.828 487.276 256.364 487.271 256.9C487.271 258.693 487.679 260.463 488.463 262.075C489.247 263.688 490.386 265.102 491.796 266.211C492.023 268.629 491.998 271.064 491.722 273.477C491.67 273.981 491.607 274.491 491.539 274.994C491.47 275.498 491.418 275.83 491.35 276.248C490.511 276.368 489.657 276.304 488.846 276.059C488.472 275.893 488.09 275.746 487.701 275.619C486.034 275.201 484.333 276.861 482.683 276.357C482.683 276.437 482.637 276.512 482.608 276.586C482.264 276.372 481.868 276.256 481.463 276.248C480.483 276.203 479.687 275.493 478.977 274.823L476.794 272.767C476.652 272.641 476.525 272.499 476.416 272.343C476.299 272.121 476.21 271.884 476.153 271.639C475.786 270.454 474.898 269.509 474.039 268.61C473.876 268.405 473.66 268.248 473.415 268.157C473.32 268.143 473.223 268.143 473.128 268.157C473.07 268.077 473.007 268.001 472.939 267.928C472.791 267.758 472.632 267.598 472.464 267.447C471.421 266.485 471.318 265.661 470.413 264.584C469.624 263.558 468.908 262.477 468.271 261.349C468.196 260.748 468.093 260.13 467.967 259.505C467.678 258.076 467.258 256.677 466.713 255.325L465.567 252.789L465.435 252.92C464.605 251.684 463.717 251.008 462.921 251.168C461.586 251.443 460.927 254.031 461.139 257.415L461.598 260.851C461.598 260.937 461.638 261.023 461.661 261.109C461.578 261.516 461.536 261.93 461.535 262.346C461.535 262.826 461.981 263.182 462.216 263.611C462.592 264.193 462.791 264.871 462.789 265.564C462.76 265.81 462.686 266.045 462.674 266.285C462.706 266.823 462.893 267.34 463.213 267.774L466.077 272.584L466.65 273.592L466.684 273.637C466.865 273.989 467.128 274.292 467.452 274.519C467.564 275.724 467.884 276.899 468.397 277.995C468.494 278.212 468.603 278.419 468.718 278.625C469.488 279.89 470.394 281.067 471.421 282.135L472.785 283.664C474.131 285.164 475.477 286.67 476.938 288.056C477.46 288.612 478.092 289.054 478.793 289.355C479.137 289.493 479.511 289.537 479.877 289.484C480.243 289.43 480.588 289.281 480.878 289.052C480.878 289.762 480.878 290.472 480.878 291.182C481.091 291.195 481.296 291.265 481.473 291.384C481.65 291.502 481.792 291.666 481.884 291.858C481.976 292.05 482.016 292.264 481.998 292.476C481.98 292.688 481.906 292.892 481.784 293.066C480.581 296.152 479.366 299.267 477.545 302.033C478.83 302.794 480.022 303.703 481.096 304.741C481.793 305.513 482.413 306.351 482.946 307.244C482.998 307.667 483.038 308.085 483.061 308.503C483.485 315.329 480.844 322.103 478.478 328.608C477.797 330.451 477.052 332.381 477.109 334.299C476.66 334.576 476.232 334.884 475.826 335.221C476.296 336.447 476.113 337.54 476.061 338.852C476.044 339.638 475.883 340.414 475.586 341.142C475.337 341.647 475.061 342.138 474.761 342.614C473.277 345.23 472.951 348.34 472.653 351.329C472.475 353.132 473.174 355.337 472.355 356.952C470.94 359.723 469.686 362.678 469.491 365.758C469.484 366.451 469.396 367.141 469.227 367.814C469.05 368.387 468.735 368.873 468.574 369.434C468.409 370.186 468.371 370.96 468.46 371.725C468.569 374.47 468.161 377.21 467.257 379.804C466.541 381.849 465.75 384.036 466.312 386.137C464.93 387.589 464.076 389.462 463.889 391.457C463.874 391.967 463.813 392.475 463.705 392.974C463.53 393.485 463.3 393.974 463.018 394.434C461.865 396.534 461.325 398.915 461.46 401.306C459.742 403.636 458.882 406.511 458.373 409.368C457.863 412.225 457.639 415.134 456.986 417.957C456.116 421.691 454.54 425.464 454.231 429.289C452.375 430.474 451.573 432.77 451.218 434.941C450.863 437.111 450.806 439.39 449.895 441.394C449.425 442.436 448.749 443.369 448.302 444.434C447.989 445.282 447.759 446.159 447.615 447.051C447.34 448.448 447.1 450.006 447.438 451.346C446.952 451.86 446.385 452.292 445.759 452.623C445.851 452.268 445.925 451.913 445.988 451.552C444.51 452.892 441.83 452.422 440.65 454.031C440.295 454.55 440.157 455.186 440.264 455.805C440.371 456.424 440.715 456.977 441.222 457.347C441.592 457.572 441.991 457.743 442.408 457.856C445.272 458.773 448.217 459.694 451.161 459.208C451.509 459.17 451.846 459.063 452.152 458.893C452.535 458.611 452.85 458.247 453.074 457.828C453.515 457.129 453.956 456.431 454.391 455.732C455.446 456.047 456.52 456.297 457.605 456.482C457.714 457.398 457.794 458.314 457.834 459.231C458.407 459.345 459.174 459.38 459.444 458.847C459.525 458.646 459.559 458.428 459.541 458.211C459.541 457.805 459.598 457.267 459.633 456.717H459.747C461.495 456.787 463.234 456.436 464.817 455.692C464.204 450.619 466.226 445.66 467.979 440.861C469.829 435.811 471.416 430.669 473.014 425.527C474.159 421.908 475.425 418.404 476.548 414.779C477.961 410.198 479.38 405.617 480.804 401.037C481.423 399.021 482.047 397.028 482.757 395.024C484.253 390.969 486.027 387.022 488.067 383.211C488.64 382.129 489.213 381.058 489.683 379.936C490.255 378.568 490.662 377.136 491.12 375.722C492.119 372.82 493.321 369.992 494.718 367.259C494.758 367.184 494.786 367.115 494.827 367.047C495.29 368.942 495.754 370.866 496.064 372.773C496.482 375.111 496.515 377.502 496.161 379.85C495.886 381.448 495.365 383.028 495.428 384.649C495.514 386.888 496.711 388.92 497.301 391.079C497.681 392.694 497.896 394.344 497.943 396.003C498.103 398.58 499.501 401.472 498.515 403.86C495.451 411.424 496.934 419.967 495.187 427.909C494.288 431.986 491.533 435.817 491.751 439.985C491.903 442.944 492.163 445.895 492.53 448.838C492.618 449.766 492.86 450.674 493.246 451.523C493.474 451.97 493.736 452.399 494.03 452.806C493.778 452.903 493.566 453.161 493.383 453.705C492.913 455.137 493.383 456.912 494.655 457.713C495.173 457.99 495.732 458.184 496.31 458.286C497.089 458.507 497.895 458.619 498.704 458.618C498.956 458.604 499.207 458.574 499.455 458.526C500.34 458.898 501.245 459.223 502.164 459.5C502.164 459.735 502.21 459.969 502.239 460.204C502.24 460.327 502.268 460.448 502.319 460.559C502.37 460.671 502.444 460.77 502.537 460.851C502.68 460.918 502.838 460.945 502.995 460.931H506.105C506.105 460.674 506.105 460.41 506.105 460.153C506.461 460.19 506.821 460.152 507.161 460.041C507.502 459.931 507.815 459.75 508.081 459.511C508.357 459.161 508.552 458.754 508.654 458.32C509.502 455.446 510.344 452.569 511.18 449.691C512.183 446.51 512.6 443.173 512.412 439.842C511.306 429.289 513.735 418.702 512.945 408.12C512.469 401.76 512.796 395.365 513.918 389.086C514.176 387.666 514.491 386.223 514.606 384.809C514.858 382.141 514.549 379.444 514.738 376.792C514.801 375.865 514.927 374.943 515.041 374.021C515.826 368.299 516.237 362.532 516.273 356.757C516.255 354.843 516.137 352.932 515.918 351.031C516.515 350.879 517.057 350.561 517.481 350.115C517.991 349.45 517.859 348.517 517.854 347.67C517.854 345.643 518.707 343.73 519.395 341.818C520.277 339.18 521 336.491 521.56 333.767C522.152 331.571 522.475 329.312 522.522 327.039C522.522 326.81 522.511 326.581 522.488 326.352C522.704 326.202 522.884 326.006 523.015 325.779C523.164 325.443 523.257 325.085 523.29 324.72C523.496 323.259 523.708 321.794 523.914 320.328C524.067 319.278 524.218 318.23 524.367 317.184L526.188 304.478C526.343 303.373 526.503 302.273 526.658 301.174L527.133 297.887C527.185 297.498 527.242 297.108 527.282 296.742C528.68 294.406 527.345 291.291 527.196 288.634ZM512 336.206C511.324 334.603 510.693 332.959 510.854 331.23H510.791C510.942 330.698 510.915 330.131 510.716 329.615C510.539 329.197 510.23 328.842 510.04 328.424C509.837 327.914 509.732 327.37 509.731 326.821C509.589 323.338 509.864 319.851 510.55 316.434C510.625 316.033 510.705 315.627 510.779 315.226C511.02 315.087 511.239 314.915 511.432 314.716C511.734 314.373 511.983 313.987 512.171 313.571C512.819 312.271 513.409 310.948 513.953 309.603C514.13 309.168 514.388 308.664 514.829 308.555C514.738 311.905 515.081 315.323 513.718 318.346C513.459 318.834 513.266 319.354 513.145 319.892C513.019 320.746 513.374 321.61 513.248 322.458C513.185 322.899 512.996 323.305 512.922 323.74C512.865 323.954 512.866 324.179 512.924 324.392C512.983 324.605 513.096 324.799 513.254 324.954C513.33 325.008 513.413 325.05 513.5 325.08C513.466 325.309 513.437 325.544 513.414 325.767C513.369 326.237 513.346 326.678 513.317 326.953C513.185 328.353 513.134 329.761 513.162 331.167C513.162 332.685 513.22 334.202 513.197 335.748C513.218 336.192 513.144 336.635 512.979 337.048C512.865 337.261 512.718 337.454 512.544 337.62C512.378 337.105 512.194 336.653 512 336.206Z" fill="url(#paint0_linear)"/>
<path d="M466.783 269.766C468.531 269.408 469.125 265.107 468.111 260.16C467.097 255.212 464.858 251.491 463.11 251.849C461.362 252.207 460.767 256.509 461.781 261.456C462.796 266.404 465.035 270.124 466.783 269.766Z" fill="#FBBEBE"/>
<path d="M493.475 453.814C493.005 455.234 493.475 457.009 494.746 457.782C495.261 458.056 495.816 458.25 496.39 458.355C497.167 458.574 497.971 458.684 498.779 458.681C499.77 458.635 500.721 458.246 501.712 458.108C501.826 458.08 501.947 458.096 502.05 458.154C502.099 458.207 502.136 458.271 502.158 458.34C502.18 458.41 502.186 458.483 502.176 458.555C502.186 459.118 502.228 459.68 502.302 460.238C502.303 460.361 502.33 460.482 502.381 460.594C502.432 460.706 502.507 460.805 502.6 460.886C502.743 460.952 502.901 460.98 503.058 460.966H506.163C506.233 458.239 505.934 455.516 505.275 452.869C505.232 452.666 505.154 452.473 505.046 452.296C504.782 452.008 504.436 451.808 504.055 451.724C503.295 451.408 502.476 451.265 501.654 451.306C500.652 451.437 499.816 452.084 498.962 452.623C498.109 453.161 496.946 453.636 495.909 453.361C494.872 453.087 494.007 452.222 493.475 453.814Z" fill="#3F3D56"/>
<path d="M447.89 451.3C447.017 452.234 445.947 452.962 444.757 453.43L444.23 453.682C444.157 453.71 444.095 453.76 444.052 453.825C444.042 453.87 444.042 453.916 444.052 453.961C444.062 454.005 444.081 454.047 444.109 454.083C444.548 454.761 445.196 455.277 445.955 455.553C446.714 455.829 447.542 455.85 448.314 455.612C448.655 455.526 448.971 455.362 449.236 455.131C449.673 454.613 449.923 453.964 449.946 453.287C450.12 452.589 450.09 451.856 449.86 451.174C449.064 449.382 448.772 450.195 447.89 451.3Z" fill="#FBBEBE"/>
<path d="M459.793 458.354C459.811 458.571 459.777 458.789 459.696 458.99C459.427 459.517 458.676 459.488 458.092 459.374C458.003 457.431 457.768 455.498 457.387 453.59C456.276 453.539 455.474 454.592 454.878 455.537L453.343 457.971C453.121 458.39 452.808 458.754 452.427 459.036C452.12 459.204 451.783 459.311 451.436 459.351C448.503 459.838 445.542 458.916 442.712 457.999C442.295 457.888 441.896 457.718 441.526 457.496C441.021 457.125 440.679 456.573 440.573 455.956C440.466 455.339 440.602 454.705 440.953 454.186C442.139 452.583 444.803 453.041 446.28 451.712C446.126 452.647 445.873 453.563 445.524 454.444C447.501 454.146 448.829 452.336 450.422 451.128C450.822 450.789 451.304 450.56 451.82 450.464C452.206 450.432 452.594 450.472 452.965 450.584C454.801 451.046 456.519 451.891 458.006 453.064C458.607 453.539 459.547 454.209 459.81 454.942C460.091 455.818 459.793 457.421 459.793 458.354Z" fill="#3F3D56"/>
<path d="M499.197 269.429C505.733 269.429 511.031 264.132 511.031 257.599C511.031 251.065 505.733 245.769 499.197 245.769C492.661 245.769 487.363 251.065 487.363 257.599C487.363 264.132 492.661 269.429 499.197 269.429Z" fill="#FBBEBE"/>
<path d="M522.511 327.445C522.463 329.707 522.142 331.954 521.554 334.139C520.994 336.852 520.271 339.529 519.389 342.155C518.707 344.062 517.854 345.975 517.859 347.996C517.859 348.838 517.997 349.771 517.481 350.435C517.022 350.902 516.444 351.232 515.809 351.392C515.492 351.476 515.199 351.633 514.955 351.851C514.71 352.069 514.52 352.341 514.4 352.646C513.862 351.842 513.459 350.956 513.208 350.023C512.181 346.878 511.226 343.715 510.344 340.535C510.263 340.352 510.229 340.152 510.243 339.952C510.256 339.753 510.319 339.56 510.424 339.39C510.57 339.263 510.739 339.168 510.923 339.109C511.51 338.87 512.048 338.524 512.509 338.09C512.726 337.898 512.905 337.667 513.036 337.409C513.203 336.998 513.279 336.557 513.26 336.114C513.26 334.597 513.26 333.085 513.22 331.568C513.196 330.167 513.249 328.766 513.38 327.371C513.38 327.096 513.432 326.655 513.477 326.185C513.563 325.286 513.735 324.244 514.222 323.895C514.95 323.408 517.126 324.061 517.951 324.176C519.372 324.37 520.815 324.599 522.201 324.868C522.403 325.713 522.507 326.577 522.511 327.445Z" fill="#3F3D56"/>
<path d="M474.726 270.843C474.268 271.759 473.168 272.2 472.321 272.778L469.416 274.771C469.222 274.946 468.995 275.08 468.748 275.164C468.501 275.249 468.239 275.283 467.979 275.264C467.742 275.176 467.526 275.043 467.342 274.871C467.158 274.699 467.01 274.491 466.908 274.261C466.909 274.246 466.909 274.231 466.908 274.216L466.306 273.208L463.442 268.409C463.124 267.98 462.938 267.466 462.909 266.932C462.909 266.686 462.995 266.457 463.018 266.211C463.026 265.519 462.826 264.841 462.445 264.264C462.216 263.834 461.758 263.479 461.769 262.998C461.747 262.366 461.857 261.737 462.09 261.149C462.391 260.605 462.822 260.145 463.345 259.809C463.614 259.614 463.889 259.431 464.175 259.236C464.327 259.132 464.496 259.055 464.674 259.007C465.149 258.91 465.619 259.305 466.1 259.322C468.168 260.708 468.964 263.33 470.591 265.22C471.507 266.297 471.599 267.121 472.636 268.083C472.802 268.232 472.962 268.392 473.117 268.558C473.322 268.782 473.495 269.032 473.632 269.303C473.821 269.795 474.961 270.373 474.726 270.843Z" fill="#3F3D56"/>
<path d="M495.038 269.434C495.892 271.238 496.556 273.219 496.31 275.201C496.26 275.737 496.089 276.256 495.812 276.718C494.987 277.983 493.257 278.212 491.75 278.287C491.433 278.26 491.114 278.297 490.811 278.395C490.508 278.494 490.227 278.652 489.986 278.859C489.785 279.152 489.686 279.503 489.706 279.857C489.726 280.212 489.863 280.549 490.095 280.818C490.579 281.334 491.18 281.727 491.848 281.963C494.231 283.011 496.803 283.876 499.392 283.635C500.595 283.52 501.763 283.171 502.96 282.994C504.266 282.852 505.577 282.78 506.89 282.776C508.448 282.719 510 282.564 511.553 282.41L515.665 282.003C515.89 282.006 516.108 281.927 516.278 281.78C516.582 281.425 516.192 280.904 515.814 280.635C513.632 279.02 510.854 277.909 509.611 275.481C509.038 274.336 508.86 272.973 508.437 271.736C508.013 270.499 507.337 269.383 507.073 268.123C506.933 267.018 506.87 265.904 506.884 264.791C506.899 263.667 506.49 262.58 505.739 261.744C504.919 260.983 503.734 260.788 502.622 260.742C499.884 260.622 496.969 261.275 495.027 263.204C494.506 263.725 494.059 264.35 493.52 264.819C492.982 265.289 492.249 265.426 492.604 266.045C492.959 266.663 493.658 267.047 494.036 267.591C494.419 268.178 494.754 268.794 495.038 269.434Z" fill="#FBBEBE"/>
<path d="M518.369 286.092C517.647 290.501 516.472 294.824 514.864 298.992C514.055 300.875 513.366 302.806 512.801 304.776C512.36 306.551 512.446 308.452 512.04 310.233C511.536 312.449 511.031 314.67 510.625 316.904C509.942 320.314 509.669 323.793 509.811 327.268C509.813 327.815 509.918 328.357 510.121 328.865C510.31 329.278 510.613 329.633 510.791 330.056C510.924 330.428 510.978 330.824 510.95 331.218C510.923 331.612 510.814 331.997 510.63 332.347C510.337 333.002 509.938 333.606 509.451 334.133C504.112 335.725 498.401 335.204 492.839 335.542C487.712 335.851 482.528 336.905 477.476 336.029C476.903 333.738 477.86 331.339 478.679 329.106C481.056 322.618 483.685 315.861 483.261 309.065C483.217 308.272 483.127 307.482 482.992 306.7C482.162 301.884 483.067 296.897 484.516 292.23C485.415 289.321 485.375 286.223 485.169 283.194C485.067 282.211 485.053 281.22 485.129 280.234C485.212 279.227 485.586 278.266 486.206 277.468C486.206 277.428 486.257 277.388 486.286 277.348C486.315 277.308 486.538 277.313 486.715 277.348C486.761 277.367 486.809 277.377 486.859 277.377C486.908 277.377 486.957 277.367 487.002 277.348L487.065 277.308C487.089 277.29 487.118 277.281 487.148 277.281C487.178 277.281 487.207 277.29 487.231 277.308C487.363 277.388 487.437 277.663 487.724 277.714C488.147 277.778 488.573 277.818 489.001 277.835C489.515 277.85 490.027 277.923 490.525 278.052H490.593C491.338 278.178 492.103 278.113 492.816 277.863C493.29 277.745 493.748 277.568 494.179 277.336C494.305 277.199 495.096 277.073 495.256 276.976C495.777 276.661 495.663 275.183 495.772 274.576C495.832 273.968 495.976 273.37 496.201 272.801C496.462 272.381 496.822 272.032 497.25 271.783C497.677 271.535 498.159 271.395 498.653 271.376C499.639 271.352 500.625 271.44 501.591 271.639C503.728 271.942 505.916 271.891 508.013 272.383C509.067 272.63 510.218 273.002 511.186 272.521C511.45 272.584 511.49 272.813 511.49 273.093C511.465 273.36 511.411 273.623 511.329 273.878C510.963 275.458 512.206 276.913 513.351 278.058C513.835 278.598 514.407 279.053 515.041 279.403C515.614 279.667 516.187 279.776 516.76 280.062C517.224 280.309 517.618 280.67 517.905 281.11C518.235 281.614 518.458 282.182 518.558 282.776C518.681 283.884 518.617 285.005 518.369 286.092Z" fill="#3F3D56"/>
<path opacity="0.1" d="M518.369 286.091C517.647 290.501 516.472 294.824 514.864 298.992C514.055 300.875 513.366 302.806 512.801 304.776C512.36 306.551 512.446 308.452 512.04 310.233C511.535 312.449 511.031 314.67 510.625 316.903C510.504 316.972 510.378 317.035 510.252 317.092C509.54 317.433 508.784 317.675 508.007 317.814C506.61 317.983 505.196 317.936 503.814 317.677L495.64 316.583C492.375 316.142 488.898 315.609 486.475 313.399C485.129 312.185 484.246 310.582 483.278 309.036C483.234 308.243 483.144 307.454 483.009 306.671C482.179 301.855 483.084 296.868 484.533 292.201C485.432 289.292 485.392 286.195 485.186 283.165C485.084 282.182 485.07 281.191 485.146 280.205C485.229 279.198 485.603 278.237 486.223 277.439C486.39 277.39 486.56 277.352 486.733 277.325C486.848 277.302 486.965 277.286 487.082 277.279H487.248C487.441 277.28 487.633 277.303 487.821 277.348C488.211 277.472 488.594 277.619 488.967 277.789H489.035C489.526 277.95 490.042 278.024 490.559 278.006C491.315 278.006 492.094 277.886 492.85 277.834C493.784 277.689 494.74 277.86 495.565 278.321C496.098 278.749 496.603 279.21 497.078 279.701C497.651 280.151 498.296 280.502 498.985 280.738C503.916 282.619 509.386 282.504 514.233 280.417C514.699 280.152 515.227 280.018 515.763 280.028C516.158 280.105 516.533 280.265 516.863 280.497C517.206 280.698 517.544 280.892 517.894 281.07C518.224 281.574 518.446 282.142 518.547 282.736C518.678 283.856 518.618 284.991 518.369 286.091Z" fill="black"/>
<path d="M523.358 282.301C521.077 281.604 518.886 280.643 516.828 279.438C516.498 279.207 516.123 279.047 515.728 278.968C515.192 278.962 514.662 279.096 514.193 279.358C509.348 281.444 503.88 281.559 498.951 279.678C498.262 279.44 497.618 279.09 497.043 278.642C496.567 278.152 496.062 277.691 495.531 277.262C493.646 276.042 491.04 277.474 488.932 276.689C488.558 276.522 488.176 276.375 487.787 276.248C486.12 275.83 484.424 277.491 482.786 276.987C482.176 278.643 481.726 280.353 481.44 282.095C481.207 284.094 481.083 286.105 481.067 288.119C481.067 289.327 481.01 290.535 481.067 291.743C481.269 291.776 481.462 291.851 481.634 291.962C481.805 292.073 481.952 292.219 482.064 292.39C482.139 292.59 482.17 292.803 482.154 293.016C482.138 293.228 482.076 293.435 481.972 293.621C480.775 296.696 479.561 299.805 477.745 302.56C479.025 303.322 480.213 304.229 481.285 305.262C483.29 307.381 484.275 310.353 486.44 312.311C488.881 314.516 492.358 315.054 495.605 315.489L503.78 316.583C505.164 316.842 506.579 316.89 507.978 316.726C508.754 316.585 509.507 316.34 510.218 315.999C510.682 315.805 511.106 315.525 511.467 315.174C511.769 314.831 512.018 314.445 512.206 314.029C512.853 312.735 513.443 311.412 513.987 310.072C514.176 309.597 514.463 309.042 514.978 309.001C518.014 306.264 520.878 303.459 523.914 300.722C525.134 299.711 526.228 298.557 527.173 297.286C528.68 295.059 527.311 291.903 527.173 289.212C527.157 288.524 527.07 287.839 526.916 287.168C526.423 285.215 525.266 282.879 523.358 282.301Z" fill="#1A5C80"/>
<path opacity="0.1" d="M474.726 270.843C474.268 271.759 473.168 272.2 472.321 272.778L469.416 274.771C469.222 274.946 468.995 275.08 468.748 275.164C468.501 275.249 468.239 275.283 467.979 275.264C467.742 275.176 467.526 275.043 467.342 274.871C467.158 274.699 467.01 274.491 466.907 274.261C466.907 274.13 466.907 273.987 466.907 273.849C466.885 273.386 466.947 272.922 467.091 272.481C467.375 271.833 467.816 271.266 468.374 270.832C469.452 269.811 470.735 269.03 472.137 268.541C472.356 268.456 472.593 268.432 472.825 268.472C472.914 268.496 472.999 268.532 473.077 268.581C473.282 268.805 473.455 269.055 473.592 269.326C473.821 269.795 474.961 270.373 474.726 270.843Z" fill="black"/>
<path d="M481.566 276.878C480.592 276.832 479.796 276.128 479.086 275.458L476.915 273.443C476.769 273.32 476.642 273.177 476.537 273.019C476.419 272.796 476.331 272.56 476.273 272.315C475.813 271.158 475.091 270.123 474.165 269.291C474.004 269.086 473.787 268.931 473.541 268.845C473.308 268.802 473.068 268.825 472.848 268.913C471.445 269.402 470.162 270.182 469.084 271.204C468.527 271.639 468.086 272.206 467.801 272.853C467.657 273.294 467.595 273.758 467.618 274.221C467.631 275.734 467.971 277.227 468.614 278.596C468.712 278.808 468.821 279.02 468.935 279.226C469.7 280.489 470.603 281.662 471.627 282.725L472.991 284.248C474.331 285.748 475.672 287.248 477.127 288.628C477.648 289.184 478.28 289.625 478.982 289.922C479.335 290.066 479.72 290.11 480.096 290.05C480.472 289.989 480.824 289.826 481.113 289.579C481.388 289.261 481.594 288.891 481.721 288.491C482.603 286.2 483.439 283.818 483.49 281.35C483.503 280.362 483.461 279.374 483.364 278.39C483.279 277.348 482.54 276.941 481.566 276.878Z" fill="#1A5C80"/>
<path d="M516.278 357.043C516.245 362.803 515.836 368.555 515.053 374.261C514.938 375.183 514.812 376.105 514.749 377.027C514.56 379.701 514.869 382.387 514.617 385.044C514.485 386.481 514.188 387.907 513.936 389.31C512.816 395.571 512.489 401.948 512.962 408.292C513.752 418.845 511.329 429.404 512.429 439.928C512.562 441.975 512.449 444.03 512.091 446.049C511.886 447.302 511.589 448.539 511.203 449.748C510.367 452.615 509.527 455.478 508.683 458.337C508.584 458.772 508.388 459.179 508.11 459.528C507.818 459.781 507.475 459.968 507.105 460.078C506.734 460.188 506.345 460.217 505.962 460.164C502.657 460.061 499.546 458.635 496.545 457.244C496.2 457.108 495.88 456.914 495.6 456.671C494.975 456.024 495.027 455.005 494.752 454.152C494.477 453.298 493.732 452.497 493.308 451.621C492.96 450.792 492.749 449.912 492.684 449.015C492.302 446.084 492.043 443.14 491.905 440.186C491.687 436.029 494.437 432.204 495.342 428.161C497.06 420.213 495.605 411.693 498.659 404.152C499.621 401.77 498.223 398.884 498.086 396.318C498.036 394.663 497.821 393.018 497.444 391.405C496.871 389.252 495.663 387.225 495.577 384.992C495.514 383.377 496.035 381.803 496.304 380.211C496.661 377.868 496.629 375.483 496.207 373.151C495.903 371.227 495.439 369.303 494.975 367.425L494.872 367.636C493.477 370.363 492.276 373.186 491.281 376.082C490.822 377.485 490.421 378.917 489.849 380.28C489.379 381.425 488.8 382.473 488.233 383.549C486.199 387.345 484.429 391.277 482.935 395.316C482.224 397.297 481.6 399.325 480.981 401.311L476.737 415.054C475.591 418.667 474.337 422.16 473.214 425.768C471.627 430.921 470.041 436.029 468.196 441.068C466.478 445.849 464.433 450.802 465.046 455.852C463.466 456.594 461.732 456.946 459.988 456.877C457.036 456.616 454.139 455.914 451.396 454.793C450.301 454.386 449.167 453.928 448.428 453.029C447.157 451.478 447.472 449.204 447.856 447.229C448 446.338 448.23 445.464 448.543 444.618C448.978 443.564 449.689 442.631 450.135 441.589C451.035 439.59 451.092 437.328 451.447 435.158C451.802 432.988 452.593 430.698 454.449 429.518C454.764 425.705 456.333 421.943 457.198 418.215C457.851 415.392 458.069 412.489 458.584 409.626C459.1 406.763 459.931 403.9 461.66 401.581C461.524 399.189 462.064 396.808 463.218 394.709C463.497 394.248 463.726 393.759 463.9 393.249C464.007 392.752 464.068 392.246 464.083 391.737C464.273 389.748 465.124 387.879 466.501 386.429C465.928 384.339 466.724 382.158 467.44 380.131C468.342 377.544 468.75 374.811 468.643 372.074C468.554 371.31 468.591 370.536 468.752 369.784C468.912 369.211 469.227 368.724 469.411 368.175C469.574 367.501 469.66 366.812 469.668 366.119C469.892 363.021 471.146 360.101 472.532 357.335C473.357 355.72 472.658 353.527 472.83 351.729C473.128 348.74 473.455 345.648 474.938 343.043C475.213 342.55 475.511 342.081 475.757 341.571C476.056 340.844 476.217 340.067 476.233 339.281C476.284 337.97 476.468 336.882 475.998 335.662C479.063 333.114 483.244 332.398 487.231 332.226C491.218 332.055 495.25 332.415 499.151 331.568C500.297 331.31 501.442 330.955 502.651 330.783C505.395 330.383 508.179 331.007 510.888 331.625C510.699 333.343 511.329 334.992 512.034 336.59C514.785 343.061 516.227 350.012 516.278 357.043Z" fill="#33313F"/>
<path opacity="0.1" d="M502.789 358.354L496.207 373.151C495.903 371.227 495.439 369.303 494.975 367.425L494.872 367.636V367.327L498.458 359.442L502.789 358.354Z" fill="black"/>
<path opacity="0.1" d="M522.511 327.445C522.131 327.729 521.678 327.898 521.205 327.932C520.479 327.958 519.754 327.859 519.062 327.64L513.907 326.352C513.745 326.312 513.588 326.256 513.437 326.185C513.523 325.286 513.695 324.244 514.182 323.895C514.909 323.408 517.086 324.061 517.911 324.176C519.332 324.37 520.775 324.599 522.161 324.868C522.376 325.711 522.493 326.576 522.511 327.445Z" fill="black"/>
<path d="M526.87 293.375C526.979 293.85 527.133 294.32 527.225 294.801C527.379 295.981 527.338 297.178 527.105 298.345L526.635 301.621L526.165 304.913L524.349 317.585L523.903 320.723L523.273 325.103C523.243 325.468 523.15 325.824 522.998 326.157C522.81 326.468 522.548 326.728 522.235 326.913C521.922 327.098 521.568 327.202 521.205 327.216C520.479 327.239 519.755 327.14 519.062 326.924L513.907 325.63C513.681 325.59 513.466 325.502 513.277 325.372C513.119 325.218 513.006 325.025 512.947 324.813C512.889 324.601 512.888 324.377 512.945 324.164C513.019 323.729 513.208 323.322 513.271 322.887C513.397 322.04 513.042 321.169 513.168 320.328C513.292 319.792 513.484 319.274 513.741 318.787C515.459 314.991 514.463 310.559 515.047 306.436C515.573 303.191 516.944 300.142 519.022 297.595C520.305 295.987 521.778 294.541 523.41 293.289C524.052 292.791 525.071 291.766 525.879 291.571C526.916 291.354 526.698 292.654 526.87 293.375Z" fill="#1A5C80"/>
<path d="M487.855 244.051C487.477 245.253 488.067 246.576 487.798 247.801C487.506 249.153 486.234 250.092 485.873 251.449C485.301 253.516 487.053 255.4 488.336 257.118C493.091 263.496 492.466 272.326 490.84 280.108C489.531 286.351 487.721 292.479 485.427 298.431C484.711 300.281 483.92 302.159 482.511 303.545C485.146 302.789 487.947 302.027 490.588 302.76C493.933 303.688 496.82 306.934 500.211 306.196C502.25 305.743 503.682 303.934 505.515 302.932C508.952 301.082 513.094 302.245 516.926 302.84C517.751 303.035 518.616 302.991 519.417 302.714C520.03 302.385 520.551 301.906 520.93 301.323C522.64 299.129 523.664 296.48 523.874 293.707C523.965 292.326 523.761 290.942 523.276 289.646C522.791 288.35 522.036 287.171 521.061 286.189C520.248 285.422 519.274 284.803 518.65 283.898C518.043 282.842 517.717 281.647 517.705 280.428C517.252 274.13 518.787 267.699 517.206 261.607C516.634 259.437 515.7 257.358 515.448 255.136C515.133 252.371 515.883 249.41 514.783 246.879C513.918 244.87 512.011 243.444 509.955 242.711C507.898 241.978 505.699 241.772 503.516 241.566C500.377 241.302 489.167 239.957 487.855 244.051Z" fill="#33313F"/>
<g opacity="0.1">
<path opacity="0.1" d="M490.84 280.108C489.537 286.325 487.737 292.428 485.455 298.357C485.851 297.572 486.183 296.748 486.498 295.929C488.794 289.977 490.605 283.849 491.911 277.605C493.543 269.818 494.168 261 489.413 254.615C488.268 253.092 486.796 251.443 486.847 249.656C486.424 250.197 486.095 250.805 485.873 251.454C485.301 253.522 487.053 255.405 488.337 257.123C493.091 263.496 492.467 272.326 490.84 280.108Z" fill="black"/>
<path opacity="0.1" d="M487.867 247.223C488.327 246.652 488.669 245.997 488.875 245.293C488.964 244.443 488.94 243.584 488.806 242.739C488.365 243.071 488.034 243.528 487.855 244.051C487.517 245.064 487.907 246.164 487.867 247.223Z" fill="black"/>
<path opacity="0.1" d="M522.007 298.803C521.627 299.385 521.107 299.862 520.494 300.189C519.694 300.472 518.828 300.516 518.003 300.315C514.17 299.742 509.983 298.563 506.592 300.412C504.753 301.409 503.327 303.218 501.282 303.676C497.897 304.432 495.01 301.185 491.665 300.241C489.293 299.582 486.796 300.126 484.407 300.813C483.932 301.825 483.291 302.75 482.511 303.55C485.146 302.794 487.947 302.033 490.588 302.766C493.933 303.693 496.82 306.94 500.211 306.201C502.25 305.749 503.682 303.94 505.515 302.938C508.952 301.088 513.094 302.25 516.926 302.846C517.752 303.041 518.616 302.997 519.418 302.72C520.031 302.391 520.551 301.912 520.93 301.329C521.968 299.96 522.769 298.427 523.301 296.794C522.918 297.494 522.486 298.165 522.007 298.803Z" fill="black"/>
</g>
</g>
<defs>
<linearGradient id="paint0_linear" x1="440.266" y1="350.676" x2="527.907" y2="350.676" gradientUnits="userSpaceOnUse">
<stop stop-color="#808080" stop-opacity="0.25"/>
<stop offset="0.54" stop-color="#808080" stop-opacity="0.12"/>
<stop offset="1" stop-color="#808080" stop-opacity="0.1"/>
</linearGradient>
<clipPath id="clip0">
<rect width="668" height="461" fill="white"/>
</clipPath>
</defs>
</svg>
