<svg width="459" height="367" viewBox="0 0 459 367" fill="none" xmlns="http://www.w3.org/2000/svg">
<g opacity="0.5" clip-path="url(#clip0)">
<path opacity="0.1" d="M131.858 62.942H97.4268C95.4408 62.942 93.8308 64.5526 93.8308 66.5394V71.933C93.8308 73.9198 95.4408 75.5304 97.4268 75.5304H131.858C133.844 75.5304 135.454 73.9198 135.454 71.933V66.5394C135.454 64.5526 133.844 62.942 131.858 62.942Z" fill="#1A5C80"/>
<path opacity="0.1" d="M175.417 75.5303H140.986C139 75.5303 137.39 77.1409 137.39 79.1276V84.5213C137.39 86.5081 139 88.1187 140.986 88.1187H175.417C177.403 88.1187 179.013 86.5081 179.013 84.5213V79.1276C179.013 77.1409 177.403 75.5303 175.417 75.5303Z" fill="#1A5C80"/>
<path opacity="0.1" d="M218.976 88.1188H184.545C182.559 88.1188 180.949 89.7294 180.949 91.7161V97.1098C180.949 99.0966 182.559 100.707 184.545 100.707H218.976C220.962 100.707 222.572 99.0966 222.572 97.1098V91.7161C222.572 89.7294 220.962 88.1188 218.976 88.1188Z" fill="#1A5C80"/>
<path opacity="0.1" d="M131.858 44.0593H97.4268C95.4408 44.0593 93.8308 45.6699 93.8308 47.6567V53.0503C93.8308 55.0371 95.4408 56.6477 97.4268 56.6477H131.858C133.844 56.6477 135.454 55.0371 135.454 53.0503V47.6567C135.454 45.6699 133.844 44.0593 131.858 44.0593Z" fill="#1A5C80"/>
<path opacity="0.1" d="M175.417 56.6477H140.986C139 56.6477 137.39 58.2583 137.39 60.2451V65.6387C137.39 67.6255 139 69.2361 140.986 69.2361H175.417C177.403 69.2361 179.013 67.6255 179.013 65.6387V60.2451C179.013 58.2583 177.403 56.6477 175.417 56.6477Z" fill="#1A5C80"/>
<path opacity="0.1" d="M218.976 69.2361H184.545C182.559 69.2361 180.949 70.8467 180.949 72.8335V78.2271C180.949 80.2139 182.559 81.8245 184.545 81.8245H218.976C220.962 81.8245 222.572 80.2139 222.572 78.2271V72.8335C222.572 70.8467 220.962 69.2361 218.976 69.2361Z" fill="#1A5C80"/>
<path opacity="0.1" d="M267.374 62.942H232.944C230.958 62.942 229.348 64.5526 229.348 66.5394V71.933C229.348 73.9198 230.958 75.5304 232.944 75.5304H267.374C269.361 75.5304 270.971 73.9198 270.971 71.933V66.5394C270.971 64.5526 269.361 62.942 267.374 62.942Z" fill="#1A5C80"/>
<path opacity="0.1" d="M310.933 75.5303H276.503C274.516 75.5303 272.906 77.1409 272.906 79.1276V84.5213C272.906 86.5081 274.516 88.1187 276.503 88.1187H310.933C312.92 88.1187 314.53 86.5081 314.53 84.5213V79.1276C314.53 77.1409 312.92 75.5303 310.933 75.5303Z" fill="#1A5C80"/>
<path opacity="0.1" d="M354.492 88.1188H320.061C318.075 88.1188 316.465 89.7294 316.465 91.7161V97.1098C316.465 99.0966 318.075 100.707 320.061 100.707H354.492C356.478 100.707 358.088 99.0966 358.088 97.1098V91.7161C358.088 89.7294 356.478 88.1188 354.492 88.1188Z" fill="#1A5C80"/>
<path opacity="0.1" d="M267.374 44.0593H232.944C230.958 44.0593 229.348 45.6699 229.348 47.6567V53.0503C229.348 55.0371 230.958 56.6477 232.944 56.6477H267.374C269.361 56.6477 270.971 55.0371 270.971 53.0503V47.6567C270.971 45.6699 269.361 44.0593 267.374 44.0593Z" fill="#1A5C80"/>
<path opacity="0.1" d="M310.933 56.6477H276.503C274.516 56.6477 272.906 58.2583 272.906 60.2451V65.6387C272.906 67.6255 274.516 69.2361 276.503 69.2361H310.933C312.92 69.2361 314.53 67.6255 314.53 65.6387V60.2451C314.53 58.2583 312.92 56.6477 310.933 56.6477Z" fill="#1A5C80"/>
<path opacity="0.1" d="M354.492 69.2361H320.061C318.075 69.2361 316.465 70.8467 316.465 72.8335V78.2271C316.465 80.2139 318.075 81.8245 320.061 81.8245H354.492C356.478 81.8245 358.088 80.2139 358.088 78.2271V72.8335C358.088 70.8467 356.478 69.2361 354.492 69.2361Z" fill="#1A5C80"/>
<path opacity="0.1" d="M131.858 18.8826H97.4268C95.4408 18.8826 93.8308 20.4932 93.8308 22.4799V27.8736C93.8308 29.8604 95.4408 31.471 97.4268 31.471H131.858C133.844 31.471 135.454 29.8604 135.454 27.8736V22.4799C135.454 20.4932 133.844 18.8826 131.858 18.8826Z" fill="#1A5C80"/>
<path opacity="0.1" d="M175.417 31.4709H140.986C139 31.4709 137.39 33.0815 137.39 35.0683V40.462C137.39 42.4487 139 44.0593 140.986 44.0593H175.417C177.403 44.0593 179.013 42.4487 179.013 40.462V35.0683C179.013 33.0815 177.403 31.4709 175.417 31.4709Z" fill="#1A5C80"/>
<path opacity="0.1" d="M218.976 44.0593H184.545C182.559 44.0593 180.949 45.6699 180.949 47.6567V53.0503C180.949 55.0371 182.559 56.6477 184.545 56.6477H218.976C220.962 56.6477 222.572 55.0371 222.572 53.0503V47.6567C222.572 45.6699 220.962 44.0593 218.976 44.0593Z" fill="#1A5C80"/>
<path opacity="0.1" d="M131.858 0H97.4268C95.4408 0 93.8308 1.6106 93.8308 3.59737V8.99102C93.8308 10.9778 95.4408 12.5884 97.4268 12.5884H131.858C133.844 12.5884 135.454 10.9778 135.454 8.99102V3.59737C135.454 1.6106 133.844 0 131.858 0Z" fill="#1A5C80"/>
<path opacity="0.1" d="M175.417 12.5884H140.986C139 12.5884 137.39 14.199 137.39 16.1858V21.5794C137.39 23.5662 139 25.1768 140.986 25.1768H175.417C177.403 25.1768 179.013 23.5662 179.013 21.5794V16.1858C179.013 14.199 177.403 12.5884 175.417 12.5884Z" fill="#1A5C80"/>
<path opacity="0.1" d="M218.976 25.1768H184.545C182.559 25.1768 180.949 26.7874 180.949 28.7741V34.1678C180.949 36.1546 182.559 37.7652 184.545 37.7652H218.976C220.962 37.7652 222.572 36.1546 222.572 34.1678V28.7741C222.572 26.7874 220.962 25.1768 218.976 25.1768Z" fill="#1A5C80"/>
<path opacity="0.1" d="M267.374 18.8826H232.944C230.958 18.8826 229.348 20.4932 229.348 22.4799V27.8736C229.348 29.8604 230.958 31.471 232.944 31.471H267.374C269.361 31.471 270.971 29.8604 270.971 27.8736V22.4799C270.971 20.4932 269.361 18.8826 267.374 18.8826Z" fill="#1A5C80"/>
<path opacity="0.1" d="M310.933 31.4709H276.503C274.516 31.4709 272.906 33.0815 272.906 35.0683V40.462C272.906 42.4487 274.516 44.0593 276.503 44.0593H310.933C312.92 44.0593 314.53 42.4487 314.53 40.462V35.0683C314.53 33.0815 312.92 31.4709 310.933 31.4709Z" fill="#1A5C80"/>
<path opacity="0.1" d="M354.492 44.0593H320.061C318.075 44.0593 316.465 45.6699 316.465 47.6567V53.0503C316.465 55.0371 318.075 56.6477 320.061 56.6477H354.492C356.478 56.6477 358.088 55.0371 358.088 53.0503V47.6567C358.088 45.6699 356.478 44.0593 354.492 44.0593Z" fill="#1A5C80"/>
<path opacity="0.1" d="M267.374 0H232.944C230.958 0 229.348 1.6106 229.348 3.59737V8.99102C229.348 10.9778 230.958 12.5884 232.944 12.5884H267.374C269.361 12.5884 270.971 10.9778 270.971 8.99102V3.59737C270.971 1.6106 269.361 0 267.374 0Z" fill="#1A5C80"/>
<path opacity="0.1" d="M310.933 12.5884H276.503C274.516 12.5884 272.906 14.199 272.906 16.1858V21.5794C272.906 23.5662 274.516 25.1768 276.503 25.1768H310.933C312.92 25.1768 314.53 23.5662 314.53 21.5794V16.1858C314.53 14.199 312.92 12.5884 310.933 12.5884Z" fill="#1A5C80"/>
<path opacity="0.1" d="M354.492 25.1768H320.061C318.075 25.1768 316.465 26.7874 316.465 28.7741V34.1678C316.465 36.1546 318.075 37.7652 320.061 37.7652H354.492C356.478 37.7652 358.088 36.1546 358.088 34.1678V28.7741C358.088 26.7874 356.478 25.1768 354.492 25.1768Z" fill="#1A5C80"/>
<path opacity="0.1" d="M131.858 287.112H97.4268C95.4408 287.112 93.8308 288.723 93.8308 290.709V296.103C93.8308 298.09 95.4408 299.701 97.4268 299.701H131.858C133.844 299.701 135.454 298.09 135.454 296.103V290.709C135.454 288.723 133.844 287.112 131.858 287.112Z" fill="#1A5C80"/>
<path opacity="0.1" d="M175.417 299.7H140.986C139 299.7 137.39 301.311 137.39 303.298V308.691C137.39 310.678 139 312.289 140.986 312.289H175.417C177.403 312.289 179.013 310.678 179.013 308.691V303.298C179.013 301.311 177.403 299.7 175.417 299.7Z" fill="#1A5C80"/>
<path opacity="0.1" d="M218.976 312.289H184.545C182.559 312.289 180.949 313.899 180.949 315.886V321.28C180.949 323.267 182.559 324.877 184.545 324.877H218.976C220.962 324.877 222.572 323.267 222.572 321.28V315.886C222.572 313.899 220.962 312.289 218.976 312.289Z" fill="#1A5C80"/>
<path opacity="0.1" d="M131.858 268.229H97.4268C95.4408 268.229 93.8308 269.84 93.8308 271.827V277.221C93.8308 279.207 95.4408 280.818 97.4268 280.818H131.858C133.844 280.818 135.454 279.207 135.454 277.221V271.827C135.454 269.84 133.844 268.229 131.858 268.229Z" fill="#1A5C80"/>
<path opacity="0.1" d="M175.417 280.818H140.986C139 280.818 137.39 282.428 137.39 284.415V289.809C137.39 291.796 139 293.406 140.986 293.406H175.417C177.403 293.406 179.013 291.796 179.013 289.809V284.415C179.013 282.428 177.403 280.818 175.417 280.818Z" fill="#1A5C80"/>
<path opacity="0.1" d="M218.976 293.406H184.545C182.559 293.406 180.949 295.017 180.949 297.004V302.397C180.949 304.384 182.559 305.995 184.545 305.995H218.976C220.962 305.995 222.572 304.384 222.572 302.397V297.004C222.572 295.017 220.962 293.406 218.976 293.406Z" fill="#1A5C80"/>
<path opacity="0.1" d="M267.374 287.112H232.944C230.958 287.112 229.348 288.723 229.348 290.709V296.103C229.348 298.09 230.958 299.701 232.944 299.701H267.374C269.361 299.701 270.971 298.09 270.971 296.103V290.709C270.971 288.723 269.361 287.112 267.374 287.112Z" fill="#1A5C80"/>
<path opacity="0.1" d="M310.933 299.7H276.503C274.516 299.7 272.906 301.311 272.906 303.298V308.691C272.906 310.678 274.516 312.289 276.503 312.289H310.933C312.92 312.289 314.53 310.678 314.53 308.691V303.298C314.53 301.311 312.92 299.7 310.933 299.7Z" fill="#1A5C80"/>
<path opacity="0.1" d="M354.492 312.289H320.061C318.075 312.289 316.465 313.899 316.465 315.886V321.28C316.465 323.267 318.075 324.877 320.061 324.877H354.492C356.478 324.877 358.088 323.267 358.088 321.28V315.886C358.088 313.899 356.478 312.289 354.492 312.289Z" fill="#1A5C80"/>
<path opacity="0.1" d="M267.374 268.229H232.944C230.958 268.229 229.348 269.84 229.348 271.827V277.221C229.348 279.207 230.958 280.818 232.944 280.818H267.374C269.361 280.818 270.971 279.207 270.971 277.221V271.827C270.971 269.84 269.361 268.229 267.374 268.229Z" fill="#1A5C80"/>
<path opacity="0.1" d="M310.933 280.818H276.503C274.516 280.818 272.906 282.428 272.906 284.415V289.809C272.906 291.796 274.516 293.406 276.503 293.406H310.933C312.92 293.406 314.53 291.796 314.53 289.809V284.415C314.53 282.428 312.92 280.818 310.933 280.818Z" fill="#1A5C80"/>
<path opacity="0.1" d="M354.492 293.406H320.061C318.075 293.406 316.465 295.017 316.465 297.004V302.397C316.465 304.384 318.075 305.995 320.061 305.995H354.492C356.478 305.995 358.088 304.384 358.088 302.397V297.004C358.088 295.017 356.478 293.406 354.492 293.406Z" fill="#1A5C80"/>
<path opacity="0.1" d="M131.858 243.053H97.4268C95.4408 243.053 93.8308 244.663 93.8308 246.65V252.044C93.8308 254.031 95.4408 255.641 97.4268 255.641H131.858C133.844 255.641 135.454 254.031 135.454 252.044V246.65C135.454 244.663 133.844 243.053 131.858 243.053Z" fill="#1A5C80"/>
<path opacity="0.1" d="M175.417 255.641H140.986C139 255.641 137.39 257.252 137.39 259.238V264.632C137.39 266.619 139 268.23 140.986 268.23H175.417C177.403 268.23 179.013 266.619 179.013 264.632V259.238C179.013 257.252 177.403 255.641 175.417 255.641Z" fill="#1A5C80"/>
<path opacity="0.1" d="M218.976 268.229H184.545C182.559 268.229 180.949 269.84 180.949 271.827V277.221C180.949 279.207 182.559 280.818 184.545 280.818H218.976C220.962 280.818 222.572 279.207 222.572 277.221V271.827C222.572 269.84 220.962 268.229 218.976 268.229Z" fill="#1A5C80"/>
<path opacity="0.1" d="M131.858 224.17H97.4268C95.4408 224.17 93.8308 225.781 93.8308 227.768V233.161C93.8308 235.148 95.4408 236.759 97.4268 236.759H131.858C133.844 236.759 135.454 235.148 135.454 233.161V227.768C135.454 225.781 133.844 224.17 131.858 224.17Z" fill="#1A5C80"/>
<path opacity="0.1" d="M175.417 236.759H140.986C139 236.759 137.39 238.369 137.39 240.356V245.75C137.39 247.736 139 249.347 140.986 249.347H175.417C177.403 249.347 179.013 247.736 179.013 245.75V240.356C179.013 238.369 177.403 236.759 175.417 236.759Z" fill="#1A5C80"/>
<path opacity="0.1" d="M218.976 249.347H184.545C182.559 249.347 180.949 250.958 180.949 252.944V258.338C180.949 260.325 182.559 261.935 184.545 261.935H218.976C220.962 261.935 222.572 260.325 222.572 258.338V252.944C222.572 250.958 220.962 249.347 218.976 249.347Z" fill="#1A5C80"/>
<path opacity="0.1" d="M267.374 243.053H232.944C230.958 243.053 229.348 244.663 229.348 246.65V252.044C229.348 254.031 230.958 255.641 232.944 255.641H267.374C269.361 255.641 270.971 254.031 270.971 252.044V246.65C270.971 244.663 269.361 243.053 267.374 243.053Z" fill="#1A5C80"/>
<path opacity="0.1" d="M310.933 255.641H276.503C274.516 255.641 272.906 257.252 272.906 259.238V264.632C272.906 266.619 274.516 268.23 276.503 268.23H310.933C312.92 268.23 314.53 266.619 314.53 264.632V259.238C314.53 257.252 312.92 255.641 310.933 255.641Z" fill="#1A5C80"/>
<path opacity="0.1" d="M354.492 268.229H320.061C318.075 268.229 316.465 269.84 316.465 271.827V277.221C316.465 279.207 318.075 280.818 320.061 280.818H354.492C356.478 280.818 358.088 279.207 358.088 277.221V271.827C358.088 269.84 356.478 268.229 354.492 268.229Z" fill="#1A5C80"/>
<path opacity="0.1" d="M267.374 224.17H232.944C230.958 224.17 229.348 225.781 229.348 227.768V233.161C229.348 235.148 230.958 236.759 232.944 236.759H267.374C269.361 236.759 270.971 235.148 270.971 233.161V227.768C270.971 225.781 269.361 224.17 267.374 224.17Z" fill="#1A5C80"/>
<path opacity="0.1" d="M310.933 236.759H276.503C274.516 236.759 272.906 238.369 272.906 240.356V245.75C272.906 247.736 274.516 249.347 276.503 249.347H310.933C312.92 249.347 314.53 247.736 314.53 245.75V240.356C314.53 238.369 312.92 236.759 310.933 236.759Z" fill="#1A5C80"/>
<path opacity="0.1" d="M354.492 249.347H320.061C318.075 249.347 316.465 250.958 316.465 252.944V258.338C316.465 260.325 318.075 261.935 320.061 261.935H354.492C356.478 261.935 358.088 260.325 358.088 258.338V252.944C358.088 250.958 356.478 249.347 354.492 249.347Z" fill="#1A5C80"/>
<path opacity="0.1" d="M233.461 367C350.672 367 445.69 359.196 445.69 349.57C445.69 339.944 350.672 332.14 233.461 332.14C116.251 332.14 21.2325 339.944 21.2325 349.57C21.2325 359.196 116.251 367 233.461 367Z" fill="#1A5C80"/>
<path d="M40.9696 90.4427C60.9825 99.119 72.4821 117.072 72.4821 117.072C72.4821 117.072 51.5302 120.945 31.5125 112.274C11.4947 103.602 0 85.6446 0 85.6446C0 85.6446 20.9519 81.7664 40.9696 90.4427Z" fill="#1A5C80"/>
<path d="M102.388 57.1319C108.578 46.9644 119.119 42.1227 119.119 42.1227C119.119 42.1227 119.603 53.7137 113.432 63.8522C107.261 73.9907 96.696 78.8275 96.696 78.8275C96.696 78.8275 96.1926 67.2414 102.388 57.1319Z" fill="#1A5C80"/>
<path d="M56.8831 68.0111C61.3116 83.8241 73.5178 94.2337 73.5178 94.2337C73.5178 94.2337 78.5465 78.9969 74.118 63.1791C69.6895 47.3613 57.4784 36.9565 57.4784 36.9565C57.4784 36.9565 52.4498 52.1933 56.8831 68.0111Z" fill="#46455B"/>
<path d="M406.87 67.2994H61.0212C59.094 67.2994 57.5317 68.8624 57.5317 70.7903V240.53C57.5317 242.458 59.094 244.021 61.0212 244.021H406.87C408.797 244.021 410.359 242.458 410.359 240.53V70.7903C410.359 68.8624 408.797 67.2994 406.87 67.2994Z" fill="#3F3D56"/>
<path opacity="0.1" d="M57.5317 233.369H410.359V240.53C410.359 241.456 409.992 242.344 409.337 242.999C408.683 243.653 407.795 244.021 406.87 244.021H61.0212C60.0957 244.021 59.2082 243.653 58.5537 242.999C57.8993 242.344 57.5317 241.456 57.5317 240.53V233.369Z" fill="black"/>
<path d="M116.82 220.297H93.1048C92.4366 220.297 91.8948 220.839 91.8948 221.507V232.159C91.8948 232.828 92.4366 233.369 93.1048 233.369H116.82C117.488 233.369 118.03 232.828 118.03 232.159V221.507C118.03 220.839 117.488 220.297 116.82 220.297Z" fill="#1A5C80"/>
<path d="M142.23 231.433H126.258C125.723 231.433 125.29 231.866 125.29 232.401C125.29 232.936 125.723 233.369 126.258 233.369H142.23C142.764 233.369 143.198 232.936 143.198 232.401C143.198 231.866 142.764 231.433 142.23 231.433Z" fill="#1A5C80"/>
<path d="M109.391 101.859C122.164 104.217 135.192 101.859 147.912 100.262L186.568 95.42C188.131 95.2215 190.406 94.287 191.325 96.1995C191.843 97.2695 191.495 99.5887 191.534 100.818C191.635 104.208 191.626 107.597 191.534 110.986C191.359 117.464 190.885 123.928 190.28 130.377C189.104 142.999 187.439 155.554 186.607 168.224C186.181 174.674 185.968 181.142 186.156 187.591C186.2 189.131 186.263 190.671 186.355 192.205C186.457 193.924 187.226 196.476 185.353 197.623C184.283 198.282 182.178 198.248 180.954 198.441C179.018 198.746 177.082 198.989 175.107 199.187C162.093 200.489 148.909 199.947 135.846 199.87L96.4008 199.666L86.7791 199.613C85.908 199.613 82.7669 200.136 82.2297 199.1C82.0022 198.659 82.6072 196.597 82.7136 196.045C82.8621 195.135 83.0234 194.226 83.1976 193.319C84.3205 186.952 85.6466 180.624 86.9824 174.301C89.8525 160.744 92.7903 147.12 93.9712 133.272C94.5568 126.325 94.1696 119.314 94.8859 112.38C95.2199 109.161 95.6168 101.976 99.9001 101.69C103.53 101.448 107.266 101.69 110.906 101.69C111.099 101.69 111.283 101.613 111.419 101.477C111.555 101.341 111.632 101.156 111.632 100.964C111.632 100.771 111.555 100.586 111.419 100.45C111.283 100.314 111.099 100.237 110.906 100.237C107.47 100.237 104.028 100.145 100.592 100.213C98.3078 100.257 96.7203 100.799 95.6313 102.9C92.8484 108.294 93.1339 115.489 93.0468 121.376C92.8387 135.47 90.6753 149.264 87.8584 163.049C86.4404 169.987 84.911 176.901 83.5025 183.844C82.8395 187.16 82.2055 190.487 81.6247 193.822C81.3536 195.411 79.984 198.911 81.1891 200.368C82.3942 201.826 86.1016 201.041 87.7616 201.051L99.3096 201.119L121.438 201.245C135.735 201.327 150.08 201.729 164.372 201.308C171.196 201.104 178.408 200.824 185.053 199.192C187.032 198.708 187.986 197.798 188.063 195.687C188.18 192.414 187.647 189.039 187.579 185.751C187.095 157.621 193.702 129.883 193.024 101.743C192.981 99.8308 193.702 95.0085 191.611 93.8513C190.672 93.3284 189.452 93.6141 188.465 93.7303C186.578 93.9481 184.695 94.2144 182.807 94.4371L158.293 97.4971C150.457 98.4654 142.627 99.5112 134.776 100.402C126.466 101.37 118.074 101.947 109.793 100.402C108.878 100.233 108.486 101.632 109.406 101.801L109.391 101.859Z" fill="#1A5C80"/>
<path d="M93.9809 118.975L190.691 114.23C191.626 114.182 191.63 112.729 190.691 112.777L93.9809 117.522C93.0516 117.566 93.0468 119.018 93.9809 118.975Z" fill="#1A5C80"/>
<path d="M123.775 107.001C123.505 107.288 123.308 107.637 123.203 108.017C123.098 108.396 123.087 108.796 123.171 109.181C123.256 109.567 123.433 109.925 123.688 110.226C123.942 110.527 124.266 110.761 124.632 110.909C125.934 111.504 127.463 111.005 128.755 110.681C130.691 110.197 132.627 109.766 134.617 109.413C138.946 108.646 143.331 108.238 147.728 108.192C149.731 108.168 151.721 108.26 153.724 108.347C155.176 108.405 156.74 108.522 157.969 107.621C159.373 106.595 159.827 104.59 158.453 103.341C156.517 101.574 152.345 102.6 150.109 102.784C141.995 103.459 133.934 104.662 125.977 106.386C125.067 106.58 125.45 107.984 126.365 107.786C131.614 106.653 136.904 105.743 142.234 105.055C144.854 104.732 147.479 104.459 150.109 104.237C151.348 104.135 152.587 104.043 153.826 103.97C154.31 103.941 154.823 103.888 155.317 103.903C156.851 103.937 157.03 103.661 156.11 105.515C155.292 107.156 155.554 106.967 154.136 106.914C153.536 106.914 152.935 106.846 152.335 106.817C151.106 106.766 149.877 106.738 148.647 106.735C146.031 106.735 143.42 106.861 140.816 107.113C138.609 107.326 136.407 107.626 134.224 108.013C132.86 108.255 131.504 108.536 130.154 108.846C129.559 108.986 128.959 109.132 128.363 109.282C128.078 109.359 127.787 109.427 127.502 109.5C126.444 109.868 125.542 109.383 124.796 108.047C125.445 107.374 124.424 106.343 123.77 107.021L123.775 107.001Z" fill="#1A5C80"/>
<path d="M141.305 127.666C134.302 127.394 126.737 129.288 122.125 134.928C118.514 139.339 116.457 146.906 120.281 151.874C124.39 157.2 133.402 156.261 138.837 153.99C144.587 151.569 150.879 146.577 152.606 140.331C154.76 132.531 147.766 126.634 140.482 126.547C139.548 126.547 139.548 128 140.482 128C144.635 128.048 148.71 129.83 150.646 133.698C152.674 137.775 150.927 142.055 148.226 145.318C143.899 150.513 137.133 154.43 130.241 154.319C126.103 154.256 121.529 152.837 120.247 148.47C119.192 144.931 119.995 141.062 121.834 137.925C125.813 131.147 133.91 128.852 141.334 129.142C142.268 129.176 142.268 127.724 141.334 127.69L141.305 127.666Z" fill="#1A5C80"/>
<path d="M134.35 138.424C134.052 138.313 133.73 138.28 133.415 138.327C133.1 138.374 132.802 138.5 132.549 138.694C132.296 138.887 132.096 139.141 131.967 139.433C131.839 139.724 131.786 140.043 131.814 140.361C131.959 142.249 134.041 142.781 135.604 142.67C136.954 142.554 138.532 142.055 138.058 140.365C137.97 140.066 137.82 139.79 137.616 139.554C137.412 139.318 137.16 139.129 136.877 139C136.444 138.828 135.974 138.77 135.512 138.831C135.333 138.831 133.692 139.431 134.389 138.71L133.247 138.559C133.374 138.685 133.471 138.836 133.531 139.004C133.591 139.172 133.613 139.351 133.595 139.528C133.597 139.654 133.632 139.778 133.697 139.887C133.761 139.996 133.853 140.086 133.962 140.149C134.072 140.212 134.196 140.246 134.323 140.246C134.449 140.247 134.574 140.214 134.684 140.152C134.85 140.083 135.032 140.061 135.21 140.089C135.388 140.118 135.554 140.195 135.691 140.313C135.827 140.43 135.928 140.584 135.982 140.756C136.035 140.927 136.04 141.111 135.996 141.285C135.957 141.453 135.978 141.629 136.056 141.783C136.135 141.936 136.264 142.057 136.423 142.124C136.581 142.191 136.758 142.2 136.923 142.15C137.087 142.099 137.229 141.992 137.322 141.847C137.806 140.976 138.392 139.242 137.666 138.332C137.182 137.717 136.248 137.901 135.667 138.259C135.308 138.513 134.974 138.8 134.67 139.116C134.084 139.634 133.702 139.876 133.92 138.884C134.283 137.078 136.006 135.64 137.578 134.919L136.514 134.1C135.955 136.199 134.957 138.155 133.586 139.838L134.825 140.351C134.789 139.686 134.96 139.027 135.314 138.463C135.667 137.898 136.186 137.457 136.799 137.199H136.088L136.465 137.819C136.325 138.734 137.724 139.126 137.864 138.201C138.048 137.005 137.293 135.451 135.894 136.037C134.224 136.734 133.358 138.647 133.392 140.351C133.392 140.932 134.215 141.382 134.636 140.869C136.175 138.998 137.299 136.821 137.932 134.483C137.965 134.344 137.958 134.199 137.91 134.064C137.863 133.929 137.777 133.811 137.664 133.725C137.55 133.638 137.414 133.586 137.272 133.575C137.13 133.565 136.987 133.596 136.862 133.665C135.412 134.32 134.187 135.388 133.339 136.734C132.748 137.703 132.008 139.213 132.608 140.327C132.706 140.505 132.839 140.662 132.998 140.788C133.158 140.915 133.341 141.009 133.536 141.064C133.732 141.119 133.937 141.135 134.139 141.111C134.341 141.087 134.536 141.023 134.713 140.922C135.161 140.657 135.57 140.331 135.928 139.954C136.107 139.794 136.306 139.518 136.543 139.47C136.756 139.324 136.746 139.407 136.509 139.726C136.506 140.228 136.36 140.718 136.088 141.14L137.414 141.697C137.533 141.245 137.519 140.768 137.374 140.324C137.228 139.879 136.957 139.487 136.593 139.193C136.229 138.9 135.788 138.718 135.323 138.67C134.858 138.622 134.389 138.71 133.973 138.923L135.067 139.552C135.089 138.936 134.896 138.331 134.52 137.843C134.463 137.749 134.385 137.669 134.293 137.608C134.201 137.548 134.096 137.51 133.987 137.495C133.878 137.481 133.767 137.491 133.662 137.525C133.558 137.559 133.462 137.617 133.382 137.693C132.647 138.463 132.506 139.794 133.431 140.506C134.123 141.034 134.462 140.506 135.221 140.385C137.801 140.051 136.296 141.213 135.386 141.251C134.979 141.295 134.568 141.266 134.171 141.164C133.161 140.822 133.098 140.382 133.982 139.843C134.849 140.196 135.221 138.792 134.37 138.443L134.35 138.424Z" fill="#1A5C80"/>
<path d="M133.184 141.077C133.779 143.014 131.321 143.653 130.154 144.321C129.336 144.78 128.622 145.405 128.058 146.156C126.839 147.793 126.384 149.874 125.982 151.835C125.798 152.75 127.197 153.138 127.386 152.223C127.607 150.782 128.019 149.377 128.61 148.044C129.481 146.311 130.73 145.73 132.356 144.839C133.982 143.948 135.159 142.568 134.583 140.69C134.312 139.799 132.908 140.181 133.184 141.077Z" fill="#1A5C80"/>
<path d="M135.604 140.104C135.258 140.152 134.942 140.327 134.718 140.596C134.494 140.865 134.379 141.207 134.394 141.556C134.394 142.133 134.776 142.501 135.038 142.96C135.658 143.902 136.131 144.932 136.441 146.016C136.674 147.057 136.901 148.921 136.359 149.889C135.357 151.685 133.547 151.341 132.003 151.341C130.551 151.341 129.428 151.826 129.477 149.802C129.506 148.664 130.299 147.512 130.929 146.616L129.602 146.442C129.882 147.92 130.03 149.42 130.043 150.925C130.043 151.598 131.074 151.971 131.393 151.288C132.171 149.651 132.789 147.942 133.237 146.185L131.809 145.991L132.061 149.671C132.065 149.828 132.12 149.98 132.217 150.103C132.314 150.227 132.448 150.316 132.6 150.357C132.751 150.398 132.912 150.39 133.058 150.332C133.204 150.275 133.328 150.172 133.411 150.039C133.581 149.852 133.705 149.628 133.774 149.385C133.823 149.158 133.378 147.623 133.198 148.17L134.621 148.364L134.723 144.868L133.271 145.062C133.578 146.048 133.67 147.088 133.542 148.112C133.45 148.921 134.81 149.105 134.994 148.306L135.904 143.609L134.578 143.779C134.893 144.428 134.98 145.165 134.825 145.87C134.718 146.8 136.17 146.79 136.277 145.87C136.4 144.906 136.245 143.927 135.831 143.048C135.758 142.926 135.651 142.829 135.523 142.768C135.395 142.707 135.252 142.684 135.111 142.702C134.971 142.721 134.839 142.78 134.731 142.872C134.624 142.964 134.545 143.086 134.505 143.222L133.59 147.918L135.018 148.112C135.163 146.958 135.053 145.786 134.694 144.679C134.645 144.513 134.539 144.369 134.393 144.274C134.248 144.179 134.074 144.139 133.901 144.162C133.729 144.185 133.571 144.269 133.456 144.398C133.34 144.528 133.274 144.694 133.271 144.868L133.169 148.364C133.169 149.211 134.346 149.332 134.597 148.557L134.675 148.32C134.708 148.197 134.709 148.066 134.677 147.942C134.644 147.818 134.58 147.705 134.491 147.613C132.986 145.977 132.681 148.582 132.158 149.303L133.513 149.671L133.261 145.991C133.208 145.207 132.047 144.965 131.834 145.798C131.425 147.435 130.857 149.029 130.14 150.557L131.495 150.925C131.479 149.29 131.317 147.66 131.011 146.054C130.885 145.386 130.009 145.415 129.685 145.88C128.717 147.274 127.042 150.32 128.334 151.99C129.462 153.443 133.01 152.881 134.525 152.789C136.915 152.654 137.782 151.138 138.043 148.882C138.168 147.801 138.107 146.708 137.864 145.648C137.733 145.076 136.412 141.455 136.015 141.527C136.935 141.358 136.543 139.954 135.628 140.123L135.604 140.104Z" fill="#1A5C80"/>
<path d="M132.792 143.367L128.828 148.601L130.082 149.332L132.986 145.13L131.659 144.568L130.212 150.092C130.173 150.26 130.195 150.436 130.273 150.59C130.351 150.743 130.481 150.864 130.639 150.931C130.798 150.998 130.975 151.007 131.139 150.957C131.304 150.906 131.445 150.799 131.538 150.654C132.197 149.562 132.936 148.522 133.75 147.541L132.54 146.834C132.215 148.085 131.589 149.237 130.716 150.189L131.93 150.896C132.005 150.227 132.183 149.574 132.458 148.959C132.831 148.122 131.65 147.381 131.204 148.223C130.795 148.991 130.327 149.726 129.806 150.422L131.132 150.596L131.427 149.216L130.101 149.042L130.314 150.252C130.349 150.374 130.415 150.485 130.505 150.573C130.596 150.662 130.708 150.725 130.83 150.757C130.953 150.79 131.082 150.789 131.204 150.757C131.327 150.724 131.438 150.661 131.529 150.572C132.756 149.301 133.74 147.816 134.433 146.19H133.184C133.512 146.795 133.743 147.449 133.866 148.127C134.041 148.998 135.197 148.674 135.289 147.933C135.497 146.311 135.604 144.678 135.609 143.043H134.157V146.088C134.157 146.877 135.449 147.11 135.585 146.282C135.68 145.547 135.922 144.84 136.296 144.2H135.023C135.33 144.695 135.497 145.264 135.507 145.846C135.507 146.039 135.584 146.224 135.72 146.36C135.856 146.496 136.041 146.572 136.233 146.572C136.426 146.572 136.61 146.496 136.746 146.36C136.883 146.224 136.959 146.039 136.959 145.846L137.143 144.878H135.744C135.885 145.735 136.417 150.562 134.525 149.996C134.205 149.918 134.113 149.937 134.249 150.049L134.679 149.129L135.691 146.984L134.336 146.616C134.423 147.613 134.515 149.037 133.915 149.889C133.431 150.581 131.94 150.857 131.18 150.451C130.679 150.093 130.25 149.643 129.917 149.124L128.925 150.092C129.728 150.678 131.03 152.116 132.066 152.199C132.855 152.261 133.518 151.608 134.036 151.085C134.83 150.264 135.449 149.29 135.856 148.222C136.263 147.154 136.449 146.015 136.402 144.873C136.402 144.68 136.326 144.496 136.19 144.359C136.054 144.223 135.869 144.147 135.676 144.147C135.484 144.147 135.299 144.223 135.163 144.359C135.027 144.496 134.95 144.68 134.95 144.873V146.529C134.95 146.722 135.027 146.906 135.163 147.042C135.299 147.179 135.484 147.255 135.676 147.255C135.869 147.255 136.054 147.179 136.19 147.042C136.326 146.906 136.402 146.722 136.402 146.529V142.467C136.402 142.274 136.326 142.089 136.19 141.953C136.054 141.817 135.869 141.74 135.676 141.74C135.484 141.74 135.299 141.817 135.163 141.953C135.027 142.089 134.95 142.274 134.95 142.467C134.948 143.44 134.864 144.412 134.699 145.372L136.127 145.565C136.013 144.409 135.96 143.247 135.967 142.084C135.965 141.91 135.9 141.743 135.785 141.612C135.669 141.482 135.511 141.398 135.339 141.374C135.166 141.351 134.991 141.39 134.846 141.485C134.7 141.579 134.593 141.723 134.544 141.891C134.326 142.815 134.06 143.726 133.803 144.631L135.13 144.457L135.028 144.069C134.96 143.145 133.508 143.14 133.576 144.069C133.592 144.461 133.694 144.845 133.876 145.193C134.157 145.783 135.033 145.575 135.202 145.018C135.478 144.108 135.725 143.198 135.943 142.278L134.515 142.084C134.508 143.247 134.561 144.409 134.675 145.565C134.747 146.311 135.948 146.631 136.098 145.759C136.291 144.666 136.393 143.558 136.402 142.447H134.95V146.51H136.402V144.854H134.95C135.036 146.68 134.402 148.467 133.184 149.831C132.995 150.045 132.792 150.246 132.574 150.431C132.23 150.761 131.916 150.712 131.64 150.281C130.953 149.996 130.241 149.26 129.641 148.829C129.041 148.398 128.218 149.25 128.644 149.821C129.757 151.303 131.417 152.954 133.484 152.242C135.657 151.472 135.952 148.528 135.788 146.592C135.735 145.948 134.771 145.512 134.437 146.229C133.953 147.25 133.469 148.267 132.986 149.293C132.816 149.652 132.502 150.146 132.55 150.572C132.71 151.661 134.031 151.482 134.844 151.419C137.995 151.182 137.496 146.713 137.133 144.466C137.012 143.721 135.928 143.837 135.735 144.466C135.581 144.909 135.501 145.373 135.497 145.841H136.949C136.897 145.009 136.664 144.198 136.267 143.464C136.202 143.356 136.11 143.266 136 143.204C135.89 143.142 135.766 143.109 135.64 143.109C135.514 143.109 135.39 143.142 135.28 143.204C135.17 143.266 135.078 143.356 135.013 143.464C134.581 144.212 134.289 145.032 134.152 145.885L135.604 146.079V143.033C135.604 142.841 135.527 142.656 135.391 142.52C135.255 142.383 135.07 142.307 134.878 142.307C134.685 142.307 134.501 142.383 134.365 142.52C134.228 142.656 134.152 142.841 134.152 143.033C134.147 144.668 134.04 146.301 133.832 147.923L135.26 147.73C135.096 146.938 134.817 146.175 134.433 145.464C134.368 145.355 134.276 145.266 134.166 145.204C134.056 145.141 133.932 145.109 133.806 145.109C133.68 145.109 133.556 145.141 133.446 145.204C133.336 145.266 133.244 145.355 133.179 145.464C132.548 146.98 131.64 148.366 130.503 149.55L131.717 149.87L131.505 148.659C131.393 148.015 130.483 147.996 130.178 148.485C129.938 148.849 129.775 149.259 129.699 149.688C129.623 150.118 129.636 150.559 129.738 150.983C129.859 151.671 130.73 151.598 131.064 151.158C131.586 150.463 132.053 149.73 132.463 148.964L131.209 148.228C130.875 148.952 130.646 149.72 130.532 150.509C130.445 151.148 131.204 151.816 131.746 151.216C132.787 150.077 133.54 148.706 133.944 147.216C134.123 146.558 133.213 145.933 132.729 146.51C131.839 147.577 131.03 148.71 130.309 149.899L131.635 150.46L133.111 144.955C133.15 144.788 133.129 144.612 133.051 144.458C132.973 144.305 132.843 144.184 132.684 144.117C132.526 144.049 132.349 144.04 132.184 144.091C132.02 144.142 131.878 144.249 131.785 144.394L128.881 148.601C128.339 149.381 129.583 150.054 130.135 149.332L134.084 144.103C134.646 143.358 133.387 142.651 132.831 143.367H132.792Z" fill="#1A5C80"/>
<path d="M194.539 160.841C200.347 157.287 204.964 151.986 210.095 147.551C215.66 142.743 221.502 138.264 227.518 134.023C239.202 125.792 251.471 118.428 263.73 111.083C263.889 110.982 264.003 110.824 264.047 110.641C264.092 110.459 264.064 110.266 263.969 110.103C263.874 109.941 263.72 109.822 263.54 109.77C263.359 109.719 263.165 109.74 262.999 109.829C250.74 117.174 238.466 124.523 226.782 132.769C221.27 136.642 215.888 140.748 210.729 145.105C205.114 149.85 200.115 155.757 193.789 159.587C192.99 160.071 193.721 161.33 194.52 160.841H194.539Z" fill="#1A5C80"/>
<path d="M282.475 88.5303C276.183 89.1694 269.407 90.772 265.535 96.277C262.191 101.012 262.264 109.272 265.405 114.133C268.972 119.658 276.261 119.856 281.923 118.069C287.586 116.283 293.447 113.15 293.394 106.382C293.365 102.75 292.053 98.969 290.606 95.6766C289.357 92.8346 287.145 90.3508 283.796 90.6655C282.872 90.7526 282.862 92.2052 283.796 92.118C288.283 91.7016 289.725 97.0323 290.79 100.397C291.758 103.54 292.653 107.258 291.133 110.381C289.614 113.504 285.95 115.097 282.819 116.239C279.431 117.469 275.709 118.22 272.171 117.208C265.163 115.247 263.227 106.362 265.245 100.058C267.568 92.7958 275.796 90.6607 282.499 89.9828C283.419 89.8908 283.428 88.4383 282.499 88.5303H282.475Z" fill="#1A5C80"/>
<path d="M292.155 144.694C285.863 145.333 279.087 146.936 275.215 152.441C271.871 157.176 271.943 165.436 275.085 170.297C278.652 175.821 285.94 176.02 291.603 174.233C297.266 172.446 303.127 169.314 303.074 162.545C303.045 158.914 301.733 155.133 300.286 151.84C299.037 148.998 296.825 146.514 293.476 146.829C292.552 146.916 292.542 148.369 293.476 148.282C297.963 147.865 299.405 153.196 300.47 156.561C301.438 159.703 302.333 163.422 300.813 166.544C299.294 169.667 295.63 171.26 292.498 172.403C289.11 173.633 285.389 174.383 281.851 173.371C274.843 171.41 272.907 162.526 274.925 156.222C277.248 148.959 285.476 146.824 292.179 146.146C293.099 146.054 293.108 144.602 292.179 144.694H292.155Z" fill="#1A5C80"/>
<path d="M272.984 102.673L277.567 107.902C277.658 107.989 277.77 108.052 277.892 108.084C278.014 108.115 278.142 108.115 278.264 108.082C278.386 108.049 278.497 107.986 278.587 107.897C278.677 107.809 278.743 107.699 278.777 107.577C279.745 105.031 279.561 102.392 279.789 99.7145C280.04 96.9472 280.734 94.2383 281.846 91.6918C284.079 86.5269 287.865 82.1861 292.677 79.2729C293.476 78.7887 292.745 77.5299 291.947 78.0189C287.201 80.8775 283.394 85.0611 280.994 90.0554C279.819 92.4856 279.004 95.074 278.574 97.7391C278.09 100.881 278.53 104.174 277.369 107.19L278.584 106.866L274.025 101.646C273.405 100.944 272.384 101.976 272.998 102.673H272.984Z" fill="#1A5C80"/>
<path d="M196.877 166.501C221.841 165.739 246.811 165.578 271.788 166.017C272.723 166.017 272.723 164.564 271.788 164.564C246.818 164.119 221.847 164.28 196.877 165.048C195.943 165.077 195.938 166.53 196.877 166.501Z" fill="#1A5C80"/>
<path d="M277.006 152.179C285.54 155.53 293.749 159.656 301.53 164.506C302.323 164.99 303.054 163.746 302.26 163.252C294.377 158.342 286.06 154.167 277.412 150.78C276.546 150.436 276.169 151.84 277.03 152.179H277.006Z" fill="#1A5C80"/>
<path d="M292.503 145.599C283.849 155.691 278.836 168.4 278.269 181.684C278.23 182.619 279.682 182.619 279.721 181.684C280.271 168.781 285.133 156.436 293.529 146.626C294.134 145.919 293.113 144.887 292.503 145.599Z" fill="#1A5C80"/>
<path d="M98.932 161.228L153.027 160.521L159.247 160.439C160.365 160.439 161.483 160.4 162.601 160.395C164.174 160.395 165.234 161.703 165.205 163.3C165.132 166.69 163.002 166.569 160.215 166.69L153.492 166.995L126.118 168.2C121.215 168.418 116.307 168.684 111.404 168.854C106.981 168.989 98.569 167.547 100.534 161.107C100.805 160.211 99.4063 159.829 99.1305 160.72C98.1625 163.886 99.8758 167.101 102.635 168.762C106.55 171.115 111.709 170.316 116.031 170.122L149.639 168.597L157.8 168.234C159.89 168.137 162.799 168.563 164.721 167.59C166.976 166.452 167.373 161.935 165.95 160.032C165.219 159.064 164.193 158.977 163.046 158.933C160.036 158.817 156.972 159.016 153.957 159.054L137.201 159.277L98.9127 159.761C97.9786 159.761 97.9786 161.214 98.9127 161.214L98.932 161.228Z" fill="#1A5C80"/>
<path d="M317.492 339.16C316.272 339.925 314.878 340.356 313.62 341.029C312.361 341.702 311.137 342.714 310.779 344.108C310.645 344.541 310.667 345.007 310.842 345.425C311.155 345.93 311.634 346.31 312.197 346.5C314.753 347.636 317.514 348.238 320.311 348.27C323.108 348.301 325.882 347.762 328.464 346.684C329.372 346.248 330.31 345.875 331.271 345.571C332.454 345.329 333.659 345.206 334.867 345.203C336.136 345.129 337.399 344.967 338.647 344.719C339.274 344.649 339.868 344.402 340.36 344.007C340.809 343.489 341.079 342.841 341.13 342.157C341.702 338.385 340.839 334.535 338.71 331.37C338.441 330.926 338.082 330.545 337.654 330.252C337.134 329.982 336.561 329.829 335.975 329.801C333.555 329.506 331.019 328.964 328.575 328.906C326.823 328.867 325.942 329.7 324.703 330.905C322.143 333.466 320.647 337.19 317.492 339.16Z" fill="#323444"/>
<path d="M353.157 338.802C353.157 341.175 353.442 343.687 354.88 345.581C355.537 346.399 356.333 347.096 357.232 347.638C360.271 349.575 364.298 350.287 367.502 348.645C368.02 348.413 368.462 348.041 368.78 347.57C369.264 346.728 369.007 345.677 368.736 344.748L364.1 328.673C361.104 329.133 356.699 329.458 354.037 330.978C352.106 332.077 353.157 336.681 353.157 338.802Z" fill="#323444"/>
<path d="M314.772 239.823C314.491 240.709 313.474 241.121 312.918 241.867C312.265 242.743 312.332 243.958 312.569 245.023C312.862 246.594 313.6 248.048 314.694 249.211C315.25 249.788 315.935 250.223 316.692 250.481C317.45 250.739 318.258 250.811 319.05 250.693C320.608 250.398 321.954 249.018 322.007 247.435C321.979 246.714 321.825 246.005 321.552 245.338L318.251 235.79C318.238 235.723 318.21 235.659 318.17 235.603C318.13 235.547 318.079 235.5 318.019 235.466C317.895 235.438 317.764 235.461 317.656 235.529C316.877 235.897 315.314 236.284 314.859 237.093C314.404 237.901 315.101 238.947 314.772 239.823Z" fill="#FBB3B2"/>
<path d="M313.228 239.344C314.433 239.155 315.488 238.448 316.616 237.984C317.743 237.519 319.157 237.34 320.105 238.114C320.376 238.337 320.638 238.642 320.991 238.637C320.51 236.27 319.784 233.959 318.823 231.743C318.789 231.637 318.723 231.543 318.634 231.476C318.502 231.423 318.354 231.423 318.222 231.476L314.965 232.329C313.76 232.643 313.62 232.546 313.712 233.733C313.736 234.26 314.007 239.344 313.228 239.344Z" fill="#323444"/>
<path d="M312.869 170.398C312.385 171.144 312.385 172.074 312.385 172.95C312.385 177.235 312.429 181.544 313.063 185.785C313.213 186.802 313.402 187.819 313.499 188.845C313.608 190.274 313.631 191.708 313.566 193.14L313.082 211.78C313.024 214.061 312.908 216.511 311.5 218.302C311.073 218.903 310.872 219.635 310.933 220.37C311.301 225.047 312.076 229.685 312.845 234.309C314.084 233.75 315.438 233.492 316.796 233.557C318.153 233.622 319.477 234.007 320.657 234.682C323.099 227.001 324.449 219.014 324.669 210.957C324.78 206.992 324.611 203.002 325.221 199.085C326.242 192.491 325.826 185.727 325.076 179.094C324.838 176.993 324.335 174.829 322.99 173.202C321.716 171.778 320.02 170.801 318.15 170.413C316.359 169.943 314.757 170.427 312.869 170.398Z" fill="#5B5583"/>
<path opacity="0.1" d="M312.869 170.398C312.385 171.144 312.385 172.074 312.385 172.95C312.385 177.235 312.429 181.544 313.063 185.785C313.213 186.802 313.402 187.819 313.499 188.845C313.608 190.274 313.631 191.708 313.566 193.14L313.082 211.78C313.024 214.061 312.908 216.511 311.5 218.302C311.073 218.903 310.872 219.635 310.933 220.37C311.301 225.047 312.076 229.685 312.845 234.309C314.084 233.75 315.438 233.492 316.796 233.557C318.153 233.622 319.477 234.007 320.657 234.682C323.099 227.001 324.449 219.014 324.669 210.957C324.78 206.992 324.611 203.002 325.221 199.085C326.242 192.491 325.826 185.727 325.076 179.094C324.838 176.993 324.335 174.829 322.99 173.202C321.716 171.778 320.02 170.801 318.15 170.413C316.359 169.943 314.757 170.427 312.869 170.398Z" fill="black"/>
<path d="M318.784 224.456C315.538 241.096 317.31 258.327 323.875 273.957C324.443 275.114 324.84 276.347 325.056 277.618C325.323 279.99 324.229 282.271 323.604 284.565C322.152 289.785 322.99 295.343 323.919 300.683C324.306 302.911 324.705 305.136 325.114 307.36C325.516 309.529 325.903 311.887 324.897 313.853C325.763 317.465 326.276 321.043 327.142 324.655C327.234 324.94 327.262 325.243 327.225 325.541C327.05 326.013 326.742 326.425 326.339 326.727C325.693 327.382 325.229 328.194 324.992 329.083C324.756 329.971 324.754 330.907 324.989 331.796C327.2 330.208 330.283 330.765 332.81 331.796C335.336 332.827 337.824 334.217 340.554 334.217C340.157 331.012 339.774 327.647 340.955 324.64C341.643 322.897 342.853 321.251 342.819 319.387C342.785 317.717 341.764 316.225 341.517 314.574C341.425 313.547 341.464 312.512 341.633 311.495C342.281 305.569 341.546 299.584 340.81 293.668C340.727 292.501 340.452 291.356 339.997 290.279C339.653 289.581 339.14 288.913 339.15 288.134C339.15 287.228 339.881 286.492 340.152 285.631C340.636 284.043 339.745 281.883 341.086 280.9C344.619 278.305 343.264 272.108 343.187 267.726C343.125 263.946 342.964 260.17 342.703 256.397C344.927 262.654 345.837 269.303 345.374 275.928C345.219 278.097 344.934 280.377 345.781 282.382C346.429 283.922 347.717 285.19 348.065 286.822C348.283 287.829 348.128 288.87 348.176 289.896C348.225 290.923 348.573 292.041 349.459 292.559C349.527 297.227 349.943 302.218 350.016 306.886C349.969 309.272 350.163 311.656 350.596 314.003C350.814 314.749 350.934 315.521 350.955 316.298C350.845 317.272 350.587 318.224 350.19 319.121C349.346 321.619 349.126 324.286 349.548 326.889C349.969 329.492 351.021 331.953 352.61 334.057C353.752 332.029 356.133 330.954 358.456 330.784C360.78 330.615 363.074 331.201 365.324 331.791C364.98 328.962 365.543 326.097 366.931 323.609C367.303 323.048 367.589 322.434 367.778 321.788C368.039 320.559 367.43 319.334 367.1 318.118C366.563 316.182 366.752 314.095 366.878 312.071C367.3 305.293 367 298.489 365.982 291.775C365.825 290.452 365.515 289.152 365.058 287.901C364.884 287.456 364.671 287.03 364.526 286.58C364.297 285.772 364.167 284.94 364.138 284.101L363.582 276.354C363.19 270.926 364.971 265.567 366.215 260.27C366.771 257.897 367.376 255.53 367.749 253.119C368.257 249.836 368.339 246.481 369.085 243.242C369.753 240.337 370.958 237.504 371.209 234.527C371.597 229.913 369.68 225.453 367.822 221.222C367.047 219.479 364.119 219.653 362.236 219.343C348.883 217.15 334.818 217.135 322.225 222.079C320.923 222.618 319.75 223.429 318.784 224.456Z" fill="#3C354C"/>
<path d="M328.41 138.521L329.891 144.282C330.294 145.604 330.517 146.973 330.554 148.354C330.57 148.858 330.458 149.357 330.23 149.807C329.986 150.176 329.674 150.495 329.311 150.746C328.299 151.516 327.597 153.312 326.441 153.845C327.036 154.881 327.859 154.208 328.933 154.726C330.825 155.646 332.558 156.968 334.61 157.423C336.546 157.849 338.579 157.447 340.5 156.939C343.225 156.198 345.936 155.176 348.128 153.39C350.321 151.603 351.569 150.025 351.56 147.202C349.14 147.488 346.986 145.043 345.916 142.844C345.545 142.009 345.273 141.133 345.103 140.235L343.806 134.526C342.393 134.836 341.241 135.848 339.891 136.376C338.54 136.904 336.943 136.952 335.443 137.02C332.779 137.141 330.131 137.484 327.525 138.046C327.167 138.119 326.716 138.346 326.804 138.695" fill="#FBB3B2"/>
<path opacity="0.1" d="M328.41 138.521L329.891 144.282C330.294 145.604 330.517 146.973 330.554 148.354C330.57 148.858 330.458 149.357 330.23 149.807C329.986 150.176 329.674 150.495 329.311 150.746C328.299 151.516 327.597 153.312 326.441 153.845C327.036 154.881 327.859 154.208 328.933 154.726C330.825 155.646 332.558 156.968 334.61 157.423C336.546 157.849 338.579 157.447 340.5 156.939C343.225 156.198 345.936 155.176 348.128 153.39C350.321 151.603 351.569 150.025 351.56 147.202C349.14 147.488 346.986 145.043 345.916 142.844C345.545 142.009 345.273 141.133 345.103 140.235L343.806 134.526C342.393 134.836 341.241 135.848 339.891 136.376C338.54 136.904 336.943 136.952 335.443 137.02C332.779 137.141 330.131 137.484 327.525 138.046C327.167 138.119 326.716 138.346 326.804 138.695" fill="black"/>
<path d="M334.77 141.697C341.848 141.697 347.586 135.957 347.586 128.876C347.586 121.795 341.848 116.055 334.77 116.055C327.692 116.055 321.954 121.795 321.954 128.876C321.954 135.957 327.692 141.697 334.77 141.697Z" fill="#FBB3B2"/>
<path d="M338.298 150.01C338.984 148.529 339.973 147.21 341.202 146.137C343.007 144.553 345.476 143.27 345.902 140.908L349.812 145.464C350.025 145.675 350.19 145.929 350.296 146.209C350.346 146.472 350.338 146.742 350.275 147.002C350.211 147.262 350.093 147.505 349.928 147.715C348.96 149.26 347.436 150.364 345.994 151.482C342.688 154.101 339.523 156.894 336.512 159.848C336.38 160.002 336.202 160.111 336.004 160.158C335.817 160.163 335.633 160.111 335.477 160.008C332.879 158.644 330.58 156.774 328.715 154.508C328.575 154.339 328.401 154.145 328.173 154.159C328.036 154.185 327.91 154.25 327.81 154.348C326.508 155.413 325.085 156.687 323.416 156.522C325.579 154.968 326.803 152.373 327.258 149.744C327.348 148.844 327.533 147.956 327.81 147.095C327.954 146.665 328.201 146.276 328.53 145.964C328.859 145.651 329.26 145.425 329.698 145.304C328.643 146.916 329.364 149.202 330.782 150.504C332.16 151.674 333.812 152.475 335.583 152.833C337.229 153.143 337.713 151.279 338.298 150.01Z" fill="#323444"/>
<path d="M321.625 225.773C323.449 226.223 325.177 226.988 326.949 227.554C330.177 228.566 333.575 228.923 336.943 228.605C337.98 228.582 338.988 228.261 339.847 227.68C340.074 227.496 340.283 227.279 340.525 227.109C340.929 226.866 341.368 226.685 341.826 226.572C346.265 225.182 349.982 222.185 353.587 219.251C353.704 219.154 353.834 219.033 353.825 218.878C353.808 218.773 353.757 218.676 353.679 218.602L351.782 216.423C346.807 217.271 341.71 216.951 336.662 216.825C335.626 216.779 334.588 216.807 333.555 216.908C332.558 217.024 331.576 217.276 330.593 217.489C326.862 218.302 323.048 218.612 319.268 219.144C319.003 219.164 318.747 219.243 318.518 219.377C318.358 219.5 318.222 219.651 318.116 219.822L316.79 221.686C316.275 222.313 315.896 223.04 315.677 223.822C315.367 225.274 316.015 225.758 317.25 225.569C318.708 225.356 320.193 225.425 321.625 225.773Z" fill="#323444"/>
<path d="M336.459 157.631C334.978 156.113 333.3 154.802 331.469 153.733C330.729 153.263 329.909 152.935 329.049 152.765C328.617 152.679 328.171 152.69 327.743 152.795C327.314 152.901 326.915 153.099 326.571 153.375C326.14 153.757 325.869 154.29 325.453 154.692C324.929 155.132 324.329 155.472 323.682 155.694C321.479 156.636 319.39 157.827 317.458 159.243C316.404 159.98 315.455 160.857 314.636 161.848C312.444 164.656 312.114 168.476 312.173 172.04C312.216 174.519 314.592 176.358 316.228 178.213C317.763 180.038 319.151 181.98 320.381 184.023C321.262 185.417 322.181 186.928 322.07 188.589C321.978 189.949 321.184 191.227 321.31 192.583C321.354 193.067 321.509 193.513 321.552 193.982C321.639 194.951 321.257 195.919 321.16 196.887C321.03 198.257 321.475 199.618 321.499 200.998C321.481 201.942 321.361 202.882 321.141 203.801C320.212 208.226 319.045 212.676 319.282 217.193L316.601 217.677C316.855 217.926 317.047 218.232 317.161 218.569C317.275 218.906 317.308 219.265 317.258 219.617C317.207 219.969 317.075 220.305 316.871 220.596C316.667 220.887 316.397 221.127 316.083 221.294C320.27 222.693 324.795 221.987 329.233 221.982C332.907 221.982 336.566 222.466 340.234 222.398C343.903 222.33 347.688 221.667 350.712 219.59C351.535 219.028 352.29 218.37 353.157 217.881C354.317 217.279 355.568 216.87 356.859 216.67C359.252 216.214 361.684 215.997 364.119 216.022C365.31 216.022 366.607 216.07 367.555 215.353C368.601 214.559 368.867 213.121 369.007 211.819C369.148 210.444 369.235 209.064 369.259 207.684C369.3 206.61 369.243 205.534 369.09 204.469C368.944 203.691 368.755 202.922 368.523 202.165L366.699 195.735C365.944 193.082 366.994 190.172 367.216 187.422C367.27 186.773 367.279 186.018 366.781 185.601C366.602 185.451 366.355 185.349 366.297 185.117C366.271 185.007 366.268 184.892 366.288 184.781C366.308 184.669 366.35 184.563 366.413 184.468C367.381 182.532 368.833 180.823 370.159 179.075C372.386 176.009 374.454 172.83 376.354 169.551C375.759 162.69 372.871 156.229 368.155 151.211C367.187 150.16 366.079 149.153 364.724 148.679C363.838 148.408 362.92 148.26 361.994 148.238C358.2 147.981 354.25 147.754 350.945 145.846C350.708 145.682 350.439 145.568 350.156 145.512C349.425 145.43 348.893 146.151 348.418 146.722C347.199 148.175 345.403 149.008 343.825 150.078C340.883 152.077 338.584 154.827 336.459 157.631Z" fill="#5B5583"/>
<path d="M376.683 171.531C377.438 173.923 377.366 176.48 377.613 178.973C377.759 180.478 378.023 181.969 378.401 183.432C378.574 184.237 378.886 185.005 379.321 185.703C379.757 186.342 380.381 186.86 380.657 187.582C380.808 188.07 380.875 188.581 380.855 189.092L380.913 192.433C381.038 194.203 380.768 195.979 380.124 197.633L378.038 203.98C376.911 207.418 375.754 210.909 373.721 213.901C373.435 214.407 373.001 214.814 372.477 215.068C372.068 215.176 371.647 215.241 371.224 215.262C370.486 215.393 369.817 215.778 369.332 216.35C368.847 216.921 368.577 217.644 368.567 218.394C368.082 217.686 367.478 217.068 366.781 216.569L362.536 213.18C361.084 211.998 359.569 210.797 357.808 210.115C360.177 209.375 362.281 207.962 363.863 206.049C365.446 204.136 366.439 201.804 366.723 199.337C366.721 198.603 366.887 197.878 367.207 197.217C367.56 196.645 368.214 196.209 368.262 195.536C368.32 194.689 367.362 194.05 367.362 193.203C367.362 192.641 367.778 192.176 367.962 191.649C368.134 190.996 368.134 190.311 367.962 189.659L367.376 186.405C367.342 186.079 367.243 185.763 367.086 185.475C366.867 185.2 366.624 184.944 366.36 184.71C365.353 183.582 365.798 181.805 366.36 180.416C367.649 177.331 369.31 174.416 371.306 171.735C372.017 170.834 372.674 169.893 373.276 168.917C373.789 168.026 373.905 166.791 374.447 166.012C375.144 167.842 376.088 169.648 376.683 171.531Z" fill="#5B5583"/>
<path d="M357.658 210.313C357.442 210.474 357.255 210.67 357.106 210.894C356.536 211.61 355.776 212.152 354.914 212.458C355.398 212.807 355.838 213.151 356.293 213.504C359.659 216.105 362.741 219.053 365.489 222.301C365.794 221.212 367.618 221.289 368.064 220.248C368.168 219.951 368.202 219.632 368.16 219.319C368.068 217.688 367.835 216.068 367.463 214.477C367.317 213.658 366.986 212.883 366.495 212.211C365.818 211.393 364.763 211.001 363.756 210.662C362.232 210.129 359.207 209.379 357.658 210.313Z" fill="#323444"/>
<path d="M351.608 214.119C350.156 215.194 348.883 216.54 347.252 217.276C346.1 217.799 344.788 218.026 343.782 218.806C344.329 220.011 345.752 220.636 347.073 220.587C348.395 220.457 349.663 219.993 350.756 219.237C351.622 218.704 352.639 218.084 353.583 218.457C353.728 219.193 353.099 219.885 353.099 220.631C353.099 221.377 353.718 221.919 354.328 222.311C357.232 224.185 360.968 224.03 364.429 223.812C364.627 223.819 364.823 223.761 364.985 223.647C365.06 223.56 365.117 223.458 365.153 223.349C365.189 223.239 365.202 223.123 365.193 223.008C365.237 222.243 365.256 221.483 365.261 220.718C365.359 220.101 365.279 219.469 365.03 218.896C364.782 218.324 364.375 217.834 363.858 217.484C361.98 215.869 359.954 214.434 357.808 213.199C355.678 211.964 353.52 212.695 351.608 214.119Z" fill="#FBB3B2"/>
<path d="M339.271 123.516C337.122 123.773 335.559 125.453 335.777 127.278C335.994 129.104 337.911 130.363 340.06 130.101C342.209 129.84 343.772 128.164 343.554 126.344C343.336 124.523 341.42 123.26 339.271 123.516ZM340.002 129.598C338.182 129.815 336.561 128.745 336.372 127.206C336.183 125.666 337.514 124.243 339.329 124.025C341.144 123.807 342.77 124.877 342.959 126.417C343.148 127.956 341.817 129.38 340.002 129.598Z" fill="#3C354C"/>
<path d="M328.797 124.775C326.649 125.032 325.085 126.712 325.303 128.532C325.521 130.353 327.437 131.616 329.586 131.36C331.735 131.103 333.299 129.423 333.081 127.598C332.863 125.773 330.946 124.519 328.797 124.775ZM329.528 130.851C327.709 131.069 326.087 129.999 325.903 128.464C325.719 126.93 327.041 125.501 328.86 125.279C330.68 125.056 332.302 126.131 332.485 127.67C332.669 129.21 331.343 130.634 329.528 130.851Z" fill="#3C354C"/>
<path d="M321.02 125.71L325.69 126.707L325.23 127.937L320.826 126.644L321.02 125.71Z" fill="#3C354C"/>
<path d="M347.054 122.582L342.746 124.659L343.487 125.743L347.46 123.444L347.054 122.582Z" fill="#3C354C"/>
<path d="M332.65 126.397L335.927 126.005L335.757 126.818L332.945 127.007L332.65 126.397Z" fill="#3C354C"/>
<path d="M326.295 125.298C326.604 124.635 326.769 123.914 326.779 123.182C326.791 122.744 326.866 122.311 327.002 121.894C327.24 121.366 327.602 120.902 328.057 120.544C329.567 119.265 331.73 118.607 333.865 118.515C336.192 118.408 338.507 118.908 340.583 119.967C341.217 120.265 341.784 120.686 342.252 121.207C342.93 122.035 343.075 123.105 343.758 123.923C344.223 124.42 344.809 124.787 345.459 124.991C346.108 125.194 346.799 125.227 347.465 125.085C347.702 124.243 347.392 123.352 347.513 122.49C347.704 121.751 347.962 121.032 348.283 120.34C349.033 118.128 347.939 115.561 345.684 114.24C344.895 113.756 343.961 113.441 343.37 112.787C342.78 112.134 342.64 111.456 342.233 110.802C341.154 109.074 338.361 108.265 336.236 109.064C335.568 109.316 334.978 109.698 334.3 109.969C333.042 110.487 331.609 110.579 330.225 110.754C328.861 110.88 327.527 111.23 326.276 111.79C325.08 112.38 324.079 113.329 323.803 114.462C323.672 114.985 323.701 115.528 323.57 116.046C322.903 118.675 318.59 119.953 318.348 122.635C318.261 123.603 318.789 124.533 319.447 125.322C319.902 125.86 320.991 127.298 321.76 127.506C322.53 127.714 323.115 126.983 323.851 126.731C325.013 126.368 325.714 126.291 326.295 125.298Z" fill="#CBCEDA"/>
<path d="M380.894 295.827C380.894 320.152 396.149 339.838 415.001 339.838L380.894 295.827Z" fill="#46455B"/>
<path d="M415.001 339.843C415.001 315.242 432.027 295.338 453.066 295.338L415.001 339.843Z" fill="#1A5C80"/>
<path d="M393.255 298.035C393.255 321.144 402.983 339.843 415.001 339.843L393.255 298.035Z" fill="#1A5C80"/>
<path d="M415.001 339.843C415.001 308.411 434.68 282.973 458.995 282.973L415.001 339.843Z" fill="#46455B"/>
<path opacity="0.1" d="M413.524 348.248C418.207 348.248 422.004 347.606 422.004 346.815C422.004 346.023 418.207 345.382 413.524 345.382C408.841 345.382 405.045 346.023 405.045 346.815C405.045 347.606 408.841 348.248 413.524 348.248Z" fill="#1A5C80"/>
<path d="M407.828 340.153C407.828 340.153 412.668 340.003 414.12 338.967C415.572 337.931 421.559 336.686 421.922 338.352C422.285 340.017 429.181 346.636 423.727 346.679C418.272 346.723 411.037 345.827 409.585 344.941C408.133 344.055 407.828 340.153 407.828 340.153Z" fill="#A8A8A8"/>
<path opacity="0.2" d="M423.829 346.098C418.369 346.142 411.143 345.246 409.686 344.36C408.578 343.687 408.138 341.262 407.988 340.148H407.828C407.828 340.148 408.133 344.05 409.59 344.936C411.046 345.822 418.272 346.718 423.732 346.675C425.31 346.675 425.852 346.098 425.823 345.27C425.605 345.774 425.029 346.089 423.829 346.098Z" fill="black"/>
<path d="M10.8849 310.042C10.8849 329.409 23.0185 345.058 38.0173 345.058L10.8849 310.042Z" fill="#46455B"/>
<path d="M38.0173 345.057C38.0173 325.487 51.569 309.65 68.3004 309.65L38.0173 345.057Z" fill="#1A5C80"/>
<path d="M20.7147 311.805C20.7147 330.203 28.4585 345.067 38.0173 345.067L20.7147 311.805Z" fill="#1A5C80"/>
<path d="M38.0173 345.058C38.0173 320.05 53.6743 299.812 73.0193 299.812L38.0173 345.058Z" fill="#46455B"/>
<path opacity="0.1" d="M36.8412 351.749C40.5674 351.749 43.588 351.237 43.588 350.606C43.588 349.975 40.5674 349.463 36.8412 349.463C33.1151 349.463 30.0944 349.975 30.0944 350.606C30.0944 351.237 33.1151 351.749 36.8412 351.749Z" fill="#1A5C80"/>
<path d="M32.311 345.304C32.311 345.304 36.1587 345.183 37.3155 344.336C38.4722 343.489 43.2395 342.52 43.525 343.852C43.8106 345.183 49.3087 350.441 44.977 350.475C40.6453 350.509 34.881 349.798 33.7243 349.095C32.5675 348.393 32.311 345.304 32.311 345.304Z" fill="#A8A8A8"/>
<path opacity="0.2" d="M45.0399 350.054C40.684 350.088 34.9439 349.376 33.7872 348.669C32.9063 348.137 32.5579 346.205 32.4369 345.319H32.311C32.311 345.319 32.553 348.422 33.7098 349.129C34.8665 349.836 40.6211 350.543 44.9625 350.509C46.216 350.509 46.6516 350.054 46.6274 349.391C46.4532 349.778 45.974 350.025 45.0399 350.054Z" fill="black"/>
</g>
<defs>
<clipPath id="clip0">
<rect width="459" height="367" fill="white"/>
</clipPath>
</defs>
</svg>
