<svg width="556" height="390" viewBox="0 0 556 390" fill="none" xmlns="http://www.w3.org/2000/svg">
<g opacity="0.5" clip-path="url(#clip0)">
<path opacity="0.1" d="M555.475 278.755C554.602 285.457 553.16 292.073 551.164 298.529C549.25 304.737 546.797 310.766 543.835 316.546C543.835 356.723 511.71 389.289 472.075 389.289H106.073C82.4097 389.29 59.6869 380.009 42.7692 363.433C42.9248 363.389 43.0851 363.345 43.2552 363.311C77.0138 354.342 112.634 351.245 141.916 329.941C102.014 323.309 62.3459 315.078 22.9107 305.249C20.4806 304.635 17.7201 303.715 14.8866 302.751C14.7554 300.725 14.6825 298.685 14.6825 296.63C14.5027 296.304 14.3277 295.978 14.1527 295.656C13.3816 294.218 12.6396 292.757 11.9268 291.274C4.6706 276.179 0.524902 258.693 0.524902 240.034C0.524902 210.608 10.843 184.036 27.3772 165.294C138.611 174.512 250.511 170.607 362.08 166.672C329.459 160.18 296.841 153.678 264.226 147.166C211.034 136.567 157.841 125.961 104.649 115.35C138.597 67.2989 198.508 35.3901 266.754 35.3901C314.781 35.3901 358.678 51.1911 392.31 77.3005C404.675 69.0665 418.91 64.3676 434.059 64.3676C465.601 64.3676 493.173 84.6873 508.147 115.009C515.719 130.347 520.064 148.237 520.064 167.344C520.064 170.753 519.923 174.161 519.646 177.516C519.646 177.716 519.617 177.911 519.598 178.115C529.998 186.783 538.722 198.128 545.07 211.319C545.147 211.48 545.225 211.641 545.298 211.806C546.409 214.134 547.443 216.513 548.399 218.945H548.306C544.224 219.85 540.146 220.774 536.073 221.715C492.173 231.876 448.68 244.189 405.593 258.654C393.242 262.803 380.93 267.124 368.656 271.616C358.294 275.415 344.968 284.019 334.227 284.764C407.664 279.826 481.688 287.023 554.785 278.823L555.475 278.755Z" fill="#1A5C80"/>
<path opacity="0.1" d="M556 261.59C556 226.565 541.39 195.625 519.063 177.025C519.371 173.486 519.533 169.897 519.549 166.258C519.549 109.385 481.037 63.2865 433.524 63.2865C418.371 63.2865 404.135 67.9806 391.771 76.2146C358.139 50.1052 314.237 34.314 266.209 34.314C188.087 34.314 120.842 76.1416 91.0207 136.146C89.3633 136.034 87.6963 135.971 86.0147 135.971C38.5117 135.971 -0.00976562 182.074 -0.00976562 238.943C-0.00976562 259.852 5.2003 279.3 14.143 295.539C14.143 346.706 55.0605 388.188 105.514 388.188H471.55C511.18 388.188 543.305 355.622 543.305 315.445C551.354 299.776 556 281.336 556 261.59Z" fill="#1A5C80"/>
<path d="M193.783 264.303C193.929 266.251 194.474 268.564 196.306 269.236C197.191 269.486 198.131 269.471 199.008 269.192C201.315 268.692 203.412 267.489 205.01 265.749C206.541 263.967 207.304 261.449 206.663 259.195C206.046 257.043 204.315 255.431 203.095 253.561C201.667 251.375 201.21 248.896 200.218 246.554C192.35 247.309 193.341 258.455 193.783 264.303Z" fill="#FBBEBE"/>
<path d="M185.516 170.427C184.471 173.835 188.18 177.551 189.375 180.901C190.571 184.251 192.18 187.469 192.821 190.98C193.268 193.391 193.244 195.85 193.414 198.284C193.74 202.886 194.755 207.405 195.844 211.879C197.38 218.346 199.026 224.783 200.782 231.191C201.656 234.105 202.342 237.072 202.838 240.073C203.296 243.318 203.284 246.613 202.804 249.855C199.719 248.929 196.396 249.235 193.531 250.708C191.527 247.185 190.324 243.263 190.007 239.221C189.885 236.824 189.906 234.423 190.07 232.029C190.381 225.256 187.451 218.473 187.353 211.69C187.383 209.34 187.198 206.993 186.799 204.678C186.483 203.085 186.513 200.105 186.168 198.523C185.613 196.001 187.98 194.837 187.849 192.251L187.13 178.13C186.984 175.676 184.505 172.647 185.516 170.427Z" fill="#3F3D56"/>
<path opacity="0.1" d="M185.516 170.427C184.471 173.835 188.18 177.551 189.375 180.901C190.571 184.251 192.18 187.469 192.821 190.98C193.268 193.391 193.244 195.85 193.414 198.284C193.74 202.886 194.755 207.405 195.844 211.879C197.38 218.346 199.026 224.783 200.782 231.191C201.656 234.105 202.342 237.072 202.838 240.073C203.296 243.318 203.284 246.613 202.804 249.855C199.719 248.929 196.396 249.235 193.531 250.708C191.527 247.185 190.324 243.263 190.007 239.221C189.885 236.824 189.906 234.423 190.07 232.029C190.381 225.256 187.451 218.473 187.353 211.69C187.383 209.34 187.198 206.993 186.799 204.678C186.483 203.085 186.513 200.105 186.168 198.523C185.613 196.001 187.98 194.837 187.849 192.251L187.13 178.13C186.984 175.676 184.505 172.647 185.516 170.427Z" fill="black"/>
<path d="M150.033 159.495C150.222 160.323 150.605 161.094 151.15 161.745C156.071 168.627 161.678 174.99 167.884 180.735C168.519 180.08 169.05 179.331 169.459 178.515C172.276 173.353 173.684 167.538 173.541 161.657C170.732 160.752 167.544 159.486 166.645 156.671C165.93 154.451 166.888 151.802 165.634 149.825C163.85 147.035 156.278 146.679 153.848 148.705C152.254 150.029 152.822 151.266 152.317 153.058C151.758 155.025 149.722 157.401 150.033 159.495Z" fill="#FBBEBE"/>
<path opacity="0.1" d="M150.033 159.495C150.222 160.323 150.605 161.094 151.15 161.745C156.071 168.627 161.678 174.99 167.884 180.735C168.519 180.08 169.05 179.331 169.459 178.515C172.276 173.353 173.684 167.538 173.541 161.657C170.732 160.752 167.544 159.486 166.645 156.671C165.93 154.451 166.888 151.802 165.634 149.825C163.85 147.035 156.278 146.679 153.848 148.705C152.254 150.029 152.822 151.266 152.317 153.058C151.758 155.025 149.722 157.401 150.033 159.495Z" fill="black"/>
<path d="M152.56 384.58C153.354 385.147 154.263 385.53 155.223 385.7C164.466 387.982 174.014 388.77 183.504 388.033C184.773 387.93 186.464 387.254 186.153 386.017C185.862 384.863 184.209 384.941 183.091 384.595C182.037 384.274 181.244 383.421 180.457 382.647C177.541 379.726 174.013 377.515 170.533 375.304C169.687 374.694 168.741 374.236 167.738 373.951C166.538 373.678 165.284 373.907 164.069 374.141C161.007 374.72 155.17 374.627 152.745 376.892C150.805 378.693 150.523 382.793 152.56 384.58Z" fill="#3F3D56"/>
<path d="M188.087 382.151C188.087 382.905 188.175 383.753 188.748 384.235C189.207 384.554 189.761 384.705 190.318 384.663C192.297 384.648 194.235 384.098 195.927 383.069C197.618 382.04 199 380.572 199.927 378.82L213.535 377.228C216.111 376.926 218.735 376.609 221.102 375.543C223.897 374.277 226.128 372.052 228.29 369.875C228.671 369.551 228.961 369.133 229.131 368.663C229.355 367.806 228.704 366.905 227.882 366.564C227.034 366.281 226.127 366.231 225.253 366.418C218.609 367.338 211.941 370.313 205.438 368.658C203.849 368.253 202.269 367.567 200.631 367.684C199.749 367.796 198.886 368.027 198.065 368.37C195.951 369.149 189.628 370.255 188.228 372.047C186.829 373.839 188.087 380.008 188.087 382.151Z" fill="#3F3D56"/>
<path d="M153.673 229.911C151.729 232.945 147.632 233.607 144.769 235.783C140.37 239.129 139.627 245.361 139.374 250.878C139.204 254.696 139.097 258.572 139.943 262.302C140.536 264.897 141.576 267.371 142.373 269.917C144.074 275.454 144.55 281.287 144.803 287.072C145.469 301.68 144.876 316.381 146.747 330.896C147.286 335.05 148.02 339.174 148.429 343.342C149.77 357.132 147.495 371.351 151.184 384.702C153.153 382.563 155.536 380.847 158.186 379.657C160.837 378.468 163.701 377.83 166.606 377.783C167.821 377.783 169.089 377.856 170.207 377.364C171.325 376.872 172.209 375.567 171.743 374.443C171.463 373.952 171.138 373.489 170.771 373.06C169.162 370.625 171.893 367.182 170.727 364.499C170.275 363.467 169.298 362.703 169.011 361.617C168.705 360.438 169.298 359.231 169.463 358.023C169.794 355.589 168.399 353.319 167.675 350.987C166.581 347.457 167.019 343.683 167.398 339.987C168.651 327.911 169.201 315.773 169.045 303.633C168.943 295.418 168.535 287.028 170.897 279.159C175.316 283.334 179.101 288.135 182.134 293.407C184.019 296.626 185.648 300.063 186.275 303.745C186.731 306.447 186.644 309.208 186.552 311.945C186.085 325.952 185.617 339.96 185.147 353.967C184.865 362.44 184.622 371.161 187.553 379.107C195.003 375.134 202.619 371.317 210.07 367.319C209.948 364.568 206.255 363.56 204.894 361.169C204.406 360.168 204.14 359.073 204.116 357.96C203.173 346.575 205.492 335.201 207.635 323.982C208.451 319.706 209.248 315.397 209.244 311.049C209.244 304.144 207.227 297.415 205.142 290.836C202.935 283.868 200.627 276.929 198.337 269.99C196.879 265.535 195.373 261.075 193.516 256.76C191.766 252.68 189.686 248.741 188.194 244.587C185.798 237.877 184.977 230.724 184.175 223.649C174.046 225.64 163.787 227.885 153.673 229.911Z" fill="#2F2E41"/>
<path d="M158.761 154.777C166.605 154.777 172.963 148.407 172.963 140.549C172.963 132.69 166.605 126.32 158.761 126.32C150.918 126.32 144.56 132.69 144.56 140.549C144.56 148.407 150.918 154.777 158.761 154.777Z" fill="#FBBEBE"/>
<path d="M164.074 174.95L163.043 167.247C163.046 166.394 162.818 165.556 162.386 164.822C161.953 164.088 161.33 163.484 160.584 163.074L150.689 155.828C150.203 155.458 149.532 155.069 148.968 155.341C148.618 155.578 148.372 155.941 148.283 156.354C146.718 160.98 147.685 166.025 148.229 170.879C148.691 174.926 148.847 179.002 149.002 183.053C149.219 186.733 149.209 190.423 148.973 194.101C148.438 200.47 146.543 206.878 147.812 213.145C148.647 217.289 150.12 221.141 150.465 225.358C150.703 228.279 150.63 231.25 151.554 234.015C154.956 232.555 158.805 232.715 162.504 232.91L171.48 233.397C172.725 233.512 173.979 233.482 175.218 233.309C176.602 233.019 177.927 232.499 179.14 231.771C182.327 229.967 185.114 227.532 187.329 224.613C185.813 217.275 187.286 209.698 186.275 202.272C185.696 197.992 184.248 193.868 183.568 189.612C182.732 184.358 183.057 178.899 181.555 173.796C180.705 171.208 179.625 168.702 178.328 166.307C177.014 163.584 174.844 161.369 172.151 160.001C171.652 159.733 171.094 159.591 170.528 159.587C169.099 159.67 168.214 161.189 167.816 162.572C167.33 164.228 167.194 165.981 166.815 167.641C166.27 170.071 165.483 172.9 164.074 174.95Z" fill="#1A5C80"/>
<path d="M134.966 266.738C136.857 268.744 140.312 268.252 142.509 266.601C147.291 263.013 147.734 256.142 147.996 250.163C148.093 248.02 148.239 245.78 149.245 243.901C150.781 241.003 153.964 239.474 156.608 237.531C162.878 232.935 166.557 225.358 167.66 217.674C168.763 209.99 167.495 202.092 165.376 194.608C161.711 181.67 155.539 169.609 149.274 157.718C149.087 157.275 148.787 156.889 148.404 156.598C147.131 155.809 145.751 157.372 144.876 158.595C141.926 162.734 137.066 164.954 132.614 167.403C128.162 169.853 123.613 173.115 122.267 178.018C121.363 181.305 122.067 184.801 122.753 188.137C123.438 191.472 125.878 194.121 127.671 196.95C129.773 200.049 131.668 203.285 133.343 206.636C133.975 207.885 134.464 209.201 134.801 210.56C135.095 212.166 135.223 213.798 135.185 215.43C135.287 225.519 135.389 235.642 134.174 245.658C133.484 251.326 132.376 257.014 132.881 262.701C133.003 264.23 133.887 265.608 134.966 266.738Z" fill="#3F3D56"/>
<path d="M146.971 247.932C148.993 248.838 151.039 249.778 153.226 250.138C155.413 250.499 157.809 250.206 159.544 248.848C161.279 247.489 162.193 244.918 161.201 242.932C162.76 242.981 164.32 242.906 165.867 242.708C166.756 242.596 167.835 242.255 167.971 241.369C168.127 240.336 166.883 239.713 165.877 239.421L160.453 237.926C157.904 236.978 155.14 236.768 152.477 237.322L144.215 238.588C143.996 238.605 143.783 238.672 143.593 238.783C143.346 238.995 143.176 239.283 143.107 239.601C142.708 240.862 140.866 244.388 141.498 245.644C142.062 246.72 145.838 247.363 146.971 247.932Z" fill="#FBBEBE"/>
<path d="M198.78 253.269C198.286 254.376 197.559 255.363 196.649 256.162C195.738 256.961 194.667 257.554 193.506 257.9C193.001 258.076 192.456 258.112 191.932 258.002C190.96 257.729 190.425 256.712 190.022 255.786C180.399 233.835 180.938 208.851 174.814 185.668C172.997 178.787 170.567 171.873 171.009 164.769C171.087 163.498 171.354 162.066 172.413 161.36C173.356 160.727 174.639 160.897 175.67 161.36C176.7 161.823 177.614 162.577 178.586 163.094C180.195 163.916 182.066 164.15 183.611 165.08C185.905 166.458 187.081 169.093 188.107 171.566C190.299 176.845 192.481 182.279 192.651 188.005C193.025 199.127 188.102 209.815 190.663 220.63C191.174 222.772 191.927 224.851 192.646 226.931C195.221 234.39 197.331 242.003 198.964 249.724C199.232 251.048 199.29 252.056 198.78 253.269Z" fill="#3F3D56"/>
<path d="M149.551 141.8C150.402 140.422 151.583 139.21 152.04 137.656C152.365 136.551 152.297 135.353 152.691 134.248C153.663 131.58 157.036 130.596 159.83 131.054C162.625 131.511 165.138 133.001 167.869 133.746C169.381 134.165 171.48 134.039 171.908 132.524C172.19 131.521 171.514 130.528 170.873 129.705L162.815 119.401C161.755 119.674 160.569 119.927 159.607 119.401C159.053 119.095 158.635 118.554 158.018 118.379C156.341 117.892 154.936 120.477 153.255 120.029C152.769 119.903 152.385 119.542 151.899 119.504C150.543 119.392 150.032 121.641 148.676 121.753C148.113 121.802 147.568 121.442 147.009 121.495C146.509 121.596 146.062 121.874 145.751 122.279C143.053 125.147 141.96 129.262 142.106 133.196C142.251 137.131 141.576 140.948 143.078 144.581C143.739 146.168 145.08 148.038 146.708 147.502C146.708 145.36 148.701 143.222 148.725 141.08" fill="#2F2E41"/>
<g opacity="0.1">
<path opacity="0.1" d="M176.992 285.825C174.101 281.034 170.575 276.659 166.508 272.819C164.146 280.688 164.564 289.078 164.657 297.293C164.813 309.433 164.262 321.571 163.009 333.647C162.625 337.324 162.193 341.117 163.286 344.647C164.01 346.979 165.405 349.258 165.075 351.683C164.909 352.891 164.316 354.118 164.623 355.277C164.909 356.363 165.886 357.127 166.338 358.159C167.505 360.842 164.773 364.275 166.382 366.72C166.749 367.149 167.074 367.612 167.354 368.103C167.84 369.232 166.936 370.537 165.818 371.024C164.7 371.511 163.432 371.428 162.217 371.443C157.617 371.52 153.164 373.075 149.512 375.879C149.833 378.856 150.387 381.803 151.17 384.692C153.139 382.553 155.521 380.837 158.172 379.648C160.823 378.458 163.687 377.82 166.591 377.773C167.806 377.773 169.075 377.846 170.192 377.354C171.31 376.863 172.195 375.558 171.728 374.433C171.448 373.942 171.123 373.479 170.756 373.05C169.147 370.615 171.879 367.173 170.712 364.49C170.26 363.457 169.284 362.693 168.997 361.607C168.691 360.429 169.284 359.221 169.449 358.013C169.779 355.579 168.384 353.31 167.66 350.977C166.567 347.447 166.999 343.673 167.383 339.977C168.637 327.901 169.187 315.763 169.031 303.623C168.929 295.408 168.52 287.018 170.882 279.149C173.083 281.219 175.125 283.45 176.992 285.825Z" fill="black"/>
</g>
<g opacity="0.1">
<path opacity="0.1" d="M142.12 133.649C142.12 132.982 142.12 132.31 142.12 131.633C142.091 132.154 142.091 132.675 142.12 133.191C142.115 133.357 142.115 133.508 142.12 133.649Z" fill="black"/>
<path opacity="0.1" d="M167.869 131.823C165.138 131.073 162.62 129.593 159.831 129.13C157.041 128.668 153.653 129.656 152.691 132.324C152.297 133.405 152.365 134.603 152.04 135.733C151.583 137.286 150.402 138.499 149.551 139.877L148.75 139.166C148.725 141.308 146.757 143.446 146.733 145.589C145.104 146.119 143.763 144.249 143.102 142.667C142.42 140.92 142.077 139.059 142.091 137.184C142.047 139.731 142.091 142.209 143.102 144.615C143.763 146.202 145.104 148.072 146.733 147.536C146.733 145.394 148.725 143.256 148.75 141.114L149.551 141.825C150.402 140.447 151.583 139.234 152.04 137.681C152.365 136.575 152.297 135.378 152.691 134.272C153.663 131.604 157.036 130.62 159.831 131.078C162.625 131.536 165.138 133.026 167.869 133.771C169.381 134.189 171.48 134.063 171.908 132.548C172.031 132.037 171.963 131.499 171.719 131.034C171.043 132.13 169.22 132.188 167.869 131.823Z" fill="black"/>
</g>
<path d="M121.936 192.524C121.521 195.494 120.924 198.436 120.148 201.333L116.745 215.225C116.381 216.686 116.016 218.224 116.177 219.739C116.4 221.779 117.557 223.585 118.728 225.27C125.389 234.843 133.522 243.297 142.825 250.318C142.285 247.543 144.205 244.962 146.008 242.78C147.811 240.599 149.571 238.51 151.928 237.098C146.025 231.54 140.312 225.786 134.791 219.836C134.209 219.257 133.709 218.602 133.304 217.888C131.972 215.312 133.304 212.235 134.461 209.576C138.12 201.109 139.851 191.496 137.503 182.576C136.619 179.221 135.073 175.871 132.259 173.811C131.029 172.91 129.343 172.302 128.002 172.978C127.429 173.31 126.933 173.758 126.543 174.293C122.174 179.644 122.694 186.048 121.936 192.524Z" fill="#3F3D56"/>
<path d="M124.789 388.992C132.637 388.992 139 387.767 139 386.256C139 384.744 132.637 383.519 124.789 383.519C116.94 383.519 110.578 384.744 110.578 386.256C110.578 387.767 116.94 388.992 124.789 388.992Z" fill="#1A5C80"/>
<path d="M124.551 387.263C125.464 387.263 126.203 386.291 126.203 385.092C126.203 383.892 125.464 382.92 124.551 382.92C123.638 382.92 122.898 383.892 122.898 385.092C122.898 386.291 123.638 387.263 124.551 387.263Z" fill="#3F3D56"/>
<path d="M124.551 384.61C125.464 384.61 126.203 383.637 126.203 382.438C126.203 381.238 125.464 380.266 124.551 380.266C123.638 380.266 122.898 381.238 122.898 382.438C122.898 383.637 123.638 384.61 124.551 384.61Z" fill="#3F3D56"/>
<path d="M124.551 381.961C125.464 381.961 126.203 380.988 126.203 379.789C126.203 378.59 125.464 377.617 124.551 377.617C123.638 377.617 122.898 378.59 122.898 379.789C122.898 380.988 123.638 381.961 124.551 381.961Z" fill="#3F3D56"/>
<path d="M124.551 379.307C125.464 379.307 126.203 378.335 126.203 377.135C126.203 375.936 125.464 374.963 124.551 374.963C123.638 374.963 122.898 375.936 122.898 377.135C122.898 378.335 123.638 379.307 124.551 379.307Z" fill="#3F3D56"/>
<path d="M124.551 376.653C125.464 376.653 126.203 375.681 126.203 374.481C126.203 373.282 125.464 372.31 124.551 372.31C123.638 372.31 122.898 373.282 122.898 374.481C122.898 375.681 123.638 376.653 124.551 376.653Z" fill="#3F3D56"/>
<path d="M124.551 374.004C125.464 374.004 126.203 373.032 126.203 371.832C126.203 370.633 125.464 369.661 124.551 369.661C123.638 369.661 122.898 370.633 122.898 371.832C122.898 373.032 123.638 374.004 124.551 374.004Z" fill="#3F3D56"/>
<path d="M124.551 371.35C125.464 371.35 126.203 370.378 126.203 369.179C126.203 367.979 125.464 367.007 124.551 367.007C123.638 367.007 122.898 367.979 122.898 369.179C122.898 370.378 123.638 371.35 124.551 371.35Z" fill="#3F3D56"/>
<path d="M130.738 351.031C130.965 350.742 131.171 350.438 131.355 350.12L127.01 349.404L131.71 349.438C132.16 348.455 132.406 347.39 132.432 346.308C132.458 345.227 132.263 344.151 131.86 343.147L125.542 346.424L131.374 342.144C130.831 341.197 130.098 340.373 129.223 339.723C128.347 339.072 127.346 338.61 126.284 338.364C125.222 338.119 124.12 338.096 123.049 338.296C121.977 338.496 120.958 338.916 120.056 339.529C119.153 340.141 118.387 340.934 117.804 341.857C117.221 342.78 116.834 343.814 116.668 344.893C116.502 345.973 116.56 347.075 116.838 348.131C117.117 349.187 117.61 350.174 118.286 351.031C117.932 351.483 117.628 351.973 117.382 352.491L123.025 355.413L117.008 353.392C116.585 354.643 116.481 355.98 116.704 357.282C116.927 358.584 117.471 359.809 118.286 360.847C117.366 362.019 116.793 363.426 116.633 364.908C116.474 366.39 116.733 367.887 117.383 369.228C118.033 370.569 119.046 371.7 120.307 372.491C121.569 373.282 123.026 373.702 124.514 373.702C126.002 373.702 127.46 373.282 128.721 372.491C129.982 371.7 130.996 370.569 131.645 369.228C132.295 367.887 132.555 366.39 132.395 364.908C132.236 363.426 131.663 362.019 130.743 360.847C131.842 359.448 132.439 357.719 132.439 355.939C132.439 354.159 131.842 352.43 130.743 351.031H130.738Z" fill="#1A5C80"/>
<path opacity="0.1" d="M116.59 355.939C116.586 357.72 117.184 359.45 118.286 360.848C117.366 362.019 116.793 363.426 116.633 364.908C116.474 366.39 116.733 367.887 117.383 369.229C118.033 370.57 119.046 371.7 120.307 372.491C121.569 373.283 123.026 373.702 124.514 373.702C126.002 373.702 127.46 373.283 128.721 372.491C129.982 371.7 130.996 370.57 131.645 369.229C132.295 367.887 132.555 366.39 132.395 364.908C132.236 363.426 131.663 362.019 130.743 360.848C131.807 359.499 116.59 355.048 116.59 355.939Z" fill="black"/>
<path d="M447.225 390.005C458.018 390.005 466.768 388.523 466.768 386.694C466.768 384.865 458.018 383.383 447.225 383.383C436.432 383.383 427.683 384.865 427.683 386.694C427.683 388.523 436.432 390.005 447.225 390.005Z" fill="#1A5C80"/>
<path d="M455.308 381.279C456.199 380.552 456.848 379.57 457.169 378.465C457.412 377.345 456.936 376.001 455.867 375.592C454.671 375.134 453.393 375.967 452.426 376.804C451.458 377.642 450.345 378.601 449.082 378.421C449.733 377.828 450.22 377.077 450.496 376.24C450.772 375.403 450.827 374.509 450.656 373.644C450.601 373.286 450.45 372.949 450.219 372.67C449.553 371.959 448.353 372.266 447.556 372.826C445.028 374.603 444.324 378.046 444.309 381.138C444.056 380.023 444.27 378.859 444.265 377.729C444.261 376.6 443.945 375.295 442.977 374.701C442.381 374.378 441.711 374.218 441.033 374.238C439.901 374.194 438.632 374.311 437.86 375.144C436.888 376.176 437.145 377.91 437.981 379.039C438.817 380.169 440.095 380.895 441.272 381.678C442.212 382.241 443.015 383.008 443.619 383.923C443.692 384.051 443.75 384.187 443.794 384.327H450.919C452.512 383.514 453.989 382.489 455.308 381.279Z" fill="#1A5C80"/>
<path d="M356.613 202.555L357.036 201.61L356.472 201.357L356.049 202.302L353.838 204.712L356.292 205.812L356.613 202.555Z" fill="#3F3D56"/>
<path d="M359.062 203.685L359.495 202.716L358.917 202.453L358.484 203.422L356.214 205.895L358.732 207.025L359.062 203.685Z" fill="#3F3D56"/>
<path d="M361.521 204.756L361.944 203.811L361.376 203.558L360.953 204.503L358.741 206.913L361.196 208.014L361.521 204.756Z" fill="#3F3D56"/>
<path d="M378.994 212.625L379.426 211.656L378.848 211.393L378.415 212.362L376.146 214.835L378.663 215.965L378.994 212.625Z" fill="#3F3D56"/>
<path d="M381.511 213.754L381.944 212.785L381.365 212.522L380.928 213.491L378.663 215.965L381.181 217.095L381.511 213.754Z" fill="#3F3D56"/>
<path d="M384.024 214.879L384.461 213.91L383.878 213.652L383.445 214.621L381.181 217.094L383.693 218.224L384.024 214.879Z" fill="#3F3D56"/>
<path d="M367.577 207.502L368.01 206.533L367.431 206.27L366.999 207.244L364.729 209.717L367.247 210.842L367.577 207.502Z" fill="#3F3D56"/>
<path d="M370.095 208.632L370.527 207.663L369.944 207.4L369.512 208.369L367.247 210.843L369.76 211.972L370.095 208.632Z" fill="#3F3D56"/>
<path d="M372.608 209.756L373.04 208.787L372.462 208.529L372.029 209.498L369.76 211.972L372.277 213.102L372.608 209.756Z" fill="#3F3D56"/>
<path d="M395.338 138.616C396.758 135.246 395.382 127.582 393.268 126.632C391.154 125.683 384.719 129.846 383.154 133.152L383.057 133.103L353.08 200.183L365.366 205.715L395.343 138.616H395.338Z" fill="#ECECF3"/>
<path d="M417.787 148.685C419.202 145.316 417.831 137.651 415.712 136.702C413.593 135.752 407.168 139.916 405.603 143.222L405.501 143.173L375.524 210.253L387.839 215.765L417.817 148.685H417.787Z" fill="#ECECF3"/>
<path d="M420.349 112.282C422.463 107.354 422.293 96.9535 420.193 96.004C418.094 95.0545 410.424 101.954 408.164 106.819L408.067 106.77L364.107 205.131L376.394 210.643L420.354 112.282H420.349Z" fill="white"/>
<path d="M418.979 101.972C419.267 101.329 418.98 100.575 418.34 100.287C417.699 100 416.947 100.288 416.659 100.931L415.448 103.642C415.16 104.286 415.447 105.04 416.087 105.327C416.728 105.615 417.48 105.326 417.768 104.683L418.979 101.972Z" fill="#3F3D56"/>
<path opacity="0.3" d="M321.824 218.292L334.305 219.977C336.322 220.25 338.47 220.503 340.322 219.656C343.388 218.249 344.555 214.363 347.379 212.522C350.562 210.443 355.213 211.763 357.434 214.85C358.017 215.668 358.479 216.598 359.276 217.207C362.469 219.641 367.538 215.064 370.882 217.323C372.549 218.458 373.074 220.995 374.979 221.667C376.238 222.11 377.628 221.535 378.96 221.643C382.289 221.91 383.791 226.191 383.091 229.463C382.391 232.735 380.369 235.627 379.825 238.924C379.281 242.22 381.254 246.428 384.583 246.228" fill="white"/>
<path opacity="0.1" d="M396.101 43.3373C399.322 43.3373 401.934 40.7212 401.934 37.4941C401.934 34.267 399.322 31.6509 396.101 31.6509C392.88 31.6509 390.269 34.267 390.269 37.4941C390.269 40.7212 392.88 43.3373 396.101 43.3373Z" fill="#1A5C80"/>
<path opacity="0.1" d="M466.573 11.6864C469.794 11.6864 472.406 9.07032 472.406 5.84321C472.406 2.61609 469.794 0 466.573 0C463.352 0 460.741 2.61609 460.741 5.84321C460.741 9.07032 463.352 11.6864 466.573 11.6864Z" fill="#1A5C80"/>
<path opacity="0.1" d="M437.412 33.5985C440.633 33.5985 443.245 30.9824 443.245 27.7553C443.245 24.5282 440.633 21.9121 437.412 21.9121C434.191 21.9121 431.58 24.5282 431.58 27.7553C431.58 30.9824 434.191 33.5985 437.412 33.5985Z" fill="#1A5C80"/>
<path opacity="0.1" d="M505.941 84.2396C509.162 84.2396 511.773 81.6235 511.773 78.3964C511.773 75.1693 509.162 72.5532 505.941 72.5532C502.72 72.5532 500.108 75.1693 500.108 78.3964C500.108 81.6235 502.72 84.2396 505.941 84.2396Z" fill="#1A5C80"/>
<path opacity="0.1" d="M472.406 49.1806C475.627 49.1806 478.238 46.5645 478.238 43.3374C478.238 40.1102 475.627 37.4941 472.406 37.4941C469.185 37.4941 466.573 40.1102 466.573 43.3374C466.573 46.5645 469.185 49.1806 472.406 49.1806Z" fill="#1A5C80"/>
</g>
<defs>
<clipPath id="clip0">
<rect width="556" height="390" fill="white"/>
</clipPath>
</defs>
</svg>
