<svg width="344" height="294" viewBox="0 0 344 294" fill="none" xmlns="http://www.w3.org/2000/svg">
<g opacity="0.5">
<path d="M309.844 163.513C309.788 167.9 309.587 172.815 309.137 177.994L321.752 162.237L321.841 162.483C320.808 158.927 319.281 155.535 317.303 152.406L317.403 152.638L309.844 163.513Z" fill="#57B894"/>
<path d="M309.852 162.744L317.174 152.209C315.069 149.032 312.548 146.572 309.668 145.072C309.519 144.994 309.368 144.921 309.218 144.849C309.33 146.036 309.94 153.011 309.852 162.744Z" fill="#57B894"/>
<path d="M323.33 193.325C323.64 191.488 323.88 189.655 324.052 187.826L305.028 202.793L305.003 202.661C304.717 203.741 304.418 204.802 304.107 205.844L323.285 193.034L323.33 193.325Z" fill="#57B894"/>
<path d="M307.198 192.715L324.224 176.908L324.291 177.181C324.072 172.294 323.276 167.449 321.919 162.75L309.064 178.806C308.62 183.658 307.998 188.294 307.198 192.715Z" fill="#57B894"/>
<path d="M308.74 178.534L285.966 155.862L286.065 155.585C284.218 158.538 282.673 161.671 281.454 164.935L307.371 189.557C307.988 185.708 308.429 181.991 308.74 178.534Z" fill="#57B894"/>
<path d="M306.777 193.001C306.951 192.061 307.114 191.127 307.267 190.199L281.254 165.486L281.351 165.208C280.92 166.357 280.517 167.544 280.139 168.768L280.234 168.488L306.777 193.001Z" fill="#57B894"/>
<path d="M305.164 202.033L324.029 187.191L324.084 187.474C324.382 184.159 324.456 180.828 324.307 177.502L307.05 193.523C306.5 196.468 305.871 199.304 305.164 202.033Z" fill="#57B894"/>
<path d="M278.332 191.995L299.663 216.766C301.11 213.516 302.362 210.183 303.411 206.783L277.739 182.723C277.683 185.92 277.841 189.118 278.212 192.294L278.332 191.995Z" fill="#57B894"/>
<path d="M308.855 144.847L309.028 144.758C304.55 142.685 299.862 143.207 295.491 145.825L309.502 162.746C309.595 152.216 308.865 144.952 308.855 144.847Z" fill="#57B894"/>
<path d="M303.564 207.616C302.598 210.676 301.467 213.681 300.175 216.618L319.528 205.122L319.565 205.408C320.921 202.777 321.939 199.985 322.595 197.098C322.847 195.963 323.072 194.825 323.268 193.687L303.861 206.65C303.762 206.972 303.665 207.297 303.564 207.616Z" fill="#57B894"/>
<path d="M309.493 163.531L295.161 146.221L295.271 145.957C291.991 147.979 288.897 151.183 286.212 155.357L308.801 177.844C309.242 172.724 309.438 167.867 309.493 163.531Z" fill="#57B894"/>
<path d="M303.594 206.187C304.84 202.059 305.863 197.867 306.659 193.629L280.05 169.056C279.546 170.716 279.095 172.439 278.696 174.224C278.148 176.783 277.833 179.386 277.757 182.002L303.576 206.199L303.594 206.187Z" fill="#57B894"/>
<path d="M331.002 232.773C328.166 236.116 324.882 239.774 321.239 243.475L340.987 239.399L340.898 239.646C342.367 236.247 343.351 232.658 343.82 228.984L343.749 229.227L331.002 232.773Z" fill="#57B894"/>
<path d="M342.61 218.458C342.544 218.302 342.475 218.15 342.405 217.998C341.735 218.984 337.764 224.746 331.499 232.186L343.846 228.75C344.248 224.958 343.872 221.453 342.61 218.458Z" fill="#57B894"/>
<path d="M302.348 259.832C301.44 260.48 300.534 261.107 299.631 261.711L322.558 264.098L322.407 264.351C323.816 263.134 325.168 261.876 326.465 260.577L302.283 259.95L302.348 259.832Z" fill="#57B894"/>
<path d="M310.372 253.574L333.55 252.278L333.427 252.531C336.37 248.627 338.841 244.387 340.789 239.9L320.665 244.054C317.234 247.507 313.803 250.68 310.372 253.574Z" fill="#57B894"/>
<path d="M302.872 259.451L326.852 260.073L326.714 260.326C329.054 257.963 331.233 255.445 333.235 252.788L309.744 254.102C307.445 256.018 305.154 257.801 302.872 259.451Z" fill="#57B894"/>
<path d="M274.328 272.976C274.488 272.794 274.649 272.609 274.815 272.417C279.638 271.355 284.316 269.715 288.747 267.532L288.402 250.302C288.569 249.852 288.731 249.399 288.886 248.942L289.254 267.283C292.438 265.705 295.524 263.938 298.497 261.989L294.431 230.091C294.596 229.992 294.764 229.891 294.935 229.787L298.996 261.645L299.018 261.647C302.606 259.264 306.063 256.689 309.374 253.933L305.141 222.559C305.304 222.424 305.468 222.288 305.632 222.15L309.865 253.525C310.598 252.913 311.318 252.298 312.027 251.681L308.193 219.894C308.356 219.744 308.518 219.593 308.68 219.441L312.516 251.252C315.442 248.682 318.148 246.101 320.589 243.637L317.483 211.625L317.736 211.475C316.861 211.758 315.976 212.08 315.083 212.433C316.682 210.374 318.1 208.182 319.323 205.879L299.784 217.485C298.548 220.21 297.134 222.85 295.551 225.388C295.203 225.756 294.858 226.129 294.518 226.512L294.567 226.902C294.416 227.128 294.263 227.352 294.11 227.575L294.044 227.057C293.85 227.281 293.657 227.51 293.465 227.739C295.777 224.448 297.774 220.947 299.43 217.281L278.256 192.691C278.522 194.976 278.877 197.27 279.297 199.542C277.298 196.679 274.922 194.098 272.236 191.87L272.402 192.06L268.569 204.743C269.869 208.933 271.195 213.669 272.366 218.733L279.402 200.104C279.455 200.385 279.51 200.666 279.565 200.947L272.546 219.529C273.622 224.28 274.461 228.882 275.064 233.334L283.865 217.54C283.933 217.756 284.001 217.97 284.069 218.183L275.173 234.148C275.558 237.119 275.835 240.011 276.005 242.826L286.936 226.499C287.01 226.7 287.084 226.898 287.157 227.091L276.11 243.591L276.045 243.473C276.106 244.588 276.149 245.69 276.175 246.778L288.655 230.948C288.738 231.153 288.815 231.342 288.886 231.516L276.19 247.62C276.196 247.957 276.203 248.296 276.205 248.631C276.231 251.84 276.082 255.048 275.76 258.241L276.973 256.86C276.758 257.381 276.549 257.895 276.346 258.402L275.656 259.187C275.602 259.663 275.541 260.134 275.478 260.602C275.243 261.21 275.017 261.803 274.8 262.38C274.977 261.294 275.129 260.202 275.257 259.102L247.531 242.273C255.518 259.698 269.597 275.897 270.498 276.925C271.103 275.615 271.649 274.276 272.136 272.906C272.302 272.881 272.467 272.854 272.632 272.826C272.575 272.991 272.519 273.156 272.461 273.319C272.375 273.333 272.288 273.349 272.202 273.363C272.273 273.379 272.348 273.395 272.427 273.412C272.08 274.371 271.71 275.308 271.316 276.223C271.871 275.663 272.702 274.796 273.709 273.674C280.077 274.915 297.163 277.36 311.328 271.46L288.89 267.915C284.265 270.201 279.373 271.901 274.328 272.976ZM288.275 243.985L288.775 243.415L288.791 244.225L288.291 244.794L288.275 243.985Z" fill="#57B894"/>
<path d="M342.125 217.765L342.316 217.807C340.187 213.349 336.244 210.756 331.21 209.98L331.227 231.964C338.004 223.913 342.067 217.853 342.125 217.765Z" fill="#57B894"/>
<path d="M298.085 262.728C295.392 264.468 292.608 266.06 289.743 267.496L311.968 271.007L311.814 271.251C314.534 270.092 317.096 268.591 319.439 266.787C320.356 266.073 321.253 265.341 322.13 264.59L298.929 262.174C298.647 262.36 298.366 262.547 298.085 262.728Z" fill="#57B894"/>
<path d="M321.075 243.144C324.674 239.483 327.918 235.868 330.721 232.563L330.704 210.074L330.957 209.941C327.144 209.403 322.72 209.894 317.995 211.393L321.075 243.144Z" fill="#57B894"/>
<path d="M272.053 191.722C269.07 189.353 265.913 187.794 262.712 187.259C262.545 187.231 262.38 187.208 262.215 187.186C262.688 188.281 265.421 194.725 268.339 204.008L272.053 191.722Z" fill="#57B894"/>
<path d="M272.155 219.37L243.5 204.86L243.508 204.566C242.663 207.947 242.16 211.404 242.009 214.885L274.254 230.277C273.653 226.426 272.925 222.754 272.155 219.37Z" fill="#57B894"/>
<path d="M274.353 230.92L241.989 215.472L241.994 215.177C241.94 216.404 241.922 217.657 241.941 218.938L241.944 218.643L274.752 233.737C274.627 232.789 274.495 231.85 274.353 230.92Z" fill="#57B894"/>
<path d="M275.803 247.887L243.964 232.954C244.897 236.012 246.034 239.003 247.367 241.909L247.389 241.587L275.319 258.541C275.693 255.002 275.854 251.445 275.803 247.887Z" fill="#57B894"/>
<path d="M261.869 187.298L262.006 187.159C257.108 186.574 252.81 188.522 249.461 192.365L268.007 204.12C264.847 194.076 261.911 187.394 261.869 187.298Z" fill="#57B894"/>
<path d="M268.241 204.868L249.27 192.844L249.293 192.559C246.798 195.497 244.844 199.503 243.578 204.304L271.999 218.695C270.839 213.689 269.527 209.009 268.241 204.868Z" fill="#57B894"/>
<path d="M275.793 247.262C275.704 242.95 275.384 238.647 274.833 234.37L241.945 219.239C241.978 220.974 242.081 222.752 242.252 224.573C242.52 227.176 243.024 229.75 243.759 232.261L275.78 247.279L275.793 247.262Z" fill="#57B894"/>
<path d="M248.994 170.883L153.475 158.822C149.146 122.748 155.686 87.5303 166.853 52.5073L262.372 64.5685C247.958 98.9277 243.728 134.391 248.994 170.883Z" fill="#F2F2F2"/>
<path d="M238.571 72.6095L180.198 65.2388L179.408 71.521L237.781 78.8917L238.571 72.6095Z" fill="#1A5C80"/>
<path opacity="0.3" d="M245.822 88.9891L166.705 78.999L166.31 82.1401L245.427 92.1302L245.822 88.9891Z" fill="#1A5C80"/>
<path opacity="0.3" d="M244.545 99.137L165.428 89.147L165.033 92.2881L244.149 102.278L244.545 99.137Z" fill="#1A5C80"/>
<path opacity="0.3" d="M243.268 109.285L164.151 99.2954L163.756 102.437L242.872 112.427L243.268 109.285Z" fill="#1A5C80"/>
<path opacity="0.3" d="M241.991 119.433L162.874 109.443L162.479 112.584L241.595 122.575L241.991 119.433Z" fill="#1A5C80"/>
<path opacity="0.3" d="M240.714 129.582L161.597 119.592L161.202 122.733L240.318 132.723L240.714 129.582Z" fill="#1A5C80"/>
<path opacity="0.3" d="M239.436 139.73L160.32 129.74L159.925 132.881L239.041 142.871L239.436 139.73Z" fill="#1A5C80"/>
<path opacity="0.3" d="M238.159 149.878L159.043 139.888L158.648 143.029L237.764 153.019L238.159 149.878Z" fill="#1A5C80"/>
<path d="M203.761 135.344L114.397 99.464C119.321 63.4667 134.545 31.0528 154.195 0L243.559 35.8801C220.935 65.4677 207.884 98.7043 203.761 135.344Z" fill="#E6E6E6"/>
<path d="M218.502 37.6259L163.89 15.6992L161.539 21.5766L216.15 43.5034L218.502 37.6259Z" fill="#1A5C80"/>
<path opacity="0.3" d="M221.378 55.3107L147.36 25.5918L146.184 28.5305L220.203 58.2494L221.378 55.3107Z" fill="#1A5C80"/>
<path opacity="0.3" d="M217.579 64.8048L143.561 35.0859L142.385 38.0246L216.403 67.7435L217.579 64.8048Z" fill="#1A5C80"/>
<path opacity="0.3" d="M213.781 74.2989L139.762 44.5801L138.586 47.5188L212.605 77.2377L213.781 74.2989Z" fill="#1A5C80"/>
<path opacity="0.3" d="M209.982 83.7936L135.963 54.0747L134.788 57.0134L208.806 86.7323L209.982 83.7936Z" fill="#1A5C80"/>
<path opacity="0.3" d="M206.183 93.2877L132.165 63.5688L130.989 66.5076L205.007 96.2264L206.183 93.2877Z" fill="#1A5C80"/>
<path opacity="0.3" d="M202.384 102.782L128.365 73.063L127.19 76.0017L201.208 105.721L202.384 102.782Z" fill="#1A5C80"/>
<path opacity="0.3" d="M198.585 112.276L124.567 82.5576L123.391 85.4963L197.409 115.215L198.585 112.276Z" fill="#1A5C80"/>
<path d="M181.661 143.985H85.3859C76.5869 108.737 78.6793 72.9761 85.3859 36.8291H181.661C171.65 72.7243 171.88 108.439 181.661 143.985Z" fill="#F2F2F2"/>
<path d="M159.051 47.7886H100.216V54.1205H159.051V47.7886Z" fill="#1A5C80"/>
<path opacity="0.3" d="M168.289 63.1309H88.5464V66.2968H168.289V63.1309Z" fill="#1A5C80"/>
<path opacity="0.3" d="M168.289 73.3599H88.5464V76.5258H168.289V73.3599Z" fill="#1A5C80"/>
<path opacity="0.3" d="M168.289 83.5884H88.5464V86.7543H168.289V83.5884Z" fill="#1A5C80"/>
<path opacity="0.3" d="M168.289 93.8169H88.5464V96.9829H168.289V93.8169Z" fill="#1A5C80"/>
<path opacity="0.3" d="M168.289 104.045H88.5464V107.211H168.289V104.045Z" fill="#1A5C80"/>
<path opacity="0.3" d="M168.289 114.274H88.5464V117.44H168.289V114.274Z" fill="#1A5C80"/>
<path opacity="0.3" d="M168.289 124.502H88.5464V127.668H168.289V124.502Z" fill="#1A5C80"/>
<path d="M116.766 122.594L83.5985 96.7635C83.2666 96.1853 82.7884 95.7051 82.2122 95.3711C81.6359 95.0372 80.9819 94.8613 80.3162 94.8613H62.4149C61.4107 94.8613 60.4477 95.2609 59.7376 95.9722C59.0276 96.6835 58.6287 97.6482 58.6287 98.654V256.926C58.6287 260.189 59.9225 263.318 62.2257 265.625C64.5288 267.932 67.6525 269.228 70.9096 269.228H254.674C256.287 269.228 257.884 268.91 259.374 268.292C260.864 267.673 262.218 266.767 263.358 265.625C264.498 264.482 265.403 263.126 266.02 261.634C266.637 260.141 266.955 258.541 266.955 256.926V133.775C266.955 130.81 265.779 127.966 263.686 125.869C261.592 123.772 258.753 122.594 255.793 122.594H116.766Z" fill="#3F3D56"/>
<path d="M260.705 159.298H227.373V170.984H260.705V159.298Z" fill="#1A5C80"/>
<path d="M0 293.274C0 293.274 152.448 205.939 336.536 293.274H0Z" fill="#F2F2F2"/>
<path d="M32.6502 92.8577C32.6502 92.8577 34.2864 101.544 33.1411 102.2C32.216 102.782 31.3404 103.44 30.5232 104.167L33.4683 108.264L40.5038 109.739L47.2121 103.511V97.283C47.2121 97.283 45.2487 94.1689 45.5759 92.2021C45.9031 90.2354 32.6502 92.8577 32.6502 92.8577Z" fill="#FBBEBE"/>
<path opacity="0.1" d="M32.6502 92.8577C32.6502 92.8577 34.2864 101.544 33.1411 102.2C32.216 102.782 31.3404 103.44 30.5232 104.167L33.4683 108.264L40.5038 109.739L47.2121 103.511V97.283C47.2121 97.283 45.2487 94.1689 45.5759 92.2021C45.9031 90.2354 32.6502 92.8577 32.6502 92.8577Z" fill="black"/>
<path d="M21.3608 107.772L20.3791 108.264C20.3791 108.264 18.2521 109.084 17.2704 116.131C16.2887 123.179 13.998 140.06 14.6525 140.552C15.307 141.044 14.9797 144.322 14.9797 144.322L19.8882 118.59L21.3608 107.772Z" fill="#2F2E41"/>
<path d="M32.9953 67.7719C32.8457 68.0848 32.7932 68.4501 32.6528 68.7688C32.0151 70.2162 30.1998 69.8923 28.8904 70.4398C27.7815 70.9035 26.9539 72.1767 26.8671 73.5524C26.8303 74.1365 26.9158 74.7256 26.8634 75.308C26.7666 76.3839 26.2128 77.3314 26.0157 78.3883C25.5369 80.9558 26.6541 85.0105 27.9156 83.6249C28.3134 83.188 28.8113 82.8983 29.241 82.505C30.3569 81.4835 30.9253 79.8593 31.8317 78.5845C31.9464 78.3975 32.1042 78.2407 32.292 78.1275C32.9543 77.7979 33.544 78.6803 34.0676 79.2588C34.3341 79.5503 34.6595 79.7816 35.0221 79.9374C35.3848 80.0932 35.7764 80.1699 36.1709 80.1623C36.5654 80.1548 36.9538 80.0632 37.3103 79.8936C37.6668 79.7241 37.9831 79.4805 38.2383 79.179C38.3981 78.9461 38.5969 78.7427 38.8259 78.5776C39.0814 78.4598 39.369 78.4315 39.6425 78.4973C40.9336 78.725 42.0967 79.4187 42.9118 80.4473C43.349 80.9833 43.7146 81.6139 44.2387 82.0295C44.7628 82.4451 45.5273 82.582 45.9993 82.0881C46.9492 82.7608 47.3035 84.1889 47.306 85.4893C47.3085 86.7898 47.0426 88.0819 47.1075 89.3801C47.1723 90.6784 47.6812 92.0795 48.714 92.5558C48.8766 91.3737 49.4891 90.3002 50.4234 89.5599C51.1268 89.0354 51.9818 88.7756 52.5767 88.0911C53.7676 86.7207 53.3902 84.4412 53.436 82.4861C53.4924 80.0748 54.3267 77.7694 54.474 75.3633C54.5477 74.1609 54.4237 72.8717 53.7919 71.9202C53.3137 71.2862 52.7076 70.7602 52.0129 70.3764L46.397 66.7673C46.1476 66.5827 45.8649 66.4483 45.5644 66.3717C44.7377 66.2231 44.0231 66.9997 43.2393 67.342C42.5857 67.5742 41.8889 67.6589 41.1987 67.5899C39.0186 67.5308 38.405 67.9549 36.9395 66.532C36.8255 66.4166 36.686 66.3297 36.5322 66.2783C36.3784 66.2269 36.2147 66.2125 36.0544 66.2362C35.1779 66.3754 33.4748 66.7695 32.9953 67.7719Z" fill="#2F2E41"/>
<path d="M36.0863 265.771L39.522 273.31L32.8137 275.604L29.3779 273.802L30.1962 265.771H36.0863Z" fill="#FBBEBE"/>
<path d="M32.9775 272.162C32.9775 272.162 27.5782 268.884 26.5965 270.032C25.6148 271.179 17.7612 279.538 17.7612 279.538C17.7612 279.538 5.6536 286.094 14.9797 287.077C24.3059 288.06 39.5222 281.341 39.5222 281.341C39.5222 281.341 40.3403 272.49 39.6858 272.326C39.0313 272.162 36.2498 273.801 34.9409 273.31C34.218 273.059 33.5511 272.669 32.9775 272.162Z" fill="#2F2E41"/>
<path d="M44.9214 273.801V280.521L36.0863 278.554L38.0495 271.67L44.9214 273.801Z" fill="#FBBEBE"/>
<path d="M35.9227 276.095C35.9227 276.095 44.9216 274.62 45.7396 279.046C46.5577 283.471 48.6847 290.027 46.5577 291.666C44.4307 293.305 33.4684 295.435 33.3048 292.649C33.1412 289.863 34.4501 284.454 34.4501 284.454C34.4501 284.454 35.2682 280.193 34.7774 279.046C34.2865 277.898 35.9227 276.095 35.9227 276.095Z" fill="#2F2E41"/>
<path d="M17.9488 165.422C17.9488 165.422 10.5621 212.339 16.6159 235.285C22.6697 258.231 26.9237 271.834 26.9237 271.834C26.9237 271.834 37.3952 268.884 37.3952 266.917C37.3952 264.951 33.3048 235.777 32.3231 232.991C31.3414 230.204 29.7052 229.221 31.1778 226.926C32.6503 224.632 35.1046 209.881 35.1046 209.881C35.1046 209.881 40.5039 234.302 40.8311 234.957C41.1584 235.613 37.3952 273.146 37.3952 273.146C37.3952 273.146 48.1956 280.997 48.8483 275.112C49.0119 273.637 56.2111 221.354 56.2111 220.698C56.2111 220.043 59.1561 169.89 54.4113 167.431C49.6664 164.973 17.9488 165.422 17.9488 165.422Z" fill="#2F2E41"/>
<path d="M39.0312 96.1354C45.1758 96.1354 50.1571 91.1456 50.1571 84.9903C50.1571 78.835 45.1758 73.8452 39.0312 73.8452C32.8865 73.8452 27.9053 78.835 27.9053 84.9903C27.9053 91.1456 32.8865 96.1354 39.0312 96.1354Z" fill="#FBBEBE"/>
<path d="M36.577 107.117V105.97L33.3047 100.561C33.3047 100.561 30.0324 100.889 29.5415 102.364C29.0507 103.839 23.4877 115.64 23.4877 115.64L17.5975 168.579C17.5975 168.579 33.7955 172.512 36.2498 169.726C38.704 166.94 48.0302 106.297 48.0302 106.297L49.3391 98.922C49.3391 98.922 47.0915 95.644 46.5792 96.1357C46.0668 96.6274 37.5587 106.133 37.5587 106.133L37.3951 107.609L36.577 107.117Z" fill="#1A5C80"/>
<path d="M33.223 99.4955C33.223 99.4955 30.1961 98.758 29.2144 100.561C28.2327 102.364 28.2327 103.019 27.251 103.675C26.2693 104.331 20.5427 107.281 20.2155 108.428C19.8883 109.575 12.8528 145.797 12.8528 145.797C12.8528 145.797 9.41682 156.614 11.053 163.989C12.6891 171.365 11.5438 172.84 14.9798 173.496C18.4157 174.151 18.9066 174.151 18.9066 173.168C18.9066 172.184 23.3242 138.913 26.4329 136.618C29.5416 134.324 28.7235 109.247 28.7235 109.247C28.7235 109.247 33.1412 103.839 33.1412 103.019C33.1412 102.2 33.8775 99.4341 33.223 99.4955Z" fill="#2F2E41"/>
<path d="M42.4673 105.478C42.9237 105.554 49.1755 97.4465 49.6664 97.7743C50.1572 98.1021 52.6115 102.363 52.9387 102.363C53.2659 102.363 67.1733 105.805 68.3186 112.197C69.464 118.589 60.3014 138.913 60.3014 138.913C60.3014 138.913 56.3746 150.55 57.1927 155.63C57.7478 159.5 57.6371 163.435 56.8655 167.267C56.5383 168.578 55.393 170.053 55.7202 170.709C56.0474 171.365 48.5211 169.89 45.4124 171.692C42.3036 173.495 28.3963 174.806 29.2143 172.84C30.0324 170.873 30.5233 163.17 32.8139 154.975C35.1045 146.78 40.9947 127.44 40.013 126.129C39.0313 124.818 41.4856 105.314 42.4673 105.478Z" fill="#2F2E41"/>
<path d="M66.3552 110.231L68.4823 112.198C68.4823 112.198 70.9365 116.459 70.6093 118.426C70.282 120.393 77.4812 150.058 74.5361 151.042C71.591 152.025 64.5555 156.942 63.7374 158.253C62.9193 159.564 60.9559 161.859 59.647 162.514C58.338 163.17 57.0291 164.317 56.211 163.662C55.3929 163.006 53.5932 149.567 54.9021 149.075C56.211 148.583 57.52 147.108 58.8289 147.108C60.1378 147.108 60.9559 145.797 60.9559 144.65C60.9559 143.502 59.9742 136.619 59.9742 136.619L57.8472 120.393L66.3552 110.231Z" fill="#2F2E41"/>
<path d="M34.9582 69.4026C34.8259 69.6391 34.7794 69.9152 34.6553 70.1562C34.0914 71.2504 32.4863 71.0055 31.3286 71.4194C30.8393 71.6028 30.4117 71.921 30.0952 72.3373C29.7787 72.7537 29.5861 73.2512 29.5396 73.7724C29.5071 74.2139 29.5826 74.6593 29.5363 75.0996C29.4507 75.9129 28.961 76.6291 28.7868 77.4281C28.3634 79.3691 29.3512 82.4343 30.4666 81.3868C30.8184 81.0565 31.2587 80.8375 31.6386 80.5402C32.6253 79.768 33.1278 78.5401 33.9293 77.5765C34.0359 77.4307 34.1753 77.3124 34.3363 77.231C34.9219 76.9818 35.4433 77.6489 35.9063 78.0862C36.4186 78.5369 37.08 78.7804 37.7618 78.7693C38.4435 78.7581 39.0967 78.4931 39.594 78.0259C39.74 77.8457 39.9158 77.692 40.1136 77.5713C40.3434 77.4819 40.5941 77.4608 40.8356 77.5106C41.9372 77.6625 42.9555 78.1818 43.7263 78.9847C44.0741 79.4238 44.4674 79.8248 44.8996 80.1808C45.363 80.4949 46.0391 80.5984 46.4564 80.225C47.2963 80.7336 47.6096 81.8131 47.6118 82.7962C47.614 83.7793 47.3788 84.7561 47.4362 85.7375C47.4936 86.7189 47.9435 87.7781 48.8567 88.1382C48.9406 87.6772 49.118 87.2384 49.378 86.8488C49.638 86.4593 49.975 86.1273 50.3682 85.8734C50.9902 85.477 51.7461 85.2805 52.2721 84.7631C53.3251 83.7271 52.9915 82.0039 53.0319 80.526C53.0818 78.7031 53.8194 76.9603 53.9498 75.1414C54.0149 74.2325 53.9052 73.2579 53.3466 72.5386C52.9068 72.0467 52.3716 71.6496 51.7736 71.3716L46.808 68.6432C46.5818 68.5014 46.3327 68.4002 46.0718 68.3441C45.3408 68.2318 44.709 68.8189 44.016 69.0777C43.4318 69.2538 42.8195 69.3174 42.2117 69.2651C40.284 69.2204 39.7414 69.541 38.4457 68.4653C38.3377 68.3759 38.2124 68.3098 38.0777 68.2713C37.943 68.2329 37.8018 68.2228 37.663 68.2417C36.888 68.3469 35.3821 68.6448 34.9582 69.4026Z" fill="#2F2E41"/>
</g>
</svg>
