<svg width="447" height="338" viewBox="0 0 447 338" fill="none" xmlns="http://www.w3.org/2000/svg">
<g opacity="0.5" clip-path="url(#clip0)">
<path opacity="0.1" d="M420.263 183.475C404.548 204.984 409.734 235.688 418.818 260.149C421.86 268.337 425.317 276.998 423.739 285.907C421.812 296.798 412.757 304.958 403.344 309.403C386.184 317.503 365.914 316.21 350.564 306.003C337.318 297.194 327.994 282.555 314.491 274.167C291.892 260.133 262.554 266.403 237.402 277.118C219.608 284.698 200.117 294.46 182.776 287.46C170.574 282.535 162.357 269.999 158.034 256.597C155.947 250.126 154.486 243.103 150.327 238.038C147.855 235.027 144.587 232.929 141.228 231.175C110.565 215.159 71.1236 225.169 41.3961 207.299C21.3262 195.231 8.83474 171.811 3.64468 147.19C-1.54539 122.569 -0.260918 96.5782 1.80628 71.0322C3.27539 52.8777 5.59948 33.478 16.5416 19.2114C28.1139 4.1281 47.5094 -1.866 64.8538 0.496401C82.1981 2.85881 97.7483 12.4686 111.352 23.9403C128.367 38.2508 144.021 56.2171 165.183 61.6506C179.597 65.3504 194.91 62.7317 209.895 61.5746C234.942 59.6446 259.901 61.8669 284.707 64.3774C308.454 66.7798 332.365 69.4626 354.855 77.3386C370.771 82.9123 383.387 93.447 398.371 100.646C408.137 105.339 418.882 106.428 428.074 112.49C439.418 119.958 449.669 133.187 446.342 149.064C443.199 164.155 428.612 172.059 420.263 183.475Z" fill="#1A5C80"/>
<g opacity="0.5">
<path opacity="0.5" d="M343.191 281.583C343.191 281.583 344.516 242.439 365.745 220.321C374.656 211.039 380.509 199.251 382.058 186.494C382.783 180.44 382.949 174.332 382.556 168.248" stroke="#535461" stroke-width="2" stroke-miterlimit="10"/>
<path opacity="0.5" d="M395.854 154.237C394.401 158.61 382.255 168.652 382.255 168.652C382.255 168.652 378.534 153.352 379.987 148.984C380.333 147.944 380.88 146.983 381.598 146.155C382.316 145.327 383.19 144.648 384.171 144.156C385.152 143.665 386.221 143.372 387.315 143.292C388.41 143.213 389.51 143.35 390.552 143.694C391.594 144.039 392.557 144.585 393.388 145.301C394.218 146.017 394.899 146.89 395.391 147.868C395.883 148.847 396.178 149.913 396.257 151.005C396.337 152.097 396.2 153.194 395.854 154.233V154.237Z" fill="#1A5C80"/>
<path opacity="0.5" d="M400.916 182.787C397.303 185.669 381.649 187.519 381.649 187.519C381.649 187.519 386.867 172.66 390.48 169.781C391.329 169.044 392.32 168.485 393.391 168.139C394.463 167.792 395.594 167.666 396.716 167.766C397.838 167.867 398.927 168.193 399.92 168.725C400.912 169.256 401.787 169.982 402.491 170.86C403.195 171.737 403.713 172.747 404.016 173.829C404.319 174.912 404.399 176.044 404.252 177.158C404.105 178.272 403.734 179.345 403.16 180.312C402.587 181.279 401.824 182.121 400.916 182.787Z" fill="#1A5C80"/>
<path opacity="0.5" d="M386.594 223.964C382.026 224.637 367.563 218.358 367.563 218.358C367.563 218.358 379.581 208.156 384.149 207.483C385.235 207.323 386.342 207.378 387.407 207.644C388.471 207.911 389.473 208.384 390.354 209.037C391.235 209.69 391.979 210.509 392.543 211.449C393.107 212.388 393.48 213.429 393.64 214.512C393.801 215.596 393.746 216.7 393.479 217.762C393.211 218.824 392.737 219.823 392.083 220.702C391.428 221.581 390.607 222.323 389.665 222.886C388.723 223.448 387.68 223.82 386.594 223.98V223.964Z" fill="#1A5C80"/>
<path opacity="0.5" d="M368.72 252.689C364.333 254.123 349.011 250.359 349.011 250.359C349.011 250.359 359.13 238.279 363.518 236.845C365.624 236.155 367.919 236.328 369.898 237.325C371.876 238.323 373.376 240.064 374.068 242.165C374.76 244.266 374.587 246.555 373.587 248.529C372.587 250.503 370.842 251.999 368.736 252.689H368.72Z" fill="#1A5C80"/>
<path opacity="0.5" d="M364.706 182.854C366.837 186.938 380.445 194.934 380.445 194.934C380.445 194.934 381.681 179.242 379.549 175.154C379.043 174.183 378.35 173.321 377.509 172.617C376.668 171.913 375.697 171.381 374.65 171.052C373.604 170.722 372.502 170.602 371.409 170.697C370.316 170.792 369.252 171.101 368.278 171.607C367.305 172.112 366.44 172.804 365.735 173.642C365.029 174.481 364.496 175.45 364.166 176.494C363.835 177.538 363.715 178.636 363.81 179.727C363.905 180.818 364.215 181.879 364.722 182.85L364.706 182.854Z" fill="#1A5C80"/>
<path opacity="0.5" d="M344.23 216.709C347.49 219.972 362.855 223.544 362.855 223.544C362.855 223.544 359.327 208.2 356.072 204.937C354.507 203.37 352.383 202.488 350.166 202.484C347.95 202.48 345.823 203.354 344.252 204.915C342.682 206.475 341.798 208.594 341.793 210.805C341.789 213.016 342.666 215.138 344.23 216.705V216.709Z" fill="#1A5C80"/>
<path opacity="0.5" d="M328.857 252.341C331.514 256.105 346.057 262.219 346.057 262.219C346.057 262.219 345.182 246.503 342.521 242.735C341.905 241.801 341.107 241 340.175 240.38C339.242 239.759 338.195 239.332 337.093 239.124C335.992 238.916 334.861 238.931 333.765 239.168C332.67 239.405 331.634 239.86 330.718 240.504C329.803 241.149 329.027 241.971 328.436 242.921C327.845 243.871 327.452 244.93 327.28 246.034C327.108 247.139 327.16 248.267 327.434 249.351C327.707 250.435 328.197 251.453 328.873 252.345L328.857 252.341Z" fill="#1A5C80"/>
<path opacity="0.5" d="M347.855 265.382C347.855 265.382 335.813 247.909 337.925 231.468C338.855 224.578 337.52 217.572 334.119 211.504C332.482 208.635 330.585 205.923 328.452 203.399" stroke="#535461" stroke-width="2" stroke-miterlimit="10"/>
<path opacity="0.5" d="M329.724 193.029C330.499 195.399 328.452 203.672 328.452 203.672C328.452 203.672 321.897 198.202 321.122 195.836C320.749 194.698 320.845 193.459 321.388 192.392C321.932 191.324 322.877 190.516 324.018 190.144C325.159 189.772 326.401 189.868 327.471 190.41C328.541 190.951 329.351 191.895 329.724 193.033V193.029Z" fill="#1A5C80"/>
<path opacity="0.5" d="M341.136 203.836C340.498 206.238 334.268 212.08 334.268 212.08C334.268 212.08 331.747 203.936 332.385 201.526C332.692 200.368 333.448 199.38 334.486 198.778C335.523 198.176 336.758 198.01 337.919 198.316C339.079 198.623 340.07 199.376 340.673 200.411C341.276 201.447 341.443 202.678 341.136 203.836Z" fill="#1A5C80"/>
<path opacity="0.5" d="M348.176 226.363C346.406 228.12 338.077 230.022 338.077 230.022C338.077 230.022 340.02 221.722 341.794 219.964C342.216 219.546 342.716 219.215 343.266 218.99C343.816 218.764 344.405 218.65 344.999 218.651C345.594 218.653 346.182 218.772 346.731 219.001C347.279 219.229 347.777 219.563 348.196 219.984C348.615 220.405 348.947 220.904 349.173 221.452C349.399 222.001 349.514 222.588 349.512 223.181C349.51 223.775 349.391 224.361 349.162 224.909C348.933 225.456 348.598 225.953 348.176 226.371V226.363Z" fill="#1A5C80"/>
<path opacity="0.5" d="M349.657 244.609C348.208 246.639 340.305 249.911 340.305 249.911C340.305 249.911 340.814 241.402 342.264 239.372C342.608 238.889 343.044 238.478 343.547 238.163C344.051 237.848 344.611 237.635 345.197 237.536C345.783 237.437 346.383 237.454 346.962 237.587C347.542 237.719 348.089 237.964 348.573 238.307C349.058 238.65 349.47 239.086 349.786 239.588C350.101 240.09 350.315 240.649 350.414 241.234C350.513 241.818 350.496 242.416 350.363 242.994C350.231 243.572 349.985 244.118 349.641 244.601L349.657 244.609Z" fill="#1A5C80"/>
<path opacity="0.5" d="M325.389 215.475C327.633 216.573 336.13 215.692 336.13 215.692C336.13 215.692 331.607 208.46 329.363 207.367C328.285 206.842 327.042 206.765 325.907 207.153C324.772 207.542 323.839 208.364 323.312 209.439C322.785 210.515 322.708 211.755 323.097 212.887C323.487 214.019 324.311 214.95 325.389 215.475Z" fill="#1A5C80"/>
<path opacity="0.5" d="M327.392 236.797C329.864 237.174 337.708 233.798 337.708 233.798C337.708 233.798 331.221 228.249 328.752 227.888C327.566 227.708 326.356 228.006 325.39 228.715C324.423 229.425 323.779 230.489 323.598 231.672C323.418 232.856 323.716 234.062 324.428 235.026C325.139 235.991 326.205 236.633 327.392 236.813V236.797Z" fill="#1A5C80"/>
<path opacity="0.5" d="M332.184 257.246C334.557 258.047 342.862 256.045 342.862 256.045C342.862 256.045 337.411 249.482 335.038 248.693C333.899 248.316 332.656 248.405 331.583 248.941C330.51 249.478 329.695 250.418 329.316 251.554C328.938 252.69 329.027 253.93 329.565 255.001C330.103 256.071 331.045 256.884 332.184 257.262V257.246Z" fill="#1A5C80"/>
<path opacity="0.5" d="M329.724 193.029C330.499 195.399 328.452 203.672 328.452 203.672C328.452 203.672 321.897 198.202 321.122 195.836C320.749 194.698 320.845 193.459 321.388 192.392C321.932 191.324 322.877 190.516 324.018 190.144C325.159 189.772 326.401 189.868 327.471 190.41C328.541 190.951 329.351 191.895 329.724 193.033V193.029Z" fill="white"/>
<path opacity="0.5" d="M341.136 203.836C340.498 206.238 334.268 212.08 334.268 212.08C334.268 212.08 331.747 203.936 332.385 201.526C332.692 200.368 333.448 199.38 334.486 198.778C335.523 198.176 336.758 198.01 337.919 198.316C339.079 198.623 340.07 199.376 340.673 200.411C341.276 201.447 341.443 202.678 341.136 203.836Z" fill="white"/>
<path opacity="0.5" d="M348.176 226.363C346.406 228.12 338.077 230.022 338.077 230.022C338.077 230.022 340.02 221.722 341.794 219.964C342.216 219.546 342.716 219.215 343.266 218.99C343.816 218.764 344.405 218.65 344.999 218.651C345.594 218.653 346.182 218.772 346.731 219.001C347.279 219.229 347.777 219.563 348.196 219.984C348.615 220.405 348.947 220.904 349.173 221.452C349.399 222.001 349.514 222.588 349.512 223.181C349.51 223.775 349.391 224.361 349.162 224.909C348.933 225.456 348.598 225.953 348.176 226.371V226.363Z" fill="white"/>
<path opacity="0.5" d="M349.657 244.609C348.208 246.639 340.305 249.911 340.305 249.911C340.305 249.911 340.814 241.402 342.264 239.372C342.608 238.889 343.044 238.478 343.547 238.163C344.051 237.848 344.611 237.635 345.197 237.536C345.783 237.437 346.383 237.454 346.962 237.587C347.542 237.719 348.089 237.964 348.573 238.307C349.058 238.65 349.47 239.086 349.786 239.588C350.101 240.09 350.315 240.649 350.414 241.234C350.513 241.818 350.496 242.416 350.363 242.994C350.231 243.572 349.985 244.118 349.641 244.601L349.657 244.609Z" fill="white"/>
<path opacity="0.5" d="M325.389 215.475C327.633 216.573 336.13 215.692 336.13 215.692C336.13 215.692 331.607 208.46 329.363 207.367C328.285 206.842 327.042 206.765 325.907 207.153C324.772 207.542 323.839 208.364 323.312 209.439C322.785 210.515 322.708 211.755 323.097 212.887C323.487 214.019 324.311 214.95 325.389 215.475Z" fill="white"/>
<path opacity="0.5" d="M327.392 236.797C329.864 237.174 337.708 233.798 337.708 233.798C337.708 233.798 331.221 228.249 328.752 227.888C327.566 227.708 326.356 228.006 325.39 228.715C324.423 229.425 323.779 230.489 323.598 231.672C323.418 232.856 323.716 234.062 324.428 235.026C325.139 235.991 326.205 236.633 327.392 236.813V236.797Z" fill="white"/>
<path opacity="0.5" d="M332.184 257.246C334.557 258.047 342.862 256.045 342.862 256.045C342.862 256.045 337.411 249.482 335.038 248.693C333.899 248.316 332.656 248.405 331.583 248.941C330.51 249.478 329.695 250.418 329.316 251.554C328.938 252.69 329.027 253.93 329.565 255.001C330.103 256.071 331.045 256.884 332.184 257.262V257.246Z" fill="white"/>
<path opacity="0.5" d="M325.574 312.762H359.825L368.391 260.657H317.012L325.574 312.762Z" fill="#474059"/>
<path opacity="0.1" d="M323.567 260.657L331.566 309.347H360.387L359.825 312.762H325.574L317.012 260.657H323.567Z" fill="black"/>
</g>
<path d="M332.068 15.7319H80.793V318.16H332.068V15.7319Z" fill="url(#paint0_linear)"/>
<path d="M328.857 19.5996H84.0044V314.3H328.857V19.5996Z" fill="white"/>
<path d="M277.879 52.8335H179.136V57.6384H277.879V52.8335Z" fill="#C0BCCF"/>
<path d="M277.879 68.0493H179.136V72.8542H277.879V68.0493Z" fill="#C0BCCF"/>
<path d="M254.197 83.2646H202.818V88.0695H254.197V83.2646Z" fill="#1A5C80"/>
<path opacity="0.5" d="M277.879 149.332H179.136V154.137H277.879V149.332Z" fill="#C0BCCF"/>
<path opacity="0.5" d="M277.879 164.547H179.136V169.352H277.879V164.547Z" fill="#C0BCCF"/>
<path opacity="0.5" d="M254.197 179.763H202.818V184.568H254.197V179.763Z" fill="#1A5C80"/>
<path opacity="0.5" d="M277.879 245.83H179.136V250.635H277.879V245.83Z" fill="#C0BCCF"/>
<path opacity="0.5" d="M277.879 261.045H179.136V265.85H277.879V261.045Z" fill="#C0BCCF"/>
<path opacity="0.5" d="M254.197 276.261H202.818V281.066H254.197V276.261Z" fill="#1A5C80"/>
<g opacity="0.5">
<path opacity="0.5" d="M144.37 176.131L142.299 175.202C142.331 174.888 142.344 174.573 142.339 174.257C142.354 173.99 142.354 173.723 142.339 173.456C142.135 171.35 140.79 169.516 139.839 167.59C138.967 165.832 138.414 163.935 138.205 161.985C137.952 159.582 138.205 157.092 137.322 154.833C136.603 153.012 135.182 151.49 133.661 150.145C131.953 148.546 129.958 147.284 127.781 146.425C125.557 145.624 123 145.42 120.776 146.237C118.769 146.973 117.224 148.443 115.731 149.872C114.646 150.825 113.689 151.913 112.881 153.108C111.97 154.597 111.58 156.311 111.275 158.001C110.796 160.706 110.466 163.436 110.288 166.177C110.131 168.463 109.886 171.058 107.927 172.459C106.972 173.144 105.627 173.528 105.19 174.565C105.066 174.877 105.016 175.213 105.045 175.546C105.033 175.824 105.054 176.102 105.106 176.375C105.134 176.536 105.166 176.692 105.206 176.852C104.644 178.246 104.172 179.674 103.793 181.128C103.5 182.209 103.231 183.27 102.99 184.299H103.64H103.986L107.727 184.387H107.779L111.793 184.48H111.813L115.554 184.568H115.646L116.726 184.644H117.079L132.039 184.988H132.12L133.115 185.012H133.464L136.459 185.08L140.874 185.18H140.906L144.23 185.26H144.583H145.265L145.089 181.785C145.819 176.463 144.37 176.131 144.37 176.131ZM127.564 175.707C127.564 178.654 124.401 182.261 124.401 182.261L121.218 177.937L121.334 177.769L124.401 181.933C124.401 181.933 127.564 178.329 127.564 175.378C127.638 175.228 127.722 175.084 127.817 174.946L127.889 175.17C127.767 175.341 127.659 175.52 127.564 175.707ZM132.429 187.27C132.429 187.122 132.429 186.97 132.401 186.822C132.373 186.674 132.377 186.542 132.356 186.398C132.336 186.253 132.32 186.113 132.3 185.969C132.28 185.825 132.252 185.685 132.224 185.541C132.196 185.397 132.168 185.256 132.136 185.112C132.136 185.064 132.116 185.02 132.104 184.968C132.059 184.78 132.011 184.592 131.959 184.404C131.907 184.215 131.875 184.099 131.827 183.951C131.827 183.883 131.786 183.815 131.762 183.751C131.738 183.687 131.694 183.535 131.658 183.427L131.586 183.218C131.554 183.126 131.522 183.03 131.485 182.938C131.425 182.77 131.361 182.606 131.297 182.438C131.233 182.269 131.164 182.105 131.096 181.941C130.96 181.605 130.811 181.272 130.663 180.936C130.081 179.639 129.426 178.361 128.824 177.096C128.501 176.434 128.215 175.755 127.965 175.062L127.889 175.162C127.767 175.334 127.659 175.515 127.564 175.703C127.564 178.65 124.401 182.257 124.401 182.257L121.218 177.933L118.432 181.937C118.031 182.137 117.629 182.818 117.316 183.787C117.228 184.047 117.144 184.335 117.063 184.636C117.007 184.84 116.955 185.036 116.907 185.264C116.879 185.372 116.855 185.481 116.83 185.593L116.758 185.933V185.985C116.71 186.217 116.662 186.458 116.618 186.702C116.574 186.946 116.521 187.226 116.477 187.503C116.445 187.676 116.417 187.848 116.393 188.019C116.337 188.352 116.289 188.688 116.24 189.024C116.212 189.22 116.184 189.425 116.16 189.605L116.064 190.35C116.268 190.962 116.497 191.551 116.734 192.167C116.885 192.491 116.973 192.84 116.995 193.196C121.933 194.51 127.13 194.51 132.067 193.196C132.066 193.184 132.066 193.172 132.067 193.16C131.993 192.825 131.961 192.482 131.971 192.139C132.052 191.177 132.186 190.22 132.373 189.272C132.432 188.805 132.457 188.334 132.449 187.863V187.695C132.437 187.543 132.433 187.407 132.429 187.274V187.27ZM132.429 187.27C132.429 187.122 132.429 186.97 132.401 186.822C132.373 186.674 132.377 186.542 132.356 186.398C132.336 186.253 132.32 186.113 132.3 185.969C132.28 185.825 132.252 185.685 132.224 185.541C132.196 185.397 132.168 185.256 132.136 185.112C132.136 185.064 132.116 185.02 132.104 184.968C132.059 184.78 132.011 184.592 131.959 184.404C131.907 184.215 131.875 184.099 131.827 183.951C131.827 183.883 131.786 183.815 131.762 183.751C131.738 183.687 131.694 183.535 131.658 183.427L131.586 183.218C131.554 183.126 131.522 183.03 131.485 182.938C131.425 182.77 131.361 182.606 131.297 182.438C131.233 182.269 131.164 182.105 131.096 181.941C130.96 181.605 130.811 181.272 130.663 180.936C130.081 179.639 129.426 178.361 128.824 177.096C128.501 176.434 128.215 175.755 127.965 175.062L127.889 175.162C127.767 175.334 127.659 175.515 127.564 175.703C127.564 178.65 124.401 182.257 124.401 182.257L121.218 177.933L118.432 181.937C118.031 182.137 117.629 182.818 117.316 183.787C117.228 184.047 117.144 184.335 117.063 184.636C117.007 184.84 116.955 185.036 116.907 185.264C116.879 185.372 116.855 185.481 116.83 185.593L116.758 185.933V185.985C116.71 186.217 116.662 186.458 116.618 186.702C116.574 186.946 116.521 187.226 116.477 187.503C116.445 187.676 116.417 187.848 116.393 188.019C116.337 188.352 116.289 188.688 116.24 189.024C116.212 189.22 116.184 189.425 116.16 189.605L116.064 190.35C116.268 190.962 116.497 191.551 116.734 192.167C116.885 192.491 116.973 192.84 116.995 193.196C121.933 194.51 127.13 194.51 132.067 193.196C132.066 193.184 132.066 193.172 132.067 193.16C131.993 192.825 131.961 192.482 131.971 192.139C132.052 191.177 132.186 190.22 132.373 189.272C132.432 188.805 132.457 188.334 132.449 187.863V187.695C132.437 187.543 132.433 187.407 132.429 187.274V187.27ZM132.429 187.27C132.429 187.122 132.429 186.97 132.401 186.822C132.373 186.674 132.377 186.542 132.356 186.398C132.336 186.253 132.32 186.113 132.3 185.969C132.28 185.825 132.252 185.685 132.224 185.541C132.196 185.397 132.168 185.256 132.136 185.112C132.136 185.064 132.116 185.02 132.104 184.968C132.059 184.78 132.011 184.592 131.959 184.404C131.907 184.215 131.875 184.099 131.827 183.951C131.827 183.883 131.786 183.815 131.762 183.751C131.738 183.687 131.694 183.535 131.658 183.427L131.586 183.218C131.554 183.126 131.522 183.03 131.485 182.938C131.425 182.77 131.361 182.606 131.297 182.438C131.233 182.269 131.164 182.105 131.096 181.941C130.96 181.605 130.811 181.272 130.663 180.936C130.081 179.639 129.426 178.361 128.824 177.096C128.501 176.434 128.215 175.755 127.965 175.062L127.889 175.162C127.767 175.334 127.659 175.515 127.564 175.703C127.564 178.65 124.401 182.257 124.401 182.257L121.218 177.933L118.432 181.937C118.031 182.137 117.629 182.818 117.316 183.787C117.228 184.047 117.144 184.335 117.063 184.636C117.007 184.84 116.955 185.036 116.907 185.264C116.879 185.372 116.855 185.481 116.83 185.593L116.758 185.933V185.985C116.71 186.217 116.662 186.458 116.618 186.702C116.574 186.946 116.521 187.226 116.477 187.503C116.445 187.676 116.417 187.848 116.393 188.019C116.337 188.352 116.289 188.688 116.24 189.024C116.212 189.22 116.184 189.425 116.16 189.605L116.064 190.35C116.268 190.962 116.497 191.551 116.734 192.167C116.885 192.491 116.973 192.84 116.995 193.196C121.933 194.51 127.13 194.51 132.067 193.196C132.066 193.184 132.066 193.172 132.067 193.16C131.993 192.825 131.961 192.482 131.971 192.139C132.052 191.177 132.186 190.22 132.373 189.272C132.432 188.805 132.457 188.334 132.449 187.863V187.695C132.437 187.543 132.433 187.407 132.429 187.274V187.27ZM132.429 187.27C132.429 187.122 132.429 186.97 132.401 186.822C132.373 186.674 132.377 186.542 132.356 186.398C132.336 186.253 132.32 186.113 132.3 185.969C132.28 185.825 132.252 185.685 132.224 185.541C132.196 185.397 132.168 185.256 132.136 185.112C132.136 185.064 132.116 185.02 132.104 184.968C132.059 184.78 132.011 184.592 131.959 184.404C131.907 184.215 131.875 184.099 131.827 183.951C131.827 183.883 131.786 183.815 131.762 183.751C131.738 183.687 131.694 183.535 131.658 183.427L131.586 183.218C131.554 183.126 131.522 183.03 131.485 182.938C131.425 182.77 131.361 182.606 131.297 182.438C131.233 182.269 131.164 182.105 131.096 181.941C130.96 181.605 130.811 181.272 130.663 180.936C130.081 179.639 129.426 178.361 128.824 177.096C128.501 176.434 128.215 175.755 127.965 175.062L127.889 175.162C127.767 175.334 127.659 175.515 127.564 175.703C127.564 178.65 124.401 182.257 124.401 182.257L121.218 177.933L118.432 181.937C118.031 182.137 117.629 182.818 117.316 183.787C117.228 184.047 117.144 184.335 117.063 184.636C117.007 184.84 116.955 185.036 116.907 185.264C116.879 185.372 116.855 185.481 116.83 185.593L116.758 185.933V185.985C116.71 186.217 116.662 186.458 116.618 186.702C116.574 186.946 116.521 187.226 116.477 187.503C116.445 187.676 116.417 187.848 116.393 188.019C116.337 188.352 116.289 188.688 116.24 189.024C116.212 189.22 116.184 189.425 116.16 189.605L116.064 190.35C116.268 190.962 116.497 191.551 116.734 192.167C116.885 192.491 116.973 192.84 116.995 193.196C121.933 194.51 127.13 194.51 132.067 193.196C132.066 193.184 132.066 193.172 132.067 193.16C131.993 192.825 131.961 192.482 131.971 192.139C132.052 191.177 132.186 190.22 132.373 189.272C132.432 188.805 132.457 188.334 132.449 187.863V187.695C132.437 187.543 132.433 187.407 132.429 187.274V187.27Z" fill="url(#paint1_linear)"/>
<path opacity="0.5" d="M132.573 159.342H114.109V171.754H132.573V159.342Z" fill="#493545"/>
<path opacity="0.5" d="M135.64 173.032L127.913 183.891L119.837 183.19C119.837 183.19 109.3 183.887 116.325 175.835C119.701 171.963 120.804 168.735 121.041 166.433C121.298 163.943 120.539 162.525 120.539 162.525L129.318 161.476C128.922 162.656 128.872 163.924 129.174 165.132C130.273 169.68 135.64 173.032 135.64 173.032Z" fill="#C77485"/>
<path opacity="0.1" d="M129.169 165.12C128.024 165.985 126.684 166.556 125.266 166.784C123.848 167.011 122.396 166.888 121.037 166.425C121.294 163.935 120.535 162.517 120.535 162.517L129.314 161.468C128.918 162.647 128.868 163.914 129.169 165.12Z" fill="black"/>
<path opacity="0.5" d="M123.875 166.545C128.723 166.545 132.653 162.624 132.653 157.788C132.653 152.952 128.723 149.031 123.875 149.031C119.026 149.031 115.096 152.952 115.096 157.788C115.096 162.624 119.026 166.545 123.875 166.545Z" fill="#C77485"/>
<path opacity="0.1" d="M135.319 173.48L135.114 172.68L134.937 171.975L134.677 170.934L134.628 170.742L134.588 170.581C134.588 170.581 134.797 169.953 133.42 170.157L133.163 170.201C132.947 170.245 132.694 170.305 132.405 170.385L132.144 170.465L131.799 170.573C130.706 170.928 129.709 171.528 128.884 172.327C128.514 172.68 128.187 173.075 127.909 173.504C127.881 173.544 127.861 173.581 127.837 173.613C127.742 173.761 127.657 173.916 127.584 174.077C127.584 177.232 124.421 181.084 124.421 181.084L121.334 176.636L121.274 176.548L120.539 175.482L120.278 175.138L120.19 175.018L118.585 172.868L118.183 172.331L118.051 172.151L117.854 171.891L117.392 171.278L115.586 172.331L113.178 173.733L111.773 182.842V183.094L111.817 183.847L112.11 188.796V188.864L111.596 190.914L111.672 190.954C112.885 191.607 114.146 192.163 115.446 192.62L115.787 192.74C116.188 192.872 116.565 192.992 116.959 193.108C116.973 193.168 116.984 193.228 116.991 193.289C116.991 193.233 116.991 193.172 116.991 193.116C121.917 194.521 127.138 194.521 132.063 193.116L132.156 193.088C132.385 193.024 132.617 192.956 132.842 192.88L133.207 192.764C134.198 192.434 135.168 192.046 136.114 191.603L136.451 184.436L136.692 179.266V178.97L135.319 173.48Z" fill="black"/>
<path opacity="0.5" d="M132.429 186.794C132.429 186.634 132.429 186.474 132.401 186.314C132.373 186.153 132.377 186.013 132.357 185.861C132.336 185.709 132.32 185.557 132.3 185.405C132.28 185.252 132.252 185.1 132.224 184.948C132.196 184.796 132.168 184.644 132.136 184.492C132.136 184.44 132.116 184.392 132.104 184.34C132.059 184.139 132.011 183.939 131.959 183.735C131.907 183.531 131.875 183.411 131.827 183.25C131.827 183.178 131.787 183.106 131.762 183.038C131.738 182.97 131.694 182.806 131.658 182.69L131.586 182.466C131.554 182.366 131.522 182.265 131.485 182.165C131.425 181.985 131.361 181.809 131.297 181.629C131.233 181.449 131.164 181.272 131.096 181.096C130.96 180.736 130.811 180.38 130.663 180.023C130.081 178.638 129.426 177.272 128.824 175.919C128.501 175.209 128.214 174.484 127.965 173.745L127.889 173.853C127.767 174.037 127.658 174.23 127.564 174.429C127.564 177.581 124.401 181.437 124.401 181.437L121.218 176.812L118.432 181.084C118.031 181.296 117.629 182.025 117.316 183.062C117.228 183.343 117.144 183.647 117.063 183.971C117.007 184.187 116.955 184.416 116.907 184.644C116.879 184.76 116.855 184.876 116.83 184.996L116.758 185.361V185.417C116.71 185.665 116.662 185.921 116.618 186.181C116.574 186.442 116.521 186.742 116.477 187.026C116.445 187.21 116.417 187.395 116.393 187.579C116.337 187.935 116.289 188.296 116.24 188.652C116.212 188.86 116.184 189.052 116.16 189.273L116.064 190.073C116.269 190.73 116.497 191.379 116.734 192.015C116.885 192.364 116.974 192.737 116.995 193.116C121.921 194.521 127.142 194.521 132.068 193.116C132.066 193.103 132.066 193.09 132.068 193.076C131.993 192.717 131.961 192.35 131.971 191.983C132.052 190.956 132.186 189.934 132.373 188.92C132.432 188.421 132.457 187.918 132.449 187.415V187.234C132.437 187.082 132.433 186.938 132.429 186.794ZM132.429 186.794C132.429 186.634 132.429 186.474 132.401 186.314C132.373 186.153 132.377 186.013 132.357 185.861C132.336 185.709 132.32 185.557 132.3 185.405C132.28 185.252 132.252 185.1 132.224 184.948C132.196 184.796 132.168 184.644 132.136 184.492C132.136 184.44 132.116 184.392 132.104 184.34C132.059 184.139 132.011 183.939 131.959 183.735C131.907 183.531 131.875 183.411 131.827 183.25C131.827 183.178 131.787 183.106 131.762 183.038C131.738 182.97 131.694 182.806 131.658 182.69L131.586 182.466C131.554 182.366 131.522 182.265 131.485 182.165C131.425 181.985 131.361 181.809 131.297 181.629C131.233 181.449 131.164 181.272 131.096 181.096C130.96 180.736 130.811 180.38 130.663 180.023C130.081 178.638 129.426 177.272 128.824 175.919C128.501 175.209 128.214 174.484 127.965 173.745L127.889 173.853C127.767 174.037 127.658 174.23 127.564 174.429C127.564 177.581 124.401 181.437 124.401 181.437L121.218 176.812L118.432 181.084C118.031 181.296 117.629 182.025 117.316 183.062C117.228 183.343 117.144 183.647 117.063 183.971C117.007 184.187 116.955 184.416 116.907 184.644C116.879 184.76 116.855 184.876 116.83 184.996L116.758 185.361V185.417C116.71 185.665 116.662 185.921 116.618 186.181C116.574 186.442 116.521 186.742 116.477 187.026C116.445 187.21 116.417 187.395 116.393 187.579C116.337 187.935 116.289 188.296 116.24 188.652C116.212 188.86 116.184 189.052 116.16 189.273L116.064 190.073C116.269 190.73 116.497 191.379 116.734 192.015C116.885 192.364 116.974 192.737 116.995 193.116C121.921 194.521 127.142 194.521 132.068 193.116C132.066 193.103 132.066 193.09 132.068 193.076C131.993 192.717 131.961 192.35 131.971 191.983C132.052 190.956 132.186 189.934 132.373 188.92C132.432 188.421 132.457 187.918 132.449 187.415V187.234C132.437 187.082 132.433 186.938 132.429 186.794ZM132.429 186.794C132.429 186.634 132.429 186.474 132.401 186.314C132.373 186.153 132.377 186.013 132.357 185.861C132.336 185.709 132.32 185.557 132.3 185.405C132.28 185.252 132.252 185.1 132.224 184.948C132.196 184.796 132.168 184.644 132.136 184.492C132.136 184.44 132.116 184.392 132.104 184.34C132.059 184.139 132.011 183.939 131.959 183.735C131.907 183.531 131.875 183.411 131.827 183.25C131.827 183.178 131.787 183.106 131.762 183.038C131.738 182.97 131.694 182.806 131.658 182.69L131.586 182.466C131.554 182.366 131.522 182.265 131.485 182.165C131.425 181.985 131.361 181.809 131.297 181.629C131.233 181.449 131.164 181.272 131.096 181.096C130.96 180.736 130.811 180.38 130.663 180.023C130.081 178.638 129.426 177.272 128.824 175.919C128.501 175.209 128.214 174.484 127.965 173.745L127.889 173.853C127.767 174.037 127.658 174.23 127.564 174.429C127.564 177.581 124.401 181.437 124.401 181.437L121.218 176.812L118.432 181.084C118.031 181.296 117.629 182.025 117.316 183.062C117.228 183.343 117.144 183.647 117.063 183.971C117.007 184.187 116.955 184.416 116.907 184.644C116.879 184.76 116.855 184.876 116.83 184.996L116.758 185.361V185.417C116.71 185.665 116.662 185.921 116.618 186.181C116.574 186.442 116.521 186.742 116.477 187.026C116.445 187.21 116.417 187.395 116.393 187.579C116.337 187.935 116.289 188.296 116.24 188.652C116.212 188.86 116.184 189.052 116.16 189.273L116.064 190.073C116.269 190.73 116.497 191.379 116.734 192.015C116.885 192.364 116.974 192.737 116.995 193.116C121.921 194.521 127.142 194.521 132.068 193.116C132.066 193.103 132.066 193.09 132.068 193.076C131.993 192.717 131.961 192.35 131.971 191.983C132.052 190.956 132.186 189.934 132.373 188.92C132.432 188.421 132.457 187.918 132.449 187.415V187.234C132.437 187.082 132.433 186.938 132.429 186.794ZM136.684 179.278L135.251 173.573L135.006 172.596L134.938 172.327L134.588 170.934C134.589 170.922 134.589 170.91 134.588 170.898C134.597 170.836 134.587 170.774 134.56 170.718C134.508 170.614 134.376 170.505 134.066 170.477C133.949 170.469 133.831 170.469 133.713 170.477C133.365 170.512 133.019 170.576 132.682 170.67C132.517 170.714 132.34 170.762 132.152 170.822L131.807 170.93H131.775C130.85 171.233 129.992 171.708 129.246 172.331C128.753 172.741 128.32 173.218 127.961 173.749L127.885 173.857C127.763 174.041 127.654 174.234 127.56 174.433C127.56 177.585 124.397 181.441 124.397 181.441L121.214 176.816L121.033 176.556L121.001 176.512L120.539 175.835L120.19 175.37L120.098 175.25L118.452 173.06L117.93 172.351V172.327L117.75 172.083L117.404 171.627L116.2 172.327L113.19 174.077L111.801 183.09V183.186L111.841 183.843L112.138 188.86V189.144L111.685 190.95C112.897 191.603 114.158 192.16 115.458 192.616L115.799 192.736C116.2 192.868 116.578 192.988 116.971 193.104C116.986 193.164 116.996 193.224 117.003 193.285C117.003 193.229 117.003 193.169 117.003 193.112C121.929 194.517 127.15 194.517 132.076 193.112L132.168 193.084C132.397 193.02 132.629 192.952 132.854 192.876L133.22 192.76C134.21 192.43 135.18 192.042 136.126 191.599L136.459 184.44L136.7 179.326L136.684 179.278ZM116.943 193.104C116.957 193.164 116.968 193.224 116.975 193.285C116.975 193.229 116.975 193.169 116.975 193.112L116.943 193.104ZM132.429 186.794C132.429 186.634 132.429 186.474 132.401 186.314C132.373 186.153 132.377 186.013 132.357 185.861C132.336 185.709 132.32 185.557 132.3 185.405C132.28 185.252 132.252 185.1 132.224 184.948C132.196 184.796 132.168 184.644 132.136 184.492C132.136 184.44 132.116 184.392 132.104 184.34C132.059 184.139 132.011 183.939 131.959 183.735C131.907 183.531 131.875 183.411 131.827 183.25C131.827 183.178 131.787 183.106 131.762 183.038C131.738 182.97 131.694 182.806 131.658 182.69L131.586 182.466C131.554 182.366 131.522 182.265 131.485 182.165C131.425 181.985 131.361 181.809 131.297 181.629C131.233 181.449 131.164 181.272 131.096 181.096C130.96 180.736 130.811 180.38 130.663 180.023C130.081 178.638 129.426 177.272 128.824 175.919C128.501 175.209 128.214 174.484 127.965 173.745L127.889 173.853C127.767 174.037 127.658 174.23 127.564 174.429C127.564 177.581 124.401 181.437 124.401 181.437L121.218 176.812L118.432 181.084C118.031 181.296 117.629 182.025 117.316 183.062C117.228 183.343 117.144 183.647 117.063 183.971C117.007 184.187 116.955 184.416 116.907 184.644C116.879 184.76 116.855 184.876 116.83 184.996L116.758 185.361V185.417C116.71 185.665 116.662 185.921 116.618 186.181C116.574 186.442 116.521 186.742 116.477 187.026C116.445 187.21 116.417 187.395 116.393 187.579C116.337 187.935 116.289 188.296 116.24 188.652C116.212 188.86 116.184 189.052 116.16 189.273L116.064 190.073C116.269 190.73 116.497 191.379 116.734 192.015C116.885 192.364 116.974 192.737 116.995 193.116C121.921 194.521 127.142 194.521 132.068 193.116C132.066 193.103 132.066 193.09 132.068 193.076C131.993 192.717 131.961 192.35 131.971 191.983C132.052 190.956 132.186 189.934 132.373 188.92C132.432 188.421 132.457 187.918 132.449 187.415V187.234C132.437 187.082 132.433 186.938 132.429 186.794ZM132.429 186.794C132.429 186.634 132.429 186.474 132.401 186.314C132.373 186.153 132.377 186.013 132.357 185.861C132.336 185.709 132.32 185.557 132.3 185.405C132.28 185.252 132.252 185.1 132.224 184.948C132.196 184.796 132.168 184.644 132.136 184.492C132.136 184.44 132.116 184.392 132.104 184.34C132.059 184.139 132.011 183.939 131.959 183.735C131.907 183.531 131.875 183.411 131.827 183.25C131.827 183.178 131.787 183.106 131.762 183.038C131.738 182.97 131.694 182.806 131.658 182.69L131.586 182.466C131.554 182.366 131.522 182.265 131.485 182.165C131.425 181.985 131.361 181.809 131.297 181.629C131.233 181.449 131.164 181.272 131.096 181.096C130.96 180.736 130.811 180.38 130.663 180.023C130.081 178.638 129.426 177.272 128.824 175.919C128.501 175.209 128.214 174.484 127.965 173.745L127.889 173.853C127.767 174.037 127.658 174.23 127.564 174.429C127.564 177.581 124.401 181.437 124.401 181.437L121.218 176.812L118.432 181.084C118.031 181.296 117.629 182.025 117.316 183.062C117.228 183.343 117.144 183.647 117.063 183.971C117.007 184.187 116.955 184.416 116.907 184.644C116.879 184.76 116.855 184.876 116.83 184.996L116.758 185.361V185.417C116.71 185.665 116.662 185.921 116.618 186.181C116.574 186.442 116.521 186.742 116.477 187.026C116.445 187.21 116.417 187.395 116.393 187.579C116.337 187.935 116.289 188.296 116.24 188.652C116.212 188.86 116.184 189.052 116.16 189.273L116.064 190.073C116.269 190.73 116.497 191.379 116.734 192.015C116.885 192.364 116.974 192.737 116.995 193.116C121.921 194.521 127.142 194.521 132.068 193.116C132.066 193.103 132.066 193.09 132.068 193.076C131.993 192.717 131.961 192.35 131.971 191.983C132.052 190.956 132.186 189.934 132.373 188.92C132.432 188.421 132.457 187.918 132.449 187.415V187.234C132.437 187.082 132.433 186.938 132.429 186.794ZM132.429 186.794C132.429 186.634 132.429 186.474 132.401 186.314C132.373 186.153 132.377 186.013 132.357 185.861C132.336 185.709 132.32 185.557 132.3 185.405C132.28 185.252 132.252 185.1 132.224 184.948C132.196 184.796 132.168 184.644 132.136 184.492C132.136 184.44 132.116 184.392 132.104 184.34C132.059 184.139 132.011 183.939 131.959 183.735C131.907 183.531 131.875 183.411 131.827 183.25C131.827 183.178 131.787 183.106 131.762 183.038C131.738 182.97 131.694 182.806 131.658 182.69L131.586 182.466C131.554 182.366 131.522 182.265 131.485 182.165C131.425 181.985 131.361 181.809 131.297 181.629C131.233 181.449 131.164 181.272 131.096 181.096C130.96 180.736 130.811 180.38 130.663 180.023C130.081 178.638 129.426 177.272 128.824 175.919C128.501 175.209 128.214 174.484 127.965 173.745L127.889 173.853C127.767 174.037 127.658 174.23 127.564 174.429C127.564 177.581 124.401 181.437 124.401 181.437L121.218 176.812L118.432 181.084C118.031 181.296 117.629 182.025 117.316 183.062C117.228 183.343 117.144 183.647 117.063 183.971C117.007 184.187 116.955 184.416 116.907 184.644C116.879 184.76 116.855 184.876 116.83 184.996L116.758 185.361V185.417C116.71 185.665 116.662 185.921 116.618 186.181C116.574 186.442 116.521 186.742 116.477 187.026C116.445 187.21 116.417 187.395 116.393 187.579C116.337 187.935 116.289 188.296 116.24 188.652C116.212 188.86 116.184 189.052 116.16 189.273L116.064 190.073C116.269 190.73 116.497 191.379 116.734 192.015C116.885 192.364 116.974 192.737 116.995 193.116C121.921 194.521 127.142 194.521 132.068 193.116C132.066 193.103 132.066 193.09 132.068 193.076C131.993 192.717 131.961 192.35 131.971 191.983C132.052 190.956 132.186 189.934 132.373 188.92C132.432 188.421 132.457 187.918 132.449 187.415V187.234C132.437 187.082 132.433 186.938 132.429 186.794ZM132.429 186.794C132.429 186.634 132.429 186.474 132.401 186.314C132.373 186.153 132.377 186.013 132.357 185.861C132.336 185.709 132.32 185.557 132.3 185.405C132.28 185.252 132.252 185.1 132.224 184.948C132.196 184.796 132.168 184.644 132.136 184.492C132.136 184.44 132.116 184.392 132.104 184.34C132.059 184.139 132.011 183.939 131.959 183.735C131.907 183.531 131.875 183.411 131.827 183.25C131.827 183.178 131.787 183.106 131.762 183.038C131.738 182.97 131.694 182.806 131.658 182.69L131.586 182.466C131.554 182.366 131.522 182.265 131.485 182.165C131.425 181.985 131.361 181.809 131.297 181.629C131.233 181.449 131.164 181.272 131.096 181.096C130.96 180.736 130.811 180.38 130.663 180.023C130.081 178.638 129.426 177.272 128.824 175.919C128.501 175.209 128.214 174.484 127.965 173.745L127.889 173.853C127.767 174.037 127.658 174.23 127.564 174.429C127.564 177.581 124.401 181.437 124.401 181.437L121.218 176.812L118.432 181.084C118.031 181.296 117.629 182.025 117.316 183.062C117.228 183.343 117.144 183.647 117.063 183.971C117.007 184.187 116.955 184.416 116.907 184.644C116.879 184.76 116.855 184.876 116.83 184.996L116.758 185.361V185.417C116.71 185.665 116.662 185.921 116.618 186.181C116.574 186.442 116.521 186.742 116.477 187.026C116.445 187.21 116.417 187.395 116.393 187.579C116.337 187.935 116.289 188.296 116.24 188.652C116.212 188.86 116.184 189.052 116.16 189.273L116.064 190.073C116.269 190.73 116.497 191.379 116.734 192.015C116.885 192.364 116.974 192.737 116.995 193.116C121.921 194.521 127.142 194.521 132.068 193.116C132.066 193.103 132.066 193.09 132.068 193.076C131.993 192.717 131.961 192.35 131.971 191.983C132.052 190.956 132.186 189.934 132.373 188.92C132.432 188.421 132.457 187.918 132.449 187.415V187.234C132.437 187.082 132.433 186.938 132.429 186.794ZM132.429 186.794C132.429 186.634 132.429 186.474 132.401 186.314C132.373 186.153 132.377 186.013 132.357 185.861C132.336 185.709 132.32 185.557 132.3 185.405C132.28 185.252 132.252 185.1 132.224 184.948C132.196 184.796 132.168 184.644 132.136 184.492C132.136 184.44 132.116 184.392 132.104 184.34C132.059 184.139 132.011 183.939 131.959 183.735C131.907 183.531 131.875 183.411 131.827 183.25C131.827 183.178 131.787 183.106 131.762 183.038C131.738 182.97 131.694 182.806 131.658 182.69L131.586 182.466C131.554 182.366 131.522 182.265 131.485 182.165C131.425 181.985 131.361 181.809 131.297 181.629C131.233 181.449 131.164 181.272 131.096 181.096C130.96 180.736 130.811 180.38 130.663 180.023C130.081 178.638 129.426 177.272 128.824 175.919C128.501 175.209 128.214 174.484 127.965 173.745L127.889 173.853C127.767 174.037 127.658 174.23 127.564 174.429C127.564 177.581 124.401 181.437 124.401 181.437L121.218 176.812L118.432 181.084C118.031 181.296 117.629 182.025 117.316 183.062C117.228 183.343 117.144 183.647 117.063 183.971C117.007 184.187 116.955 184.416 116.907 184.644C116.879 184.76 116.855 184.876 116.83 184.996L116.758 185.361V185.417C116.71 185.665 116.662 185.921 116.618 186.181C116.574 186.442 116.521 186.742 116.477 187.026C116.445 187.21 116.417 187.395 116.393 187.579C116.337 187.935 116.289 188.296 116.24 188.652C116.212 188.86 116.184 189.052 116.16 189.273L116.064 190.073C116.269 190.73 116.497 191.379 116.734 192.015C116.885 192.364 116.974 192.737 116.995 193.116C121.921 194.521 127.142 194.521 132.068 193.116C132.066 193.103 132.066 193.09 132.068 193.076C131.993 192.717 131.961 192.35 131.971 191.983C132.052 190.956 132.186 189.934 132.373 188.92C132.432 188.421 132.457 187.918 132.449 187.415V187.234C132.437 187.082 132.433 186.938 132.429 186.794ZM132.429 186.794C132.429 186.634 132.429 186.474 132.401 186.314C132.373 186.153 132.377 186.013 132.357 185.861C132.336 185.709 132.32 185.557 132.3 185.405C132.28 185.252 132.252 185.1 132.224 184.948C132.196 184.796 132.168 184.644 132.136 184.492C132.136 184.44 132.116 184.392 132.104 184.34C132.059 184.139 132.011 183.939 131.959 183.735C131.907 183.531 131.875 183.411 131.827 183.25C131.827 183.178 131.787 183.106 131.762 183.038C131.738 182.97 131.694 182.806 131.658 182.69L131.586 182.466C131.554 182.366 131.522 182.265 131.485 182.165C131.425 181.985 131.361 181.809 131.297 181.629C131.233 181.449 131.164 181.272 131.096 181.096C130.96 180.736 130.811 180.38 130.663 180.023C130.081 178.638 129.426 177.272 128.824 175.919C128.501 175.209 128.214 174.484 127.965 173.745L127.889 173.853C127.767 174.037 127.658 174.23 127.564 174.429C127.564 177.581 124.401 181.437 124.401 181.437L121.218 176.812L118.432 181.084C118.031 181.296 117.629 182.025 117.316 183.062C117.228 183.343 117.144 183.647 117.063 183.971C117.007 184.187 116.955 184.416 116.907 184.644C116.879 184.76 116.855 184.876 116.83 184.996L116.758 185.361V185.417C116.71 185.665 116.662 185.921 116.618 186.181C116.574 186.442 116.521 186.742 116.477 187.026C116.445 187.21 116.417 187.395 116.393 187.579C116.337 187.935 116.289 188.296 116.24 188.652C116.212 188.86 116.184 189.052 116.16 189.273L116.064 190.073C116.269 190.73 116.497 191.379 116.734 192.015C116.885 192.364 116.974 192.737 116.995 193.116C121.921 194.521 127.142 194.521 132.068 193.116C132.066 193.103 132.066 193.09 132.068 193.076C131.993 192.717 131.961 192.35 131.971 191.983C132.052 190.956 132.186 189.934 132.373 188.92C132.432 188.421 132.457 187.918 132.449 187.415V187.234C132.437 187.082 132.433 186.938 132.429 186.794ZM132.429 186.794C132.429 186.634 132.429 186.474 132.401 186.314C132.373 186.153 132.377 186.013 132.357 185.861C132.336 185.709 132.32 185.557 132.3 185.405C132.28 185.252 132.252 185.1 132.224 184.948C132.196 184.796 132.168 184.644 132.136 184.492C132.136 184.44 132.116 184.392 132.104 184.34C132.059 184.139 132.011 183.939 131.959 183.735C131.907 183.531 131.875 183.411 131.827 183.25C131.827 183.178 131.787 183.106 131.762 183.038C131.738 182.97 131.694 182.806 131.658 182.69L131.586 182.466C131.554 182.366 131.522 182.265 131.485 182.165C131.425 181.985 131.361 181.809 131.297 181.629C131.233 181.449 131.164 181.272 131.096 181.096C130.96 180.736 130.811 180.38 130.663 180.023C130.081 178.638 129.426 177.272 128.824 175.919C128.501 175.209 128.214 174.484 127.965 173.745L127.889 173.853C127.767 174.037 127.658 174.23 127.564 174.429C127.564 177.581 124.401 181.437 124.401 181.437L121.218 176.812L118.432 181.084C118.031 181.296 117.629 182.025 117.316 183.062C117.228 183.343 117.144 183.647 117.063 183.971C117.007 184.187 116.955 184.416 116.907 184.644C116.879 184.76 116.855 184.876 116.83 184.996L116.758 185.361V185.417C116.71 185.665 116.662 185.921 116.618 186.181C116.574 186.442 116.521 186.742 116.477 187.026C116.445 187.21 116.417 187.395 116.393 187.579C116.337 187.935 116.289 188.296 116.24 188.652C116.212 188.86 116.184 189.052 116.16 189.273L116.064 190.073C116.269 190.73 116.497 191.379 116.734 192.015C116.885 192.364 116.974 192.737 116.995 193.116C121.921 194.521 127.142 194.521 132.068 193.116C132.066 193.103 132.066 193.09 132.068 193.076C131.993 192.717 131.961 192.35 131.971 191.983C132.052 190.956 132.186 189.934 132.373 188.92C132.432 188.421 132.457 187.918 132.449 187.415V187.234C132.437 187.082 132.433 186.938 132.429 186.794ZM132.429 186.794C132.429 186.634 132.429 186.474 132.401 186.314C132.373 186.153 132.377 186.013 132.357 185.861C132.336 185.709 132.32 185.557 132.3 185.405C132.28 185.252 132.252 185.1 132.224 184.948C132.196 184.796 132.168 184.644 132.136 184.492C132.136 184.44 132.116 184.392 132.104 184.34C132.059 184.139 132.011 183.939 131.959 183.735C131.907 183.531 131.875 183.411 131.827 183.25C131.827 183.178 131.787 183.106 131.762 183.038C131.738 182.97 131.694 182.806 131.658 182.69L131.586 182.466C131.554 182.366 131.522 182.265 131.485 182.165C131.425 181.985 131.361 181.809 131.297 181.629C131.233 181.449 131.164 181.272 131.096 181.096C130.96 180.736 130.811 180.38 130.663 180.023C130.081 178.638 129.426 177.272 128.824 175.919C128.501 175.209 128.214 174.484 127.965 173.745L127.889 173.853C127.767 174.037 127.658 174.23 127.564 174.429C127.564 177.581 124.401 181.437 124.401 181.437L121.218 176.812L118.432 181.084C118.031 181.296 117.629 182.025 117.316 183.062C117.228 183.343 117.144 183.647 117.063 183.971C117.007 184.187 116.955 184.416 116.907 184.644C116.879 184.76 116.855 184.876 116.83 184.996L116.758 185.361V185.417C116.71 185.665 116.662 185.921 116.618 186.181C116.574 186.442 116.521 186.742 116.477 187.026C116.445 187.21 116.417 187.395 116.393 187.579C116.337 187.935 116.289 188.296 116.24 188.652C116.212 188.86 116.184 189.052 116.16 189.273L116.064 190.073C116.269 190.73 116.497 191.379 116.734 192.015C116.885 192.364 116.974 192.737 116.995 193.116C121.921 194.521 127.142 194.521 132.068 193.116C132.066 193.103 132.066 193.09 132.068 193.076C131.993 192.717 131.961 192.35 131.971 191.983C132.052 190.956 132.186 189.934 132.373 188.92C132.432 188.421 132.457 187.918 132.449 187.415V187.234C132.437 187.082 132.433 186.938 132.429 186.794Z" fill="white"/>
<path opacity="0.1" d="M121.274 176.544L121.005 176.508C120.599 176.453 120.197 176.373 119.801 176.268L119.652 176.227C118.673 175.951 117.601 175.455 117.36 174.582C117.289 174.301 117.297 174.005 117.384 173.729C117.519 173.253 117.702 172.791 117.93 172.352V172.328C117.961 172.266 117.994 172.206 118.031 172.147C118.362 171.502 118.863 170.958 119.48 170.574L118.998 170.65L114.92 171.31L108.598 172.328C108.598 172.328 107.474 172.103 105.945 176.308C105.945 176.36 105.908 176.408 105.892 176.464C105.523 177.493 105.134 178.778 104.732 180.384C104.455 181.497 104.203 182.59 103.97 183.651C103.902 183.971 103.833 184.288 103.769 184.6C104.493 185.451 105.272 186.254 106.101 187.002L106.234 187.127C107.858 188.594 109.653 189.862 111.58 190.902L111.657 190.942C112.869 191.595 114.13 192.152 115.43 192.608L115.771 192.728C115.843 191.988 115.923 191.167 116.02 190.326C116.02 190.242 116.02 190.158 116.052 190.074L116.148 189.273C116.172 189.069 116.2 188.872 116.228 188.652C116.277 188.296 116.325 187.935 116.381 187.579C116.405 187.395 116.433 187.211 116.465 187.026C116.509 186.742 116.558 186.458 116.606 186.182C116.654 185.905 116.698 185.665 116.746 185.417V185.361L116.818 184.996C116.843 184.876 116.867 184.76 116.895 184.644C116.943 184.416 116.995 184.188 117.051 183.971C117.132 183.647 117.216 183.343 117.304 183.062C117.625 182.025 117.999 181.297 118.42 181.084L121.206 176.812L121.322 176.632L121.374 176.552L121.274 176.544Z" fill="black"/>
<path opacity="0.1" d="M116.204 148.183C115.803 148.735 115.835 149.496 115.655 150.185C115.225 151.75 113.523 152.731 113.134 154.309C112.905 155.23 113.17 156.207 113.013 157.144C112.728 158.87 111.147 160.039 110.264 161.548C109.816 162.326 109.551 163.195 109.487 164.089C109.424 164.984 109.565 165.881 109.898 166.714C110.105 167.134 110.276 167.57 110.408 168.019C110.51 168.688 110.467 169.37 110.284 170.021C109.983 171.447 109.674 173.016 110.364 174.301C110.946 175.387 112.154 176.023 113.371 176.223C114.599 176.362 115.841 176.305 117.051 176.055C118.38 175.851 119.741 175.615 120.897 174.934L116.55 164.467C116.112 163.41 115.663 162.317 115.667 161.172C115.702 160.327 115.885 159.495 116.208 158.714C117.05 156.449 118.272 154.343 119.821 152.487C120.451 153.216 120.403 154.325 120.929 155.134C121.394 155.732 122.012 156.193 122.719 156.467C124.779 157.47 126.895 158.352 129.057 159.11C129.193 159.127 129.322 159.177 129.434 159.256C129.545 159.335 129.636 159.44 129.697 159.562C129.758 159.684 129.788 159.819 129.784 159.955C129.781 160.092 129.743 160.225 129.675 160.343L128.038 167.086C127.676 168.572 127.359 170.289 128.286 171.491C129.214 172.692 131.305 173.26 131.317 174.81C131.3 175.055 131.3 175.301 131.317 175.547C131.425 176.271 132.288 176.62 133.023 176.656C134.229 176.68 135.404 176.275 136.338 175.514C137.273 174.754 137.906 173.687 138.125 172.504C138.526 169.853 136.768 167.41 136.033 164.828C134.797 160.483 136.435 155.386 134.006 151.57C132.04 148.475 128.455 147.634 125.051 147.25C122.663 146.97 117.886 145.969 116.204 148.183Z" fill="black"/>
<path opacity="0.5" d="M116.204 147.782C115.803 148.335 115.835 149.096 115.655 149.785C115.225 151.35 113.523 152.331 113.134 153.909C112.905 154.83 113.17 155.807 113.013 156.744C112.728 158.469 111.147 159.639 110.264 161.148C109.816 161.926 109.551 162.794 109.487 163.689C109.424 164.583 109.565 165.481 109.898 166.313C110.105 166.733 110.276 167.17 110.408 167.619C110.51 168.287 110.467 168.97 110.284 169.621C109.983 171.046 109.674 172.616 110.364 173.901C110.946 174.986 112.154 175.623 113.371 175.823C114.599 175.961 115.841 175.905 117.051 175.655C118.38 175.451 119.741 175.214 120.897 174.534L116.55 164.067C116.112 163.01 115.663 161.917 115.667 160.772C115.702 159.927 115.885 159.095 116.208 158.313C117.05 156.048 118.272 153.943 119.821 152.087C120.451 152.816 120.403 153.925 120.929 154.734C121.394 155.332 122.012 155.792 122.719 156.067C124.779 157.069 126.895 157.952 129.057 158.71C129.193 158.727 129.322 158.777 129.434 158.855C129.545 158.934 129.636 159.039 129.697 159.161C129.758 159.283 129.788 159.418 129.784 159.555C129.781 159.691 129.743 159.824 129.675 159.943L128.038 166.686C127.676 168.171 127.359 169.889 128.286 171.09C129.214 172.291 131.305 172.86 131.317 174.41C131.3 174.655 131.3 174.901 131.317 175.146C131.425 175.871 132.288 176.219 133.023 176.255C134.229 176.279 135.404 175.875 136.338 175.114C137.273 174.353 137.906 173.286 138.125 172.103C138.526 169.453 136.768 167.01 136.033 164.427C134.797 160.083 136.435 154.986 134.006 151.17C132.04 148.075 128.455 147.234 125.051 146.85C122.663 146.569 117.886 145.568 116.204 147.782Z" fill="#493545"/>
</g>
<g opacity="0.5">
<path opacity="0.5" d="M113.736 255.031C113.772 256.373 112.857 257.518 112.13 258.635C111.404 259.752 110.866 261.278 111.613 262.395C111.857 262.763 112.227 263.048 112.447 263.432C113.222 264.773 111.934 266.315 111.464 267.788C110.922 269.49 111.552 271.392 112.692 272.773C113.832 274.155 115.406 275.088 116.995 275.909C120.337 277.685 123.925 278.959 127.64 279.689C129.583 280.045 131.654 280.205 133.477 279.428C134.741 278.85 135.774 277.864 136.409 276.63C137.045 275.395 137.246 273.984 136.981 272.621C136.519 270.515 134.974 268.821 134.171 266.831C133.984 266.441 133.893 266.011 133.906 265.578C133.974 264.821 134.556 264.229 135.01 263.616C136.148 261.948 136.612 259.913 136.311 257.918C135.994 255.924 135.228 254.026 134.071 252.369C133.657 251.682 133.112 251.083 132.465 250.607C131.59 250.018 130.506 249.85 129.463 249.702C125.104 249.093 120.588 248.429 116.193 248.204C114.804 248.132 113.784 248.405 113.098 249.702C112.05 251.636 113.684 253.089 113.736 255.031Z" fill="#444176"/>
<path opacity="0.5" d="M136.186 268.649L127.913 280.385L119.837 279.684C119.837 279.684 119.572 282.487 116.325 272.329C114.51 266.647 118.199 268.621 118.926 267.048C119.652 265.474 120.933 264.085 121.041 262.923C121.298 260.433 120.539 259.015 120.539 259.015L129.318 257.966C128.922 259.146 128.871 260.415 129.173 261.622C130.273 266.179 136.186 268.649 136.186 268.649Z" fill="#C77485"/>
<path opacity="0.5" d="M123.742 258.643C129.506 258.643 134.179 254.968 134.179 250.435C134.179 245.902 129.506 242.227 123.742 242.227C117.979 242.227 113.306 245.902 113.306 250.435C113.306 254.968 117.979 258.643 123.742 258.643Z" fill="#444176"/>
<path opacity="0.1" d="M129.169 261.618C128.024 262.483 126.684 263.054 125.266 263.282C123.848 263.509 122.396 263.386 121.037 262.923C121.294 260.433 120.535 259.015 120.535 259.015L129.314 257.966C128.918 259.145 128.868 260.412 129.169 261.618Z" fill="black"/>
<path opacity="0.5" d="M123.875 263.044C128.723 263.044 132.654 259.123 132.654 254.287C132.654 249.45 128.723 245.53 123.875 245.53C119.027 245.53 115.097 249.45 115.097 254.287C115.097 259.123 119.027 263.044 123.875 263.044Z" fill="#C77485"/>
<path opacity="0.1" d="M135.319 269.978L135.114 269.178L134.937 268.473L134.677 267.432L134.628 267.24L134.588 267.079C134.588 267.079 134.797 266.451 133.42 266.655L133.163 266.699C132.947 266.743 132.694 266.803 132.405 266.883L132.144 266.963L131.799 267.071C130.706 267.426 129.709 268.026 128.884 268.825C128.514 269.178 128.187 269.573 127.909 270.002C127.881 270.043 127.861 270.079 127.837 270.111C127.742 270.259 127.657 270.415 127.584 270.575C127.584 273.73 124.421 277.582 124.421 277.582L121.334 273.134L121.274 273.046L120.539 271.98L120.278 271.636L120.19 271.516L118.585 269.366L118.183 268.829L118.051 268.649L117.854 268.389L117.392 267.776L115.586 268.829L113.178 270.231L111.773 279.34V279.592L111.817 280.345L112.11 285.294V285.362L111.596 287.412L111.672 287.452C112.885 288.105 114.146 288.661 115.446 289.118L115.787 289.238C116.188 289.37 116.565 289.49 116.959 289.606C116.973 289.666 116.984 289.726 116.991 289.787C116.991 289.731 116.991 289.67 116.991 289.614C121.917 291.019 127.138 291.019 132.063 289.614L132.156 289.586C132.385 289.522 132.617 289.454 132.842 289.378L133.207 289.262C134.198 288.932 135.168 288.544 136.114 288.101L136.451 280.934L136.692 275.764V275.468L135.319 269.978Z" fill="black"/>
<path opacity="0.5" d="M132.429 283.292C132.429 283.132 132.429 282.972 132.401 282.812C132.373 282.651 132.377 282.511 132.357 282.359C132.336 282.207 132.32 282.055 132.3 281.903C132.28 281.751 132.252 281.598 132.224 281.446C132.196 281.294 132.168 281.142 132.136 280.99C132.136 280.938 132.116 280.89 132.104 280.838C132.06 280.637 132.011 280.437 131.959 280.233C131.907 280.029 131.875 279.909 131.827 279.748C131.827 279.676 131.787 279.604 131.762 279.536C131.738 279.468 131.694 279.304 131.658 279.188L131.586 278.964C131.554 278.864 131.522 278.763 131.486 278.663C131.425 278.483 131.361 278.307 131.297 278.127C131.233 277.947 131.164 277.77 131.096 277.594C130.96 277.234 130.811 276.878 130.663 276.521C130.081 275.136 129.426 273.77 128.824 272.417C128.501 271.707 128.214 270.982 127.965 270.243L127.889 270.351C127.767 270.535 127.658 270.728 127.564 270.928C127.564 274.079 124.401 277.935 124.401 277.935L121.218 273.31L118.432 277.582C118.031 277.794 117.629 278.523 117.316 279.56C117.228 279.841 117.144 280.145 117.063 280.469C117.007 280.685 116.955 280.914 116.907 281.142C116.879 281.258 116.855 281.374 116.83 281.494L116.758 281.859V281.915C116.71 282.163 116.662 282.419 116.618 282.679C116.574 282.94 116.521 283.24 116.477 283.524C116.445 283.709 116.417 283.893 116.393 284.077C116.337 284.433 116.289 284.794 116.24 285.15C116.212 285.358 116.184 285.55 116.16 285.771L116.064 286.571C116.269 287.228 116.497 287.877 116.734 288.513C116.885 288.862 116.974 289.235 116.995 289.615C121.921 291.019 127.142 291.019 132.068 289.615C132.066 289.601 132.066 289.588 132.068 289.574C131.993 289.215 131.961 288.848 131.971 288.481C132.052 287.454 132.186 286.432 132.373 285.418C132.432 284.919 132.457 284.416 132.449 283.913V283.733C132.437 283.58 132.433 283.436 132.429 283.292ZM132.429 283.292C132.429 283.132 132.429 282.972 132.401 282.812C132.373 282.651 132.377 282.511 132.357 282.359C132.336 282.207 132.32 282.055 132.3 281.903C132.28 281.751 132.252 281.598 132.224 281.446C132.196 281.294 132.168 281.142 132.136 280.99C132.136 280.938 132.116 280.89 132.104 280.838C132.06 280.637 132.011 280.437 131.959 280.233C131.907 280.029 131.875 279.909 131.827 279.748C131.827 279.676 131.787 279.604 131.762 279.536C131.738 279.468 131.694 279.304 131.658 279.188L131.586 278.964C131.554 278.864 131.522 278.763 131.486 278.663C131.425 278.483 131.361 278.307 131.297 278.127C131.233 277.947 131.164 277.77 131.096 277.594C130.96 277.234 130.811 276.878 130.663 276.521C130.081 275.136 129.426 273.77 128.824 272.417C128.501 271.707 128.214 270.982 127.965 270.243L127.889 270.351C127.767 270.535 127.658 270.728 127.564 270.928C127.564 274.079 124.401 277.935 124.401 277.935L121.218 273.31L118.432 277.582C118.031 277.794 117.629 278.523 117.316 279.56C117.228 279.841 117.144 280.145 117.063 280.469C117.007 280.685 116.955 280.914 116.907 281.142C116.879 281.258 116.855 281.374 116.83 281.494L116.758 281.859V281.915C116.71 282.163 116.662 282.419 116.618 282.679C116.574 282.94 116.521 283.24 116.477 283.524C116.445 283.709 116.417 283.893 116.393 284.077C116.337 284.433 116.289 284.794 116.24 285.15C116.212 285.358 116.184 285.55 116.16 285.771L116.064 286.571C116.269 287.228 116.497 287.877 116.734 288.513C116.885 288.862 116.974 289.235 116.995 289.615C121.921 291.019 127.142 291.019 132.068 289.615C132.066 289.601 132.066 289.588 132.068 289.574C131.993 289.215 131.961 288.848 131.971 288.481C132.052 287.454 132.186 286.432 132.373 285.418C132.432 284.919 132.457 284.416 132.449 283.913V283.733C132.437 283.58 132.433 283.436 132.429 283.292ZM132.429 283.292C132.429 283.132 132.429 282.972 132.401 282.812C132.373 282.651 132.377 282.511 132.357 282.359C132.336 282.207 132.32 282.055 132.3 281.903C132.28 281.751 132.252 281.598 132.224 281.446C132.196 281.294 132.168 281.142 132.136 280.99C132.136 280.938 132.116 280.89 132.104 280.838C132.06 280.637 132.011 280.437 131.959 280.233C131.907 280.029 131.875 279.909 131.827 279.748C131.827 279.676 131.787 279.604 131.762 279.536C131.738 279.468 131.694 279.304 131.658 279.188L131.586 278.964C131.554 278.864 131.522 278.763 131.486 278.663C131.425 278.483 131.361 278.307 131.297 278.127C131.233 277.947 131.164 277.77 131.096 277.594C130.96 277.234 130.811 276.878 130.663 276.521C130.081 275.136 129.426 273.77 128.824 272.417C128.501 271.707 128.214 270.982 127.965 270.243L127.889 270.351C127.767 270.535 127.658 270.728 127.564 270.928C127.564 274.079 124.401 277.935 124.401 277.935L121.218 273.31L118.432 277.582C118.031 277.794 117.629 278.523 117.316 279.56C117.228 279.841 117.144 280.145 117.063 280.469C117.007 280.685 116.955 280.914 116.907 281.142C116.879 281.258 116.855 281.374 116.83 281.494L116.758 281.859V281.915C116.71 282.163 116.662 282.419 116.618 282.679C116.574 282.94 116.521 283.24 116.477 283.524C116.445 283.709 116.417 283.893 116.393 284.077C116.337 284.433 116.289 284.794 116.24 285.15C116.212 285.358 116.184 285.55 116.16 285.771L116.064 286.571C116.269 287.228 116.497 287.877 116.734 288.513C116.885 288.862 116.974 289.235 116.995 289.615C121.921 291.019 127.142 291.019 132.068 289.615C132.066 289.601 132.066 289.588 132.068 289.574C131.993 289.215 131.961 288.848 131.971 288.481C132.052 287.454 132.186 286.432 132.373 285.418C132.432 284.919 132.457 284.416 132.449 283.913V283.733C132.437 283.58 132.433 283.436 132.429 283.292ZM136.684 275.776L135.251 270.071L135.006 269.094L134.938 268.825L134.588 267.432C134.589 267.42 134.589 267.408 134.588 267.396C134.597 267.334 134.587 267.272 134.56 267.216C134.508 267.112 134.376 267.004 134.066 266.975C133.949 266.967 133.831 266.967 133.713 266.975C133.365 267.01 133.019 267.074 132.682 267.168C132.517 267.212 132.34 267.26 132.152 267.32L131.807 267.428H131.775C130.85 267.731 129.992 268.206 129.246 268.829C128.753 269.239 128.32 269.716 127.961 270.247L127.885 270.355C127.763 270.539 127.654 270.732 127.56 270.932C127.56 274.083 124.397 277.939 124.397 277.939L121.214 273.314L121.033 273.054L121.001 273.01L120.539 272.333L120.19 271.868L120.098 271.748L118.452 269.558L117.93 268.849V268.825L117.75 268.581L117.404 268.125L116.2 268.825L113.19 270.575L111.801 279.588V279.684L111.841 280.341L112.138 285.358V285.642L111.685 287.448C112.897 288.101 114.158 288.658 115.458 289.114L115.799 289.234C116.2 289.366 116.578 289.486 116.971 289.603C116.986 289.662 116.996 289.722 117.003 289.783C117.003 289.727 117.003 289.667 117.003 289.611C121.929 291.015 127.15 291.015 132.076 289.611L132.168 289.583C132.397 289.518 132.629 289.45 132.854 289.374L133.22 289.258C134.21 288.928 135.18 288.54 136.126 288.097L136.459 280.938L136.7 275.824L136.684 275.776ZM116.943 289.603C116.957 289.662 116.968 289.722 116.975 289.783C116.975 289.727 116.975 289.667 116.975 289.611L116.943 289.603ZM132.429 283.292C132.429 283.132 132.429 282.972 132.401 282.812C132.373 282.651 132.377 282.511 132.357 282.359C132.336 282.207 132.32 282.055 132.3 281.903C132.28 281.751 132.252 281.598 132.224 281.446C132.196 281.294 132.168 281.142 132.136 280.99C132.136 280.938 132.116 280.89 132.104 280.838C132.06 280.637 132.011 280.437 131.959 280.233C131.907 280.029 131.875 279.909 131.827 279.748C131.827 279.676 131.787 279.604 131.762 279.536C131.738 279.468 131.694 279.304 131.658 279.188L131.586 278.964C131.554 278.864 131.522 278.763 131.486 278.663C131.425 278.483 131.361 278.307 131.297 278.127C131.233 277.947 131.164 277.77 131.096 277.594C130.96 277.234 130.811 276.878 130.663 276.521C130.081 275.136 129.426 273.77 128.824 272.417C128.501 271.707 128.214 270.982 127.965 270.243L127.889 270.351C127.767 270.535 127.658 270.728 127.564 270.928C127.564 274.079 124.401 277.935 124.401 277.935L121.218 273.31L118.432 277.582C118.031 277.794 117.629 278.523 117.316 279.56C117.228 279.841 117.144 280.145 117.063 280.469C117.007 280.685 116.955 280.914 116.907 281.142C116.879 281.258 116.855 281.374 116.83 281.494L116.758 281.859V281.915C116.71 282.163 116.662 282.419 116.618 282.679C116.574 282.94 116.521 283.24 116.477 283.524C116.445 283.709 116.417 283.893 116.393 284.077C116.337 284.433 116.289 284.794 116.24 285.15C116.212 285.358 116.184 285.55 116.16 285.771L116.064 286.571C116.269 287.228 116.497 287.877 116.734 288.513C116.885 288.862 116.974 289.235 116.995 289.615C121.921 291.019 127.142 291.019 132.068 289.615C132.066 289.601 132.066 289.588 132.068 289.574C131.993 289.215 131.961 288.848 131.971 288.481C132.052 287.454 132.186 286.432 132.373 285.418C132.432 284.919 132.457 284.416 132.449 283.913V283.733C132.437 283.58 132.433 283.436 132.429 283.292ZM132.429 283.292C132.429 283.132 132.429 282.972 132.401 282.812C132.373 282.651 132.377 282.511 132.357 282.359C132.336 282.207 132.32 282.055 132.3 281.903C132.28 281.751 132.252 281.598 132.224 281.446C132.196 281.294 132.168 281.142 132.136 280.99C132.136 280.938 132.116 280.89 132.104 280.838C132.06 280.637 132.011 280.437 131.959 280.233C131.907 280.029 131.875 279.909 131.827 279.748C131.827 279.676 131.787 279.604 131.762 279.536C131.738 279.468 131.694 279.304 131.658 279.188L131.586 278.964C131.554 278.864 131.522 278.763 131.486 278.663C131.425 278.483 131.361 278.307 131.297 278.127C131.233 277.947 131.164 277.77 131.096 277.594C130.96 277.234 130.811 276.878 130.663 276.521C130.081 275.136 129.426 273.77 128.824 272.417C128.501 271.707 128.214 270.982 127.965 270.243L127.889 270.351C127.767 270.535 127.658 270.728 127.564 270.928C127.564 274.079 124.401 277.935 124.401 277.935L121.218 273.31L118.432 277.582C118.031 277.794 117.629 278.523 117.316 279.56C117.228 279.841 117.144 280.145 117.063 280.469C117.007 280.685 116.955 280.914 116.907 281.142C116.879 281.258 116.855 281.374 116.83 281.494L116.758 281.859V281.915C116.71 282.163 116.662 282.419 116.618 282.679C116.574 282.94 116.521 283.24 116.477 283.524C116.445 283.709 116.417 283.893 116.393 284.077C116.337 284.433 116.289 284.794 116.24 285.15C116.212 285.358 116.184 285.55 116.16 285.771L116.064 286.571C116.269 287.228 116.497 287.877 116.734 288.513C116.885 288.862 116.974 289.235 116.995 289.615C121.921 291.019 127.142 291.019 132.068 289.615C132.066 289.601 132.066 289.588 132.068 289.574C131.993 289.215 131.961 288.848 131.971 288.481C132.052 287.454 132.186 286.432 132.373 285.418C132.432 284.919 132.457 284.416 132.449 283.913V283.733C132.437 283.58 132.433 283.436 132.429 283.292ZM132.429 283.292C132.429 283.132 132.429 282.972 132.401 282.812C132.373 282.651 132.377 282.511 132.357 282.359C132.336 282.207 132.32 282.055 132.3 281.903C132.28 281.751 132.252 281.598 132.224 281.446C132.196 281.294 132.168 281.142 132.136 280.99C132.136 280.938 132.116 280.89 132.104 280.838C132.06 280.637 132.011 280.437 131.959 280.233C131.907 280.029 131.875 279.909 131.827 279.748C131.827 279.676 131.787 279.604 131.762 279.536C131.738 279.468 131.694 279.304 131.658 279.188L131.586 278.964C131.554 278.864 131.522 278.763 131.486 278.663C131.425 278.483 131.361 278.307 131.297 278.127C131.233 277.947 131.164 277.77 131.096 277.594C130.96 277.234 130.811 276.878 130.663 276.521C130.081 275.136 129.426 273.77 128.824 272.417C128.501 271.707 128.214 270.982 127.965 270.243L127.889 270.351C127.767 270.535 127.658 270.728 127.564 270.928C127.564 274.079 124.401 277.935 124.401 277.935L121.218 273.31L118.432 277.582C118.031 277.794 117.629 278.523 117.316 279.56C117.228 279.841 117.144 280.145 117.063 280.469C117.007 280.685 116.955 280.914 116.907 281.142C116.879 281.258 116.855 281.374 116.83 281.494L116.758 281.859V281.915C116.71 282.163 116.662 282.419 116.618 282.679C116.574 282.94 116.521 283.24 116.477 283.524C116.445 283.709 116.417 283.893 116.393 284.077C116.337 284.433 116.289 284.794 116.24 285.15C116.212 285.358 116.184 285.55 116.16 285.771L116.064 286.571C116.269 287.228 116.497 287.877 116.734 288.513C116.885 288.862 116.974 289.235 116.995 289.615C121.921 291.019 127.142 291.019 132.068 289.615C132.066 289.601 132.066 289.588 132.068 289.574C131.993 289.215 131.961 288.848 131.971 288.481C132.052 287.454 132.186 286.432 132.373 285.418C132.432 284.919 132.457 284.416 132.449 283.913V283.733C132.437 283.58 132.433 283.436 132.429 283.292ZM132.429 283.292C132.429 283.132 132.429 282.972 132.401 282.812C132.373 282.651 132.377 282.511 132.357 282.359C132.336 282.207 132.32 282.055 132.3 281.903C132.28 281.751 132.252 281.598 132.224 281.446C132.196 281.294 132.168 281.142 132.136 280.99C132.136 280.938 132.116 280.89 132.104 280.838C132.06 280.637 132.011 280.437 131.959 280.233C131.907 280.029 131.875 279.909 131.827 279.748C131.827 279.676 131.787 279.604 131.762 279.536C131.738 279.468 131.694 279.304 131.658 279.188L131.586 278.964C131.554 278.864 131.522 278.763 131.486 278.663C131.425 278.483 131.361 278.307 131.297 278.127C131.233 277.947 131.164 277.77 131.096 277.594C130.96 277.234 130.811 276.878 130.663 276.521C130.081 275.136 129.426 273.77 128.824 272.417C128.501 271.707 128.214 270.982 127.965 270.243L127.889 270.351C127.767 270.535 127.658 270.728 127.564 270.928C127.564 274.079 124.401 277.935 124.401 277.935L121.218 273.31L118.432 277.582C118.031 277.794 117.629 278.523 117.316 279.56C117.228 279.841 117.144 280.145 117.063 280.469C117.007 280.685 116.955 280.914 116.907 281.142C116.879 281.258 116.855 281.374 116.83 281.494L116.758 281.859V281.915C116.71 282.163 116.662 282.419 116.618 282.679C116.574 282.94 116.521 283.24 116.477 283.524C116.445 283.709 116.417 283.893 116.393 284.077C116.337 284.433 116.289 284.794 116.24 285.15C116.212 285.358 116.184 285.55 116.16 285.771L116.064 286.571C116.269 287.228 116.497 287.877 116.734 288.513C116.885 288.862 116.974 289.235 116.995 289.615C121.921 291.019 127.142 291.019 132.068 289.615C132.066 289.601 132.066 289.588 132.068 289.574C131.993 289.215 131.961 288.848 131.971 288.481C132.052 287.454 132.186 286.432 132.373 285.418C132.432 284.919 132.457 284.416 132.449 283.913V283.733C132.437 283.58 132.433 283.436 132.429 283.292ZM132.429 283.292C132.429 283.132 132.429 282.972 132.401 282.812C132.373 282.651 132.377 282.511 132.357 282.359C132.336 282.207 132.32 282.055 132.3 281.903C132.28 281.751 132.252 281.598 132.224 281.446C132.196 281.294 132.168 281.142 132.136 280.99C132.136 280.938 132.116 280.89 132.104 280.838C132.06 280.637 132.011 280.437 131.959 280.233C131.907 280.029 131.875 279.909 131.827 279.748C131.827 279.676 131.787 279.604 131.762 279.536C131.738 279.468 131.694 279.304 131.658 279.188L131.586 278.964C131.554 278.864 131.522 278.763 131.486 278.663C131.425 278.483 131.361 278.307 131.297 278.127C131.233 277.947 131.164 277.77 131.096 277.594C130.96 277.234 130.811 276.878 130.663 276.521C130.081 275.136 129.426 273.77 128.824 272.417C128.501 271.707 128.214 270.982 127.965 270.243L127.889 270.351C127.767 270.535 127.658 270.728 127.564 270.928C127.564 274.079 124.401 277.935 124.401 277.935L121.218 273.31L118.432 277.582C118.031 277.794 117.629 278.523 117.316 279.56C117.228 279.841 117.144 280.145 117.063 280.469C117.007 280.685 116.955 280.914 116.907 281.142C116.879 281.258 116.855 281.374 116.83 281.494L116.758 281.859V281.915C116.71 282.163 116.662 282.419 116.618 282.679C116.574 282.94 116.521 283.24 116.477 283.524C116.445 283.709 116.417 283.893 116.393 284.077C116.337 284.433 116.289 284.794 116.24 285.15C116.212 285.358 116.184 285.55 116.16 285.771L116.064 286.571C116.269 287.228 116.497 287.877 116.734 288.513C116.885 288.862 116.974 289.235 116.995 289.615C121.921 291.019 127.142 291.019 132.068 289.615C132.066 289.601 132.066 289.588 132.068 289.574C131.993 289.215 131.961 288.848 131.971 288.481C132.052 287.454 132.186 286.432 132.373 285.418C132.432 284.919 132.457 284.416 132.449 283.913V283.733C132.437 283.58 132.433 283.436 132.429 283.292ZM132.429 283.292C132.429 283.132 132.429 282.972 132.401 282.812C132.373 282.651 132.377 282.511 132.357 282.359C132.336 282.207 132.32 282.055 132.3 281.903C132.28 281.751 132.252 281.598 132.224 281.446C132.196 281.294 132.168 281.142 132.136 280.99C132.136 280.938 132.116 280.89 132.104 280.838C132.06 280.637 132.011 280.437 131.959 280.233C131.907 280.029 131.875 279.909 131.827 279.748C131.827 279.676 131.787 279.604 131.762 279.536C131.738 279.468 131.694 279.304 131.658 279.188L131.586 278.964C131.554 278.864 131.522 278.763 131.486 278.663C131.425 278.483 131.361 278.307 131.297 278.127C131.233 277.947 131.164 277.77 131.096 277.594C130.96 277.234 130.811 276.878 130.663 276.521C130.081 275.136 129.426 273.77 128.824 272.417C128.501 271.707 128.214 270.982 127.965 270.243L127.889 270.351C127.767 270.535 127.658 270.728 127.564 270.928C127.564 274.079 124.401 277.935 124.401 277.935L121.218 273.31L118.432 277.582C118.031 277.794 117.629 278.523 117.316 279.56C117.228 279.841 117.144 280.145 117.063 280.469C117.007 280.685 116.955 280.914 116.907 281.142C116.879 281.258 116.855 281.374 116.83 281.494L116.758 281.859V281.915C116.71 282.163 116.662 282.419 116.618 282.679C116.574 282.94 116.521 283.24 116.477 283.524C116.445 283.709 116.417 283.893 116.393 284.077C116.337 284.433 116.289 284.794 116.24 285.15C116.212 285.358 116.184 285.55 116.16 285.771L116.064 286.571C116.269 287.228 116.497 287.877 116.734 288.513C116.885 288.862 116.974 289.235 116.995 289.615C121.921 291.019 127.142 291.019 132.068 289.615C132.066 289.601 132.066 289.588 132.068 289.574C131.993 289.215 131.961 288.848 131.971 288.481C132.052 287.454 132.186 286.432 132.373 285.418C132.432 284.919 132.457 284.416 132.449 283.913V283.733C132.437 283.58 132.433 283.436 132.429 283.292ZM132.429 283.292C132.429 283.132 132.429 282.972 132.401 282.812C132.373 282.651 132.377 282.511 132.357 282.359C132.336 282.207 132.32 282.055 132.3 281.903C132.28 281.751 132.252 281.598 132.224 281.446C132.196 281.294 132.168 281.142 132.136 280.99C132.136 280.938 132.116 280.89 132.104 280.838C132.06 280.637 132.011 280.437 131.959 280.233C131.907 280.029 131.875 279.909 131.827 279.748C131.827 279.676 131.787 279.604 131.762 279.536C131.738 279.468 131.694 279.304 131.658 279.188L131.586 278.964C131.554 278.864 131.522 278.763 131.486 278.663C131.425 278.483 131.361 278.307 131.297 278.127C131.233 277.947 131.164 277.77 131.096 277.594C130.96 277.234 130.811 276.878 130.663 276.521C130.081 275.136 129.426 273.77 128.824 272.417C128.501 271.707 128.214 270.982 127.965 270.243L127.889 270.351C127.767 270.535 127.658 270.728 127.564 270.928C127.564 274.079 124.401 277.935 124.401 277.935L121.218 273.31L118.432 277.582C118.031 277.794 117.629 278.523 117.316 279.56C117.228 279.841 117.144 280.145 117.063 280.469C117.007 280.685 116.955 280.914 116.907 281.142C116.879 281.258 116.855 281.374 116.83 281.494L116.758 281.859V281.915C116.71 282.163 116.662 282.419 116.618 282.679C116.574 282.94 116.521 283.24 116.477 283.524C116.445 283.709 116.417 283.893 116.393 284.077C116.337 284.433 116.289 284.794 116.24 285.15C116.212 285.358 116.184 285.55 116.16 285.771L116.064 286.571C116.269 287.228 116.497 287.877 116.734 288.513C116.885 288.862 116.974 289.235 116.995 289.615C121.921 291.019 127.142 291.019 132.068 289.615C132.066 289.601 132.066 289.588 132.068 289.574C131.993 289.215 131.961 288.848 131.971 288.481C132.052 287.454 132.186 286.432 132.373 285.418C132.432 284.919 132.457 284.416 132.449 283.913V283.733C132.437 283.58 132.433 283.436 132.429 283.292ZM132.429 283.292C132.429 283.132 132.429 282.972 132.401 282.812C132.373 282.651 132.377 282.511 132.357 282.359C132.336 282.207 132.32 282.055 132.3 281.903C132.28 281.751 132.252 281.598 132.224 281.446C132.196 281.294 132.168 281.142 132.136 280.99C132.136 280.938 132.116 280.89 132.104 280.838C132.06 280.637 132.011 280.437 131.959 280.233C131.907 280.029 131.875 279.909 131.827 279.748C131.827 279.676 131.787 279.604 131.762 279.536C131.738 279.468 131.694 279.304 131.658 279.188L131.586 278.964C131.554 278.864 131.522 278.763 131.486 278.663C131.425 278.483 131.361 278.307 131.297 278.127C131.233 277.947 131.164 277.77 131.096 277.594C130.96 277.234 130.811 276.878 130.663 276.521C130.081 275.136 129.426 273.77 128.824 272.417C128.501 271.707 128.214 270.982 127.965 270.243L127.889 270.351C127.767 270.535 127.658 270.728 127.564 270.928C127.564 274.079 124.401 277.935 124.401 277.935L121.218 273.31L118.432 277.582C118.031 277.794 117.629 278.523 117.316 279.56C117.228 279.841 117.144 280.145 117.063 280.469C117.007 280.685 116.955 280.914 116.907 281.142C116.879 281.258 116.855 281.374 116.83 281.494L116.758 281.859V281.915C116.71 282.163 116.662 282.419 116.618 282.679C116.574 282.94 116.521 283.24 116.477 283.524C116.445 283.709 116.417 283.893 116.393 284.077C116.337 284.433 116.289 284.794 116.24 285.15C116.212 285.358 116.184 285.55 116.16 285.771L116.064 286.571C116.269 287.228 116.497 287.877 116.734 288.513C116.885 288.862 116.974 289.235 116.995 289.615C121.921 291.019 127.142 291.019 132.068 289.615C132.066 289.601 132.066 289.588 132.068 289.574C131.993 289.215 131.961 288.848 131.971 288.481C132.052 287.454 132.186 286.432 132.373 285.418C132.432 284.919 132.457 284.416 132.449 283.913V283.733C132.437 283.58 132.433 283.436 132.429 283.292Z" fill="#444176"/>
<path opacity="0.1" d="M121.274 273.042L121.005 273.006C120.599 272.951 120.197 272.871 119.801 272.766L119.652 272.726C118.673 272.449 117.601 271.953 117.36 271.08C117.289 270.799 117.297 270.504 117.384 270.227C117.519 269.751 117.702 269.289 117.93 268.85V268.826C117.961 268.764 117.994 268.704 118.031 268.645C118.362 268 118.863 267.456 119.48 267.072L118.998 267.148L114.92 267.809L108.598 268.826C108.598 268.826 107.474 268.601 105.945 272.806C105.945 272.858 105.908 272.906 105.892 272.962C105.523 273.991 105.134 275.276 104.732 276.882C104.455 277.995 104.203 279.088 103.97 280.149C103.902 280.469 103.833 280.786 103.769 281.098C104.493 281.949 105.272 282.752 106.101 283.5L106.234 283.625C107.858 285.092 109.653 286.36 111.58 287.4L111.657 287.44C112.869 288.093 114.13 288.65 115.43 289.106L115.771 289.226C115.843 288.486 115.923 287.665 116.02 286.824C116.02 286.74 116.02 286.656 116.052 286.572L116.148 285.771C116.172 285.567 116.2 285.37 116.228 285.15C116.277 284.794 116.325 284.433 116.381 284.077C116.405 283.893 116.433 283.709 116.465 283.525C116.509 283.24 116.558 282.956 116.606 282.68C116.654 282.403 116.698 282.163 116.746 281.915V281.859L116.818 281.494C116.843 281.374 116.867 281.258 116.895 281.142C116.943 280.914 116.995 280.686 117.051 280.469C117.132 280.145 117.216 279.841 117.304 279.56C117.625 278.523 117.999 277.795 118.42 277.582L121.206 273.31L121.322 273.13L121.374 273.05L121.274 273.042Z" fill="black"/>
<path opacity="0.1" d="M121.944 251.724C123.196 251.512 124.457 251.056 125.701 251.324C126.745 251.54 127.616 252.233 128.571 252.713C129.493 253.176 130.502 253.442 131.533 253.494C131.91 253.543 132.291 253.469 132.621 253.282C133.119 252.938 133.191 252.233 133.107 251.632C132.866 249.926 131.798 248.461 130.699 247.132C130.26 246.564 129.753 246.051 129.189 245.606C127.748 244.545 125.842 244.365 124.055 244.445C122.016 244.537 119.945 244.929 118.175 245.95C116.971 246.639 114.209 248.809 115.168 250.379C116.176 252.021 120.367 251.993 121.944 251.724Z" fill="black"/>
<path opacity="0.5" d="M121.944 251.324C123.196 251.112 124.457 250.655 125.701 250.924C126.745 251.14 127.616 251.832 128.571 252.313C129.493 252.776 130.502 253.042 131.533 253.094C131.91 253.143 132.291 253.069 132.621 252.882C133.119 252.537 133.191 251.832 133.107 251.232C132.866 249.526 131.798 248.061 130.699 246.731C130.26 246.163 129.753 245.651 129.189 245.206C127.748 244.145 125.842 243.964 124.055 244.045C122.016 244.137 119.945 244.529 118.175 245.55C116.971 246.239 114.209 248.409 115.168 249.979C116.176 251.62 120.367 251.592 121.944 251.324Z" fill="#444176"/>
</g>
<path d="M232.172 231.716H232.232C232.321 234.399 232.702 236.825 233.437 237.498C235.187 239.099 242.444 235.896 241.946 233.958C241.846 233.558 241.677 232.901 241.464 232.072C243.423 231.828 245.097 231.271 245.763 230.126L247.024 234.002L247.112 234.279H247.136H247.208C248.039 242.135 249.922 258.447 251.427 260.633C253.434 263.528 255.742 276.073 255.742 276.073L260.057 301.807C260.057 301.807 261.719 316.622 262.714 318.224C263.004 318.53 263.389 318.729 263.806 318.789C263.224 320.526 262.389 322.556 261.398 323.69C259.391 325.94 256.75 330.444 254.426 330.124C252.101 329.804 251.439 334.629 255.754 335.269C258.143 335.626 261.952 335.193 264.878 334.737C264.878 336.026 265.777 337.508 268.037 337.844C272.352 338.489 281.315 336.559 281.315 336.559C281.315 336.559 288.942 333.355 289.283 331.089C289.524 329.447 288.356 322.857 287.705 319.401C288.91 317.475 287.625 300.854 287.625 300.854L285.301 269.01C285.301 269.01 286.63 251.32 285.301 248.101C284.47 246.099 284.161 236.889 284.045 230.302L285.65 230.407C285.742 230.297 285.825 230.18 285.899 230.058L286.301 230.086C286.301 230.086 288.308 227.836 286.634 224.296C285.401 221.666 285.634 209.79 285.831 203.876L286.068 201.073C286.156 200.988 286.223 200.883 286.264 200.768C289.378 200.349 292.404 199.435 295.228 198.062C296.08 197.708 296.873 197.228 297.58 196.636C299.242 195.035 298.242 185.377 294.923 170.902C291.603 156.427 288.617 157.713 288.617 157.713C288.617 157.713 280.649 157.068 276.996 152.243C273.343 147.418 270.891 147.482 270.891 147.482C270.799 146.85 270.734 146.253 270.69 145.696C270.69 145.488 270.658 145.296 270.646 145.088C271.888 143.936 272.835 142.504 273.408 140.911C274.154 140.511 275.073 140.379 275.788 139.874C275.97 139.742 276.136 139.589 276.282 139.418C276.998 138.759 277.452 137.865 277.562 136.899C277.676 135.845 277.626 134.779 277.414 133.74C277.161 132.203 276.787 130.629 275.888 129.42C274.989 128.211 273.645 127.482 272.348 126.805C268.837 124.966 265.317 123.145 261.787 121.344C261.098 120.923 260.328 120.651 259.527 120.543C258.114 120.463 256.846 121.428 255.706 122.345C255.251 122.702 254.816 123.083 254.401 123.486C254.049 123.797 253.728 124.142 253.442 124.515C252.11 126.297 251.544 129.652 252.13 131.878C252.314 132.583 252.712 132.787 253.201 132.779C252.475 134.22 252.097 135.811 252.097 137.424C252.105 139.19 252.558 140.926 253.415 142.471C254.271 144.017 255.504 145.323 256.999 146.269C256.999 146.493 256.999 146.713 257.019 146.926C257.035 147.747 257.008 148.569 256.938 149.388C256.938 149.388 248.108 154.149 247.116 156.399C246.125 158.65 242.468 160.259 242.468 160.259C242.468 160.259 235.496 163.799 235.496 176.344L231.843 194.034L231.181 227.808C231.181 227.808 231.638 227.408 232.385 226.839C232.361 227.063 232.341 227.295 232.321 227.532C232.221 228.822 232.188 230.117 232.22 231.412L232.172 231.716ZM276.767 319.129C276.631 319.645 276.43 320.33 276.177 321.131C276.065 320.466 275.953 319.81 275.84 319.185C276.129 319.157 276.438 319.141 276.767 319.129Z" fill="url(#paint2_linear)"/>
<path d="M264.709 314.981C264.709 314.981 263.429 320.723 261.498 322.953C259.568 325.183 257.039 329.652 254.807 329.332C252.575 329.011 251.929 333.796 256.087 334.433C260.246 335.069 268.856 333.159 268.856 333.159C268.856 333.159 276.209 329.956 276.527 327.738C276.844 325.52 274.608 314.024 274.608 314.024L264.709 314.981Z" fill="#53526B"/>
<path opacity="0.05" d="M264.709 314.981C264.709 314.981 263.429 320.723 261.498 322.953C259.568 325.183 257.039 329.652 254.807 329.332C252.575 329.011 251.929 333.796 256.087 334.433C260.246 335.069 268.856 333.159 268.856 333.159C268.856 333.159 276.209 329.956 276.527 327.738C276.844 325.52 274.608 314.024 274.608 314.024L264.709 314.981Z" fill="black"/>
<path d="M276.539 317.531C276.539 317.531 275.258 323.273 273.327 325.503C271.397 327.734 268.856 332.202 266.628 331.882C264.4 331.562 263.75 336.346 267.909 336.983C272.067 337.62 280.697 335.706 280.697 335.706C280.697 335.706 288.051 332.502 288.368 330.284C288.685 328.066 286.449 316.57 286.449 316.57L276.539 317.531Z" fill="#53526B"/>
<path d="M247.445 230.158C247.445 230.158 250.002 257.582 251.921 260.453C253.84 263.324 256.075 275.761 256.075 275.761L260.23 301.271C260.23 301.271 261.835 315.942 262.787 317.535C263.738 319.129 275.603 318.444 275.603 318.444L268.226 233.982L247.445 230.158Z" fill="#5F5D7E"/>
<path opacity="0.05" d="M247.445 230.158C247.445 230.158 250.002 257.582 251.921 260.453C253.84 263.324 256.075 275.761 256.075 275.761L260.23 301.271C260.23 301.271 261.835 315.942 262.787 317.535C263.738 319.129 275.603 318.444 275.603 318.444L268.226 233.982L247.445 230.158Z" fill="black"/>
<path d="M242.332 217.077L243.166 219.723L247.682 234.022L247.77 234.294H247.795C248.401 234.43 261.197 237.365 263.959 238.266C264.108 238.312 264.254 238.367 264.396 238.43C265.677 239.067 267.274 262.026 267.274 262.026C267.274 262.026 268.234 283.712 268.88 285.306C269.526 286.9 272.091 319.741 273.677 318.788C275.262 317.835 286.782 318.788 286.782 318.788C288.063 317.511 286.782 300.293 286.782 300.293L284.51 268.729C284.51 268.729 285.791 251.191 284.51 248C283.23 244.809 283.23 223.447 283.23 223.447L257.063 219.367L254.534 218.967L242.332 217.077Z" fill="#5F5D7E"/>
<path opacity="0.02" d="M243.167 219.728L247.682 234.026L247.791 234.306C248.397 234.443 261.193 237.378 263.955 238.278H264.232L257.083 219.371L256.878 218.827L254.554 218.975L243.167 219.728Z" fill="black"/>
<path opacity="0.1" d="M273.022 153.304C273.022 153.304 261.193 166.061 253.84 155.534L246.807 160.319L248.088 167.655L243.929 223.139C243.929 223.139 254.799 222.819 262.47 225.37C264.606 226.126 266.915 226.257 269.123 225.748C271.332 225.24 273.349 224.112 274.937 222.499L273.673 173.713L276.551 158.726L273.022 153.304Z" fill="black"/>
<path d="M273.022 152.347C273.022 152.347 261.193 165.104 253.84 154.577L246.807 159.362L248.088 166.698L243.929 222.182C243.929 222.182 254.799 221.862 262.47 224.412C264.606 225.168 266.915 225.3 269.123 224.791C271.332 224.283 273.349 223.155 274.937 221.542L273.673 172.756L276.551 157.769L273.022 152.347Z" fill="#53526B"/>
<path d="M249.408 209.157V211.167H248.766V209.829H246.418V211.167H245.771V209.161L249.408 209.157Z" fill="#E82127"/>
<path d="M248.834 208.508H246.354C246.191 208.469 246.042 208.387 245.923 208.269C245.804 208.152 245.72 208.005 245.679 207.843H249.505C249.463 208.005 249.379 208.152 249.26 208.269C249.141 208.386 248.992 208.469 248.83 208.508" fill="#E82127"/>
<path d="M271.264 207.867C271.222 208.027 271.137 208.173 271.019 208.289C270.901 208.405 270.754 208.488 270.594 208.528H269.55L269.498 208.548V211.175H268.856V208.548L268.795 208.528H267.752C267.592 208.486 267.445 208.403 267.328 208.287C267.21 208.171 267.125 208.026 267.082 207.867H271.264Z" fill="#E82127"/>
<path d="M248.405 218.358C248.405 218.358 248.405 226.651 246.486 230.158C244.567 233.666 233.38 231.76 233.38 231.76L235.616 219.96L248.405 218.358Z" fill="#D6DBE6"/>
<path d="M234.597 237.497C236.283 239.099 243.271 235.896 242.789 233.99C242.452 232.64 241.272 227.812 240.602 225.073L240.136 223.147C240.136 223.147 236.042 221.869 234.597 223.147C234.071 223.611 233.702 225.441 233.529 227.651C233.232 231.491 233.533 236.48 234.597 237.497Z" fill="#FDC2CC"/>
<path d="M249.99 158.085L261.177 166.694C261.177 166.694 277.799 165.737 273.645 157.765C271.836 154.259 270.744 150.428 270.433 146.497C270.298 145.047 270.298 143.587 270.433 142.137C270.433 142.137 255.088 128.123 257.007 144.051C257.158 145.273 257.246 146.503 257.272 147.735C257.5 159.691 249.99 158.085 249.99 158.085Z" fill="#FDC2CC"/>
<path opacity="0.1" d="M257.039 144.055C257.19 145.277 257.278 146.507 257.304 147.738C259.026 148.876 261.046 149.481 263.112 149.476C265.974 149.476 268.081 146.697 269.984 144.851C269.771 142.205 270.461 142.141 270.461 142.141C270.461 142.141 255.12 128.11 257.039 144.055Z" fill="black"/>
<path d="M263.112 148.839C268.938 148.839 273.66 144.128 273.66 138.317C273.66 132.505 268.938 127.794 263.112 127.794C257.286 127.794 252.563 132.505 252.563 138.317C252.563 144.128 257.286 148.839 263.112 148.839Z" fill="#FDC2CC"/>
<path opacity="0.1" d="M270.622 148.359C270.622 148.359 272.38 148.519 275.896 153.3C279.412 158.081 287.083 158.721 287.083 158.721C287.083 158.721 289.961 157.444 293.156 171.795C296.351 186.145 297.311 195.711 295.713 197.305C294.116 198.898 287.721 201.137 284.51 201.137C284.51 201.137 283.551 221.225 285.148 224.733C286.746 228.24 284.827 230.474 284.827 230.474L270.778 229.517C270.778 229.517 265.982 223.459 265.022 212.937C264.063 202.414 260.868 172.435 262.465 168.928C264.063 165.42 271.095 156.491 270.778 155.534C270.461 154.577 270.622 148.359 270.622 148.359Z" fill="black"/>
<path d="M270.658 148.263C270.658 148.263 273.023 148.199 276.539 152.984C280.055 157.768 287.722 158.405 287.722 158.405C287.722 158.405 290.6 157.128 293.795 171.478C296.99 185.829 297.949 195.395 296.352 196.988C294.754 198.582 288.36 200.816 285.165 200.816C285.165 200.816 284.205 220.905 285.803 224.412C287.401 227.92 285.482 230.154 285.482 230.154L271.433 229.197C271.433 229.197 266.636 223.139 265.677 212.616C264.718 202.094 261.514 172.119 263.112 168.627C264.71 165.136 271.742 156.191 271.425 155.234C271.108 154.277 270.658 148.263 270.658 148.263Z" fill="#D6DBE6"/>
<path opacity="0.1" d="M233.533 227.648C235.062 226.483 237.948 224.669 240.605 225.069L240.14 223.143C240.14 223.143 236.045 221.866 234.6 223.143C234.067 223.608 233.701 225.434 233.533 227.648Z" fill="black"/>
<path opacity="0.1" d="M257.215 150.273C257.215 150.273 249.063 155.534 248.104 157.769C247.144 160.003 243.628 161.596 243.628 161.596C243.628 161.596 236.917 165.104 236.917 177.541L233.4 195.079L249.384 217.401C249.384 217.401 251.303 195.079 252.262 189.657C253.221 184.236 254.498 174.041 254.498 174.041C254.498 174.041 259.295 167.983 258.652 166.389C258.01 164.796 257.215 150.273 257.215 150.273Z" fill="black"/>
<path d="M257.215 150.177C257.215 150.177 248.714 154.898 247.758 157.128C246.803 159.358 243.283 160.956 243.283 160.956C243.283 160.956 236.571 164.463 236.571 176.9L233.055 194.438L232.417 227.92C232.417 227.92 238.173 222.498 242.328 225.049C246.482 227.6 249.039 216.757 249.039 216.757C249.039 216.757 250.958 194.434 251.917 189.012C252.876 183.591 254.153 173.396 254.153 173.396C254.153 173.396 258.949 167.338 258.307 165.745C257.665 164.151 257.215 150.177 257.215 150.177Z" fill="#D6DBE6"/>
<path opacity="0.1" d="M253.851 125.516C254.393 124.829 255.018 124.213 255.714 123.682C256.814 122.769 258.03 121.816 259.395 121.896C260.167 121.998 260.908 122.263 261.57 122.673C264.969 124.458 268.358 126.263 271.738 128.086C272.986 128.759 274.275 129.472 275.146 130.681C276.017 131.89 276.37 133.444 276.615 134.965C276.82 135.996 276.868 137.051 276.759 138.096C276.66 139.121 276.161 140.066 275.37 140.727C274.459 141.388 273.211 141.392 272.448 142.257C272.007 142.757 271.814 143.458 271.501 144.066C271.188 144.675 270.646 145.268 270.028 145.16C269.41 145.051 269.036 144.399 268.948 143.738C268.909 143.068 268.948 142.397 269.064 141.736C269.185 140.535 269.032 139.261 268.334 138.369C267.852 137.76 267.162 137.392 266.696 136.767C265.58 135.261 266.09 132.763 264.866 131.349C264.51 130.98 264.063 130.711 263.569 130.571C263.076 130.43 262.554 130.422 262.056 130.549C261.065 130.757 260.157 131.293 259.246 131.75C258.015 132.369 256.726 132.866 255.397 133.231C254.281 133.536 252.989 134.264 252.607 132.783C252.025 130.609 252.567 127.281 253.851 125.516Z" fill="black"/>
<path d="M254.173 125.2C254.714 124.513 255.34 123.897 256.035 123.366C257.135 122.453 258.351 121.5 259.716 121.58C260.488 121.682 261.229 121.947 261.891 122.357C265.287 124.143 268.109 122.453 272.059 127.77C272.902 128.907 274.596 129.156 275.467 130.365C276.338 131.574 276.691 133.128 276.936 134.649C277.141 135.68 277.189 136.735 277.08 137.78C276.981 138.805 276.482 139.75 275.691 140.411C274.78 141.072 273.532 141.076 272.769 141.941C272.328 142.441 272.135 143.142 271.822 143.75C271.509 144.359 270.967 144.952 270.349 144.844C269.731 144.735 269.357 144.083 269.269 143.422C269.23 142.753 269.269 142.081 269.386 141.42C269.506 140.219 269.353 138.946 268.655 138.053C268.173 137.444 267.483 137.076 267.017 136.451C265.901 134.946 266.411 132.447 265.187 131.034C264.831 130.664 264.384 130.395 263.89 130.255C263.397 130.114 262.875 130.106 262.377 130.233C261.386 130.441 260.479 130.977 259.567 131.434C258.336 132.053 257.047 132.55 255.718 132.915C254.602 133.22 253.31 133.949 252.928 132.467C252.342 130.293 252.888 126.961 254.173 125.2Z" fill="#865A61"/>
<path opacity="0.1" d="M282.985 173.869C282.985 173.869 287.248 184.712 284.049 189.177L277.017 187.575C277.017 187.575 283.411 189.489 282.452 185.661C281.492 181.833 282.985 173.869 282.985 173.869Z" fill="black"/>
<path opacity="0.1" d="M285.313 200.66C285.313 200.66 276.041 201.297 273.484 199.383C276.851 201.947 280.827 203.595 285.024 204.168L285.313 200.66Z" fill="black"/>
<path opacity="0.1" d="M245.37 180.239C245.37 180.239 240.573 194.91 240.894 197.14C241.215 199.371 241.854 223.928 241.854 223.928L242.813 223.607L242.492 196.82L245.37 180.239Z" fill="black"/>
<path d="M286.441 198.17L176.86 110.08C176.222 109.444 175.465 108.94 174.631 108.596C173.798 108.253 172.905 108.077 172.003 108.078H167.347C176.651 96.1834 181.058 81.1963 179.667 66.1727C178.276 51.1491 171.194 37.2202 159.863 27.2263C148.532 17.2323 133.807 11.9258 118.689 12.3888C103.571 12.8517 89.1997 19.0493 78.5049 29.7178C67.81 40.3863 61.5971 54.7223 61.133 69.8027C60.6689 84.8832 65.9885 99.5723 76.0072 110.875C86.0258 122.178 99.9891 129.243 115.05 130.63C130.111 132.018 145.135 127.622 157.059 118.34V122.981C157.057 123.881 157.234 124.772 157.578 125.603C157.923 126.434 158.428 127.19 159.066 127.826L268.647 215.916C269.282 216.554 270.036 217.06 270.868 217.406C271.699 217.751 272.591 217.929 273.492 217.929C274.393 217.929 275.285 217.751 276.116 217.406C276.948 217.06 277.703 216.554 278.337 215.916L286.413 207.868C287.702 206.583 288.428 204.842 288.433 203.024C288.439 201.207 287.722 199.462 286.441 198.17ZM120.475 108.078C113.24 108.078 106.167 105.938 100.151 101.928C94.1346 97.9178 89.4457 92.2184 86.6768 85.5501C83.9079 78.8819 83.1834 71.5443 84.595 64.4654C86.0065 57.3864 89.4908 50.8839 94.607 45.7803C99.7233 40.6766 106.242 37.201 113.338 35.7929C120.435 34.3848 127.79 35.1075 134.475 37.8696C141.16 40.6316 146.873 45.3091 150.893 51.3103C154.913 57.3116 157.059 64.3672 157.059 71.5848C157.062 76.3786 156.119 81.1261 154.282 85.5557C152.445 89.9854 149.75 94.0104 146.352 97.4004C142.955 100.791 138.92 103.479 134.48 105.313C130.04 107.146 125.281 108.089 120.475 108.086V108.078Z" fill="url(#paint3_linear)"/>
<path d="M287.244 197.369L177.662 109.279C177.025 108.643 176.267 108.139 175.434 107.796C174.6 107.452 173.707 107.276 172.805 107.277H168.149C177.454 95.3826 181.86 80.3956 180.47 65.3719C179.079 50.3483 171.996 36.4195 160.666 26.4255C149.335 16.4315 134.609 11.125 119.492 11.588C104.374 12.051 90.0025 18.2485 79.3076 28.917C68.6127 39.5855 62.3998 53.9215 61.9357 69.002C61.4716 84.0824 66.7912 98.7716 76.8099 110.074C86.8286 121.377 100.792 128.443 115.853 129.83C130.913 131.217 145.937 126.821 157.861 117.54V122.18C157.86 123.08 158.037 123.971 158.381 124.802C158.725 125.634 159.231 126.389 159.868 127.025L269.45 215.115C270.084 215.753 270.839 216.259 271.671 216.605C272.502 216.951 273.394 217.128 274.295 217.128C275.196 217.128 276.087 216.951 276.919 216.605C277.751 216.259 278.505 215.753 279.14 215.115L287.216 207.067C288.504 205.782 289.231 204.041 289.236 202.224C289.241 200.406 288.525 198.661 287.244 197.369ZM121.278 107.277C114.043 107.277 106.97 105.137 100.953 101.127C94.9374 97.1171 90.2484 91.4176 87.4795 84.7494C84.7106 78.0811 83.9861 70.7436 85.3977 63.6646C86.8093 56.5856 90.2935 50.0832 95.4098 44.9795C100.526 39.8758 107.045 36.4002 114.141 34.9921C121.238 33.584 128.593 34.3067 135.278 37.0688C141.963 39.8309 147.676 44.5083 151.696 50.5095C155.716 56.5108 157.861 63.5664 157.861 70.784C157.865 75.5778 156.921 80.3253 155.084 84.7549C153.247 89.1846 150.553 93.2096 147.155 96.5996C143.757 99.9897 139.723 102.678 135.283 104.512C130.843 106.345 126.084 107.288 121.278 107.285V107.277Z" fill="#1A5C80"/>
<path d="M279.096 189.337C279.096 189.337 263.1 171.038 265.348 183.595C266.953 192.524 273.019 197.309 275.897 198.266C278.775 199.223 279.096 189.337 279.096 189.337Z" fill="#FDC2CC"/>
<path d="M282.933 172.436C282.933 172.436 283.254 184.236 284.852 185.829C286.449 187.423 283.892 189.337 283.892 189.337L277.498 187.735C277.498 187.735 279.104 198.258 272.384 196.985C272.384 196.985 276.86 201.129 281.335 201.769C285.811 202.41 285.49 200.812 285.49 200.812L292.201 192.84L282.933 172.436Z" fill="#D6DBE6"/>
<path d="M284.703 200.985L291.189 199.563L290.322 196.58L286.309 194.979L281.09 197.381L284.703 200.985Z" fill="#D6DBE6"/>
<path d="M125.28 85.9073L133.914 79.2645C133.914 79.2645 128.13 80.5018 128.295 71.2804C128.293 71.2497 128.293 71.219 128.295 71.1883C128.295 70.3555 128.375 69.4425 128.495 68.4375C129.976 56.133 118.135 66.96 118.135 66.96C118.237 68.0494 118.237 69.1459 118.135 70.2353C118.135 70.2634 118.135 70.2954 118.135 70.3234C117.901 73.3556 117.063 76.3109 115.671 79.0163C112.455 85.1665 125.28 85.9073 125.28 85.9073Z" fill="#FDC2CC"/>
<path opacity="0.1" d="M119.239 68.5256C120.704 69.947 121.599 72.5297 123.803 72.5297C125.397 72.5332 126.957 72.0665 128.286 71.1883C128.286 70.3555 128.367 69.4425 128.487 68.4375C129.968 56.133 118.127 66.96 118.127 66.96C118.127 66.96 119.395 66.5236 119.239 68.5256Z" fill="black"/>
<path d="M123.803 72.1292C128.299 72.1292 131.943 68.4936 131.943 64.0089C131.943 59.5242 128.299 55.8887 123.803 55.8887C119.307 55.8887 115.663 59.5242 115.663 64.0089C115.663 68.4936 119.307 72.1292 123.803 72.1292Z" fill="#FDC2CC"/>
<path opacity="0.1" d="M131.61 53.6104C131.144 53.0218 130.604 52.4945 130.005 52.0408C129.065 51.26 128.022 50.4392 126.854 50.5113C126.193 50.599 125.558 50.8255 124.991 51.1759C122.081 52.7055 119.669 51.26 116.285 55.8087C115.562 56.7816 114.113 57.0099 113.367 58.0309C112.62 59.052 112.319 60.3933 112.106 61.6986C111.931 62.5816 111.889 63.486 111.982 64.3814C112.071 65.2602 112.504 66.0687 113.186 66.6317C113.965 67.1962 115.037 67.2002 115.691 67.941C116.02 68.4235 116.289 68.9438 116.494 69.4906C116.759 70.0111 117.224 70.5036 117.754 70.4275C118.284 70.3515 118.601 69.7789 118.677 69.2263C118.71 68.6544 118.677 68.0807 118.577 67.5166C118.477 66.5035 118.605 65.3984 119.203 64.6336C119.605 64.1091 120.207 63.7968 120.604 63.2642C121.559 61.9789 121.126 59.8207 122.173 58.6275C122.48 58.3137 122.864 58.0865 123.287 57.969C123.71 57.8516 124.157 57.8481 124.582 57.9588C125.426 58.1991 126.235 58.5463 126.99 58.9919C128.044 59.5225 129.148 59.9477 130.286 60.2612C131.241 60.5215 132.349 61.1461 132.674 59.8608C133.184 57.9709 132.706 55.12 131.61 53.6104Z" fill="black"/>
<path d="M131.61 53.21C131.144 52.6215 130.604 52.0941 130.005 51.6404C129.065 50.8596 128.022 50.0388 126.854 50.1109C126.193 50.1986 125.558 50.4252 124.991 50.7756C122.081 52.3051 119.669 50.8596 116.285 55.4083C115.562 56.3813 114.113 56.6095 113.367 57.6305C112.62 58.6516 112.319 59.9929 112.106 61.2983C111.931 62.1813 111.889 63.0856 111.982 63.981C112.071 64.8598 112.504 65.6683 113.186 66.2313C113.965 66.7959 115.037 66.7999 115.691 67.5406C116.02 68.0231 116.289 68.5434 116.494 69.0902C116.759 69.6107 117.224 70.1032 117.754 70.0272C118.284 69.9511 118.601 69.3785 118.677 68.8259C118.71 68.2541 118.677 67.6803 118.577 67.1162C118.477 66.1032 118.605 64.998 119.203 64.2333C119.605 63.7087 120.207 63.3964 120.604 62.8639C121.559 61.5786 121.126 59.4204 122.173 58.2271C122.48 57.9133 122.864 57.6861 123.287 57.5686C123.71 57.4512 124.157 57.4477 124.582 57.5585C125.426 57.7987 126.235 58.1459 126.99 58.5915C128.044 59.1221 129.148 59.5473 130.286 59.8608C131.241 60.1211 132.349 60.7457 132.674 59.4604C133.184 57.5705 132.706 54.7196 131.61 53.21Z" fill="#865A61"/>
<path opacity="0.1" d="M115.663 90.1801L115.502 96.3263C117.835 96.9587 120.242 97.2779 122.659 97.2753C123.061 97.2753 123.482 97.2753 123.891 97.2473C126.035 97.1551 128.16 96.8083 130.221 96.2142H130.262C130.643 96.1021 131.02 95.986 131.394 95.8578H131.434L131.775 95.7377C133.074 95.2813 134.336 94.7244 135.548 94.072L135.624 94.032C135.757 93.9599 135.889 93.8878 136.026 93.8118L135.403 85.5273L136.395 79.8455L130.968 76.1578C130.663 76.5966 130.322 77.0092 129.948 77.391C129.413 77.9492 128.786 78.4123 128.094 78.7604C124.2 80.6744 119.769 77.6313 117.565 75.7494L117.064 75.3049C116.494 74.7884 116.169 74.436 116.169 74.436L113.455 78.6163L115.663 90.1801Z" fill="black"/>
<path d="M115.663 90.58L115.502 96.7262C117.835 97.3586 120.242 97.6778 122.659 97.6752C123.061 97.6752 123.482 97.6752 123.891 97.6472C126.035 97.555 128.16 97.2082 130.221 96.6141H130.262C130.643 96.502 131.02 96.3859 131.394 96.2577H131.434L131.775 96.1376C133.074 95.6812 134.336 95.1243 135.548 94.4719L135.624 94.4319C135.757 94.3598 135.889 94.2877 136.026 94.2117L135.403 85.9272L136.395 80.2454L130.968 76.5577C130.663 76.9965 130.322 77.4091 129.948 77.7909C129.413 78.3491 128.786 78.8122 128.094 79.1603C124.2 81.0743 119.769 78.0312 117.565 76.1493L117.064 75.7048C116.494 75.1883 116.169 74.8359 116.169 74.8359L113.455 79.0162L115.663 90.58Z" fill="#53526B"/>
<path d="M130.707 91.0728C130.707 91.0728 131.004 93.4312 131.393 96.2501H131.434L131.775 96.13C133.074 95.6735 134.336 95.1166 135.548 94.4643L135.624 94.4242C135.757 94.3521 135.889 94.2801 136.026 94.204C137.805 93.2077 139.466 92.015 140.979 90.6484L141.111 90.5243C141.941 89.7753 142.72 88.9728 143.443 88.1218L143.528 88.0217C142.095 83.0607 139.112 81.4991 139.112 81.4991C139.112 81.4991 136.399 80.2658 135.656 78.5441C134.914 76.8223 128.359 73.1826 128.359 73.1826V73.2106C128.359 73.519 128.254 76.3418 128.098 79.1807C127.998 81.0266 127.873 82.8805 127.729 84.0577C127.697 84.4401 127.627 84.8184 127.52 85.1868C127.01 86.4001 130.707 91.0728 130.707 91.0728Z" fill="#555388"/>
</g>
<defs>
<linearGradient id="paint0_linear" x1="206.43" y1="318.164" x2="206.43" y2="15.7319" gradientUnits="userSpaceOnUse">
<stop stop-color="#808080" stop-opacity="0.25"/>
<stop offset="0.54" stop-color="#808080" stop-opacity="0.12"/>
<stop offset="1" stop-color="#808080" stop-opacity="0.1"/>
</linearGradient>
<linearGradient id="paint1_linear" x1="15013.6" y1="24805.3" x2="15013.6" y2="18940.9" gradientUnits="userSpaceOnUse">
<stop stop-color="#808080" stop-opacity="0.25"/>
<stop offset="0.54" stop-color="#808080" stop-opacity="0.12"/>
<stop offset="1" stop-color="#808080" stop-opacity="0.1"/>
</linearGradient>
<linearGradient id="paint2_linear" x1="-70188" y1="188856" x2="-70188" y2="70787.8" gradientUnits="userSpaceOnUse">
<stop stop-color="#808080" stop-opacity="0.25"/>
<stop offset="0.54" stop-color="#808080" stop-opacity="0.12"/>
<stop offset="1" stop-color="#808080" stop-opacity="0.1"/>
</linearGradient>
<linearGradient id="paint3_linear" x1="108840" y1="116806" x2="108840" y2="11230.2" gradientUnits="userSpaceOnUse">
<stop stop-color="#808080" stop-opacity="0.25"/>
<stop offset="0.54" stop-color="#808080" stop-opacity="0.12"/>
<stop offset="1" stop-color="#808080" stop-opacity="0.1"/>
</linearGradient>
<clipPath id="clip0">
<rect width="447" height="338" fill="white"/>
</clipPath>
</defs>
</svg>
